<?xml version="1.0" encoding="UTF-8"?>
<svg id="Layer_1" data-name="Layer 1" xmlns="http://www.w3.org/2000/svg" viewBox="0 0 599.36 567.44">
  <defs>
    <style>
      .cls-1 {
        fill: #ceabee;
      }

      .cls-2 {
        fill: #1f184e;
      }

      .cls-3 {
        fill: #733abb;
      }

      .cls-4 {
        fill: #271357;
      }

      .cls-5 {
        fill: #efe5fa;
      }

      .cls-6 {
        fill: #995cdc;
      }

      .cls-7 {
        fill: #a66ee2;
      }

      .cls-8 {
        fill: #8245cb;
      }

      .cls-9 {
        fill: #5e2aa2;
      }

      .cls-10 {
        fill: #874ad1;
      }

      .cls-11 {
        fill: #be98e9;
      }

      .cls-12 {
        fill: #af92d6;
      }

      .cls-13 {
        fill: #7b41c4;
      }

      .cls-14 {
        fill: #8c4dd4;
      }
    </style>
  </defs>
  <path class="cls-4" d="M455.04,391.77c-8.5,8.18-19.22,14.02-30.67,18.08-15.6,5.53-30.77,10.05-47.38,12.7-50.93,8.12-102.63,7.91-153.4-1.26-25.2-4.55-59.52-13.92-76.46-31.48-7.79-8.07-8.17-18.9-.53-27.11,1.6-1.72,3.64-3.26,4.74-5.41l3.84,4.35c5.99,6.79,22.99,6.08,33.29,2.94,16.61-5.08,31.51-12.86,45.64-22.01,8.09.09,16.22-.22,24.24,1.06l2.73,7.89c3.22,9.31,9.01,17.68,15.2,25.84l4.69,4.35c2.69,2.5,5.39,5.25,7.98,7.81,11.72,11.58,26.02,16.86,41.77,19.99,41.83,8.29,87.03-19.37,100.37-57.75l1.3-3.73,2.08.73c8.11,3.98,15.29,7.86,21.28,13.96,8.32,8.49,8.08,20.58-.71,29.05Z"/>
  <path class="cls-14" d="M221.29,324.45c.03,1.43.45,2.96,1.59,4.32l11.23,13.79c-14.13,9.15-29.03,16.93-45.64,22.01-10.3,3.15-27.3,3.86-33.29-2.94l-3.84-4.35-6.44-8.53c11.78,1.88,24.1,1.14,34.54-3.83,2.88-1.37,6.22-1.96,9.5-3.7l24.2-12.81c2.86-1.51,5.15-3.98,8.15-3.96Z"/>
  <path class="cls-13" d="M435.05,340.41l-3.95,11.35c-2.92-1.33-5.99-2.93-7.75-5.69s4.2-7.85.12-8.6c8.98-34.89-4.85-71.21-34.97-91.4-9.99-6.69-20.83-10.98-32.36-12.64l.1-1.36c35.44,1.35,67.14,28.18,77.71,63.45,4.44,14.82,3.99,30.18,1.09,44.9Z"/>
  <path class="cls-5" d="M351.06,232.31c1.36,1.99,3.38.87,5.08,1.11,11.53,1.66,22.37,5.95,32.36,12.64,30.12,20.19,43.94,56.51,34.97,91.4-10.46,40.66-50.26,68.77-92.35,65.59-9.43-.71-19.24-3.2-28.27-7.2l-7.86-4.75.35-2.72c1.59,1.15,3.75,2.11,5.83,3.1,19.22,9.19,40.24,11.34,60.57,4.69,32.9-10.77,57.2-38.69,60.42-73.67,2.15-23.31-6.28-45.8-22.5-62.66-17.91-18.62-44.36-27.11-69.34-23.68,6.6-4.61,17.04-.52,16.93-4.55,1.06.06,3.13-.32,3.82.7Z"/>
  <path class="cls-11" d="M291.14,227.11c.85,5.51.36,10.62-1.62,15.6l-3.33.11-.1-9.34c-.1-9.25-11.32-13.21-22.48-11.62-8.36,1.19-15.88,3.09-23.45,6.63-17.37,8.14-32.65,18.32-47.59,30.33-15.14,12.17-28.13,25.86-39.02,41.91-2.95,4.35-4.64,8.66-6.67,13.5-3.24,7.71-5.26,17.07-.99,24.73,3.58,6.44,11.6,8.27,18.36,7.31l15.21-1.35c-10.44,4.97-22.76,5.71-34.54,3.83-14.29-10.96-5.2-33.79,5.31-48.6,21.14-29.78,49.62-53.46,81.95-70.47,14.24-7.49,33.17-14.97,48.07-12.11,5.26,1.01,10.15,4.72,10.9,9.55Z"/>
  <path class="cls-1" d="M347.24,231.61c.11,4.03-10.32-.06-16.93,4.55-17.86,2.46-35.67,12.6-49,24.78l1.55-4.39c1.74-.65,3.88-2.36,4.13-3.99l16.62-11.48c13.47-6.75,28.46-10.3,43.62-9.46Z"/>
  <path class="cls-3" d="M303.62,241.07l-16.62,11.48c-.17-.4-.82-1.59-.18-2.16,2.56-2.33,1.8-5.42,2.7-7.67,1.98-4.99,2.47-10.09,1.62-15.6,1.41.44,2.73,1.29,3.77,2.65l8.71,11.31Z"/>
  <path class="cls-1" d="M356.24,232.06l-.1,1.36c-1.7-.25-3.72.88-5.08-1.11,1.63.8,3.76-.3,5.18-.25Z"/>
  <path class="cls-7" d="M295.34,388.37l-1.22-.89-4.08-2.26c-2.21-2.56-5.28-4.01-7.61-6.04-8.14-7.08-14.21-15.97-18.85-26.11-.58-1.27-1.47-1.7-2.49-1.57l-2.73-7.89-1.51-5.69-1.7-17.11c-.96-9.65,2.39-19.3,4.8-28.69,1.31-5.07,7.68-9.13,3.9-9.96l8.04-12.84c3.16.42,8.56-5.87,9.45-8.41,13.32-12.18,31.13-22.32,49-24.78,24.98-3.44,51.43,5.05,69.34,23.68,16.22,16.86,24.64,39.35,22.5,62.66-3.22,34.98-27.52,62.9-60.42,73.67-20.33,6.66-41.35,4.51-60.57-4.69-2.07-.99-4.24-1.95-5.83-3.1ZM351.19,391.04c31.17-5.91,55.41-29.74,62.22-60.06,4.99-22.2-1.64-44.57-15.9-61.94-19.03-23.17-50.28-31.52-78.83-21.9-42.5,14.32-67.87,64.4-46.27,105.19,14.87,28.09,46.46,44.84,78.79,38.7Z"/>
  <path class="cls-3" d="M431.1,351.76c-13.35,38.37-58.54,66.03-100.37,57.74l.39-6.45c42.09,3.18,81.89-24.93,92.35-65.59,4.08.75-1.83,5.92-.12,8.6s4.83,4.37,7.75,5.69Z"/>
  <path class="cls-3" d="M248.26,321.92l6.87-1.09,1.7,17.11,1.51,5.69c-8.02-1.28-16.15-.97-24.24-1.06l-11.23-13.79c-1.15-1.36-1.57-2.89-1.59-4.32.58,0,1.32.33,1.73.62l13.26,16.54c3.46-1.52,4.46-3.57,6.7-5.38,6.57-5.33-4.43-9.6-8.93-19.99,7.88,3.34,9.23,14.08,15.21,13.19.28-2.89-.66-5.12-.99-7.51Z"/>
  <path class="cls-14" d="M292.04,389.53c.99.59,1.98.98,2.94,1.57l7.86,4.75c9.03,3.99,18.84,6.48,28.27,7.2l-.39,6.45c-15.75-3.12-30.06-8.4-41.77-19.98.68-.3,1.06-.64,1.29-1.08l1.8,1.09Z"/>
  <path class="cls-11" d="M282.42,379.2l-1.45,2.51-4.69-4.35c-6.18-8.16-11.98-16.52-15.2-25.84,1.02-.13,1.9.3,2.49,1.57,4.65,10.14,10.71,19.03,18.85,26.11Z"/>
  <path class="cls-1" d="M290.04,385.23l.21,3.2c-.22.45-.61.79-1.29,1.08-2.59-2.56-5.29-5.31-7.98-7.81l1.45-2.51c2.33,2.02,5.4,3.47,7.61,6.04Z"/>
  <path class="cls-5" d="M286.19,242.83l-1.36,3.22-1.99.29c2.44-5.37,2.32-12.49-1.99-17.53-11.31-13.24-38.94.31-54.73,8.63-20.78,10.95-38.33,25.49-54.23,42.7-9.28,10.05-17.25,20.46-23.04,32.99-1.79,3.86-2.43,8.47-3.13,12.74-1.35,8.22,3.16,16.25,11.57,17.69,5.01.86,10.58.97,15.36-.64l21.74-7.32c19.98-9.28,37.48-22.08,53.65-36.34l.11,2.16.15,1.24-11.7,9.22c-1.54,1.26-2.7,2.17-2.43,4.02-.49-.41-1.73-.82-2.6-.21l-7.16,5.05c-1.64,1.16-1.98,2.77-1.4,4.36-.42-.29-1.16-.62-1.73-.62-3-.02-5.29,2.45-8.15,3.96l-24.2,12.81c-3.28,1.74-6.62,2.33-9.5,3.7l-15.21,1.35c-6.76.96-14.78-.87-18.36-7.31-4.26-7.66-2.25-17.02.99-24.73,2.04-4.84,3.73-9.15,6.67-13.5,10.88-16.05,23.88-29.73,39.02-41.91,14.94-12.02,30.22-22.19,47.59-30.33,7.57-3.55,15.09-5.45,23.45-6.63,11.16-1.58,22.38,2.38,22.48,11.62l.1,9.34Z"/>
  <path class="cls-1" d="M295.34,388.37l-.35,2.72c-.96-.58-1.95-.98-2.94-1.57.68.17,1.61-.01,1.97-.61.24-.39.22-1.07.1-1.44l1.22.89Z"/>
  <path class="cls-10" d="M289.51,242.72c-.89,2.25-.14,5.34-2.7,7.67-.63.57.01,1.76.18,2.16-.25,1.63-2.39,3.34-4.13,3.99.26-.73-1.2-1.76-.17-3.42,1.38-2.22,1.27-5.04,2.13-7.08l1.36-3.22,3.33-.11Z"/>
  <path class="cls-12" d="M284.83,246.04c-.86,2.04-.74,4.86-2.13,7.08-1.03,1.65.42,2.69.17,3.42l-1.55,4.39c-.89,2.54-6.29,8.82-9.45,8.41,4.28-6.84,7.96-14.17,10.43-21.83l.53-1.17,1.99-.29Z"/>
  <path class="cls-2" d="M351.19,391.04c-32.32,6.13-63.91-10.61-78.79-38.7-21.6-40.79,3.77-90.87,46.27-105.19,28.56-9.62,59.81-1.28,78.83,21.9,14.26,17.36,20.89,39.74,15.9,61.94-6.81,30.32-31.05,54.15-62.22,60.06ZM378.7,351.6c7.46-9.36,12.3-17.75,4.71-23.48-9.54-7.19-18.75-14.17-27.57-22.5,8.53-9.6,18.84-16.34,31.74-12.99-1.78-6.3-4.93-11.78-9.91-15.71-5.26-4.15-13.17-4.13-18.54-.37l-18.13,12.7-14.78-12.78c-5.81-5.02-14.95-4.75-20.83.2-4.81,4.06-8.23,8.91-10.65,14.83,11.99-4.46,22.69,3.06,29.72,12.45-9.62,8.48-19.51,14.47-29.5,21.33-3.25,2.23-6.27,5.58-5.29,9.67,1.33,5.56,4.05,10.31,6.99,14.84,2.33-4.37,5.37-6.53,9.01-8.8,11.9-7.41,23.4-14.56,34.51-23.51,10.19,9.3,20.42,17.47,31.22,25.71,3.21,2.46,5.88,4.97,7.3,8.41ZM320.53,303.49c-8.56-10.61-21.79-14.86-28-6.59-2.21,2.95-.35,6.99,2.27,8.93l11.45,8.45,14.27-10.78ZM388.61,305.45c2.69-1.91,1.55-6.06.02-7.91-6.23-7.59-20.24-1.07-28.68,7.99l13,11.02,15.66-11.09ZM339.26,339.42l20.2,19.58c4.37,4.23,11.04,4.53,15.47.17,1.83-3.01,1.55-8.48-1.61-10.9-11.41-8.74-22.16-17.29-33.29-27.15-11.9,9.3-24.04,16.76-36.52,24.61-2.79,1.75-4.2,4.81-4.38,7.35-.18,2.67.7,5.68,3.48,7.04,4.63,2.28,9.96.81,13.89-2.36l22.76-18.33Z"/>
  <path class="cls-3" d="M282.3,247.51c-2.47,7.66-6.15,15-10.43,21.83l-8.04,12.84-9.5,10.45c-1.68,1.84-3.23,3.58-5.29,4.14,0-.93-.32-1.83-1.3-2.83,1.75-1.63,3.64-4.11,4.49-6.36,2.3-.28,3.51-2.14,4.98-4.1,7.15-9.57,14.39-18.97,18.03-29.97l2.55-4.92c1.68-.03,3.13-.42,4.52-1.09Z"/>
  <path class="cls-9" d="M259.94,292.14c-2.41,9.38-5.76,19.04-4.8,28.69l-6.87,1.09c-.44-3.11.73-6.52-.6-10-.53-1.38-2.48-3.05-1.08-5.01.95-1.34,1.91-2.76,1.72-4.26l-.15-1.24c4.37-.82,6.99-6.73,11.78-9.26Z"/>
  <path class="cls-12" d="M259.94,292.14c-4.79,2.53-7.42,8.44-11.78,9.26l-.11-2.16c-.04-.86.56-1.72,1-2.47,2.06-.57,3.62-2.3,5.29-4.14l9.5-10.45c3.79.83-2.59,4.89-3.9,9.96Z"/>
  <path class="cls-5" d="M294.12,387.49c.12.36.14,1.04-.1,1.44-.36.59-1.29.77-1.97.61l-1.8-1.09-.21-3.2,4.08,2.26Z"/>
  <path class="cls-10" d="M234.19,315.88c.02.12-.01.25-.14.36,4.5,10.39,15.51,14.66,8.93,19.99-2.23,1.81-3.24,3.86-6.7,5.38l-13.26-16.54c-.58-1.59-.24-3.2,1.4-4.36l7.16-5.05c.87-.61,2.11-.21,2.6.21Z"/>
  <path class="cls-8" d="M248.31,302.64c.19,1.5-.77,2.92-1.72,4.26-1.4,1.97.55,3.63,1.08,5.01,1.34,3.48.17,6.89.6,10,.34,2.39,1.28,4.62.99,7.51-5.98.9-7.33-9.85-15.21-13.19.13-.11.16-.24.14-.36-.28-1.85.88-2.76,2.43-4.02l11.7-9.22Z"/>
  <path class="cls-7" d="M282.83,246.33l-.53,1.17c-1.39.67-2.83,1.06-4.52,1.09,1.29-5.15,1.74-11.22-1.94-15.74-8.26-10.11-28.15-3.3-41.23,3.1-24.42,11.94-45.89,28.59-63.92,48.9-10.69,12.04-24.92,32.13-20.12,46.29,4.91,14.48,28.69,6.99,43.62.27,20.3-9.13,37.62-22.65,53.54-37.46.98,1,1.3,1.89,1.3,2.83-.43.75-1.04,1.61-1,2.47-16.17,14.27-33.67,27.06-53.65,36.34l-21.74,7.32c-4.78,1.61-10.35,1.5-15.36.64-8.41-1.44-12.92-9.47-11.57-17.69.7-4.27,1.34-8.88,3.13-12.74,5.79-12.53,13.76-22.94,23.04-32.99,15.9-17.21,33.45-31.75,54.23-42.7,15.79-8.32,43.42-21.87,54.73-8.63,4.31,5.04,4.43,12.16,1.99,17.53Z"/>
  <path class="cls-1" d="M378.7,351.6c-1.43-3.43-4.09-5.95-7.3-8.41-10.79-8.25-21.03-16.41-31.22-25.71-11.11,8.95-22.61,16.09-34.51,23.51-3.64,2.27-6.68,4.43-9.01,8.8-2.93-4.52-5.65-9.28-6.99-14.84-.98-4.1,2.04-7.44,5.29-9.67,9.99-6.85,19.88-12.84,29.5-21.33-7.03-9.39-17.73-16.91-29.72-12.45,2.42-5.91,5.83-10.77,10.65-14.83,5.88-4.95,15.02-5.22,20.83-.2l14.78,12.78,18.13-12.7c5.37-3.76,13.28-3.78,18.54.37,4.98,3.93,8.14,9.41,9.91,15.71-12.9-3.35-23.21,3.39-31.74,12.99,8.82,8.33,18.03,15.3,27.57,22.5,7.6,5.73,2.75,14.11-4.71,23.48Z"/>
  <path class="cls-6" d="M339.26,339.42l-22.76,18.33c-3.94,3.17-9.26,4.64-13.89,2.36-2.77-1.37-3.66-4.37-3.48-7.04s1.59-5.6,4.38-7.35c12.48-7.84,24.62-15.31,36.52-24.61,11.13,9.87,21.88,18.42,33.29,27.15,3.16,2.42,3.45,7.9,1.61,10.9-4.43,4.36-11.1,4.07-15.47-.17l-20.2-19.58Z"/>
  <path class="cls-6" d="M388.61,305.45l-15.66,11.09-13-11.02c8.44-9.06,22.45-15.58,28.68-7.99,1.53,1.86,2.67,6.01-.02,7.91Z"/>
  <path class="cls-6" d="M320.53,303.49l-14.27,10.78-11.45-8.45c-2.62-1.94-4.49-5.98-2.27-8.93,6.21-8.26,19.44-4.02,28,6.59Z"/>
  <path class="cls-2" d="M277.78,248.59l-2.55,4.92c-8.36,2.88-16.19,16.05-19.95,26l-3.05,8.07c-.85,2.25-2.74,4.74-4.49,6.36-15.92,14.82-33.24,28.33-53.54,37.46-14.93,6.71-38.72,14.21-43.62-.27-4.8-14.15,9.44-34.25,20.12-46.29,18.03-20.31,39.5-36.96,63.92-48.9,13.07-6.39,32.97-13.21,41.23-3.1,3.69,4.52,3.24,10.59,1.94,15.74ZM174.54,299.43c.7.14.67.83.75,1-1.07,1.09-2.81,4.47-1.43,5.26,4.14.26,11.53-2.69,14.22-5.93l1.47-.06-9.31,12.98c-.96,1.33-.17,3.65.82,4.38s3.7,1.52,5.01.96c.91-2.09,1.69-4.12,2.86-5.86l.41,1.59c-1.41.91-1.48,5.85.71,5.53,5.47-.8,9.49-5.42,12.41-9.5l14.23-19.89,22.15-7.76c5.92-2.08,14.9-9.56,12.04-12.61-.68-.72-2.41-1.22-3.59-.61l-.13-1.51c1.76.03,3.57.29,5.22-.36,1.39-2.38.82-7.39-2.18-7.23-4.66.25-8.86,2.76-12.68,4.22l-.74-1.8c3.75-2.85,7.26-8.15,8.84-12.68-1.05-1.97-4.56-.75-5.91.09-.27-.37.79-1.26.48-1.74-.57-.9-2.09-.88-3.08-.79-7.67.7-13.34,5.49-18.72,10.69l-12.01,16.01-17.35,6.45c-7.53,4.38-13.8,10.93-14.51,19.17Z"/>
  <path class="cls-1" d="M275.23,253.51c-3.64,11-10.88,20.41-18.03,29.97-1.47,1.97-2.68,3.83-4.98,4.1l3.05-8.07c3.76-9.95,11.59-23.12,19.95-26Z"/>
  <path class="cls-1" d="M239.72,249.64c-1.91,1.19-3.57,2.27-4.95,3.86-5.35,2.07-10.73,10.54-13.86,16.85l16.62-6.31c3.82-1.45,8.02-3.97,12.68-4.22,2.99-.16,3.57,4.85,2.18,7.23-1.65.66-3.46.4-5.22.36-3.21,2.89-7.49,3.76-11.6,5.46l-23.98,9.91-9.01,12.07c-4.58,6.14-9.6,11.35-13.65,17.32-1.18,1.73-1.95,3.77-2.86,5.86-1.3.57-4.02-.23-5.01-.96s-1.78-3.05-.82-4.38l9.31-12.98,7.92-10.79c-9.44.29-15.68,4.44-22.92,10.52.71-8.24,6.97-14.79,14.51-19.17l17.35-6.45,12.01-16.01c5.37-5.21,11.05-9.99,18.72-10.69.98-.09,2.51-.11,3.08.79.31.49-.75,1.37-.48,1.74Z"/>
  <path class="cls-6" d="M189.34,313.76c7.75-9.91,15.76-19.49,22.78-30.23,12.7-3.86,24.02-8.81,35.18-14.61,1.18-.61,2.91-.12,3.59.61,2.86,3.05-6.12,10.54-12.04,12.61l-22.15,7.76-14.23,19.89c-2.92,4.08-6.94,8.7-12.41,9.5-2.19.32-2.12-4.62-.71-5.53Z"/>
  <path class="cls-6" d="M236.79,262.23c-3.6,2.73-8.28,3.71-12.58,5.43,2.59-5.79,6.7-9.68,10.57-14.16,1.37-1.59,3.04-2.67,4.95-3.86,1.35-.84,4.85-2.06,5.91-.09-1.58,4.53-5.08,9.83-8.84,12.68Z"/>
  <path class="cls-6" d="M188.08,299.76c-2.68,3.24-10.07,6.19-14.22,5.93-1.38-.79.36-4.17,1.43-5.26,5.32-5.43,11.96-8.72,19.12-9.63-2.01,4.12-4.14,6.31-6.34,8.95Z"/>
  <path class="cls-5" d="M236.79,262.23l.74,1.8-16.62,6.31c3.13-6.31,8.52-14.78,13.86-16.85-3.86,4.48-7.97,8.37-10.57,14.16,4.31-1.72,8.99-2.7,12.58-5.43Z"/>
  <path class="cls-5" d="M247.3,268.92c-11.16,5.8-22.48,10.75-35.18,14.61-7.02,10.74-15.03,20.32-22.78,30.23l-.41-1.59c4.06-5.97,9.07-11.18,13.65-17.32l9.01-12.07,23.98-9.91c4.12-1.7,8.39-2.57,11.6-5.46l.13,1.51Z"/>
  <path class="cls-5" d="M189.55,299.7l-1.47.06c2.19-2.65,4.33-4.83,6.34-8.95-7.16.9-13.8,4.19-19.12,9.63-.08-.18-.05-.87-.75-1,7.24-6.07,13.48-10.23,22.92-10.52l-7.92,10.79Z"/>
</svg>