<?xml version="1.0" encoding="UTF-8"?>
<svg id="Layer_1" data-name="Layer 1" xmlns="http://www.w3.org/2000/svg" viewBox="0 0 599.36 567.44">
  <defs>
    <style>
      .cls-1 {
        fill: #ceabee;
      }

      .cls-2 {
        fill: #1f184e;
      }

      .cls-3 {
        fill: #733abb;
      }

      .cls-4 {
        fill: #271357;
      }

      .cls-5 {
        fill: #efe5fa;
      }

      .cls-6 {
        fill: #995cdc;
      }

      .cls-7 {
        fill: #a66ee2;
      }

      .cls-8 {
        fill: #8245cb;
      }

      .cls-9 {
        fill: #5e2aa2;
      }

      .cls-10 {
        fill: #874ad1;
      }

      .cls-11 {
        fill: #be98e9;
      }

      .cls-12 {
        fill: #af92d6;
      }

      .cls-13 {
        fill: #261254;
      }

      .cls-14 {
        fill: #7b41c4;
      }

      .cls-15 {
        fill: #8c4dd4;
      }
    </style>
  </defs>
  <path class="cls-13" d="M163.53,372.08c2.4,11.79,17.04,19.8,28.71,24.23.22,2.41,2.07,4.31,4.25,6.06,11.01,8.81,24.45,13.85,37.98,16.01l1.99.2c6,1.79,12.53,2.43,18.81,2.49l31.47.32,1.95-.16c6.24-.52,12.74-.26,18.64-2.47,5.79.34,11.36-1.76,16.87-3.05,15.77-3.7,37.32-13.26,44.2-27.26.65-1.32,1.82-2.37,1.88-4.14h9.82c12.71,8.31,25.86,15.56,41.23,18.86,13.2,2.84,26.83,2.58,39.02-3.45l11.3-8.58c1.44-1.09,2.4-2.21,2.59-3.76.21.24.54.23.75.15.51-.19.92-.57,1.19-1.03,3.22-2.15,7.16-4.19,9.68-7.22,3.17.93,1.1,3.9,1.41,5.25,1.73,7.77.62,14.39-5.09,20.34-15.51,16.17-49.82,26.57-73.22,31.54-62.57,13.28-132.3,13.54-195.6,4.01-21.91-3.3-42.55-8.2-63.09-15.79-21.04-7.78-50.83-24.85-35.91-45.22,4.75-6.49,11.28-11.31,18.41-15.34,1.93-1.1,3.86-1.87,4.72-3.83,4.66,5.85,17.63,10.16,26.04,11.85Z"/>
  <path class="cls-15" d="M212.37,231.55l4.23,4.56,13.67,8.4-.17,20.92c9.66,4.97,19.78,9.43,30.12,8.88-2.91-.98-5.22-2.04-7.79-2.7l-9.98-2.56-1.01-10.52c-.34-3.53.89-6.15,3.02-8.75,12.66,3.07,25.49,4.75,38.39,6.35l-.51,21.15c-.02.96.47,1.32,1.71,1.31l12.29,1.36c-2.72-.73-2.66,2.9.3,1.62,1.49,5.38.81,11.44-.4,16.81-1.38-.04-2.88-.78-4.32-.18-1.68.69-2.35,2.88-2.59,4.65-2.02-.9-4.13-.95-6.09-.29l-.09-1.06c-.06-.79.59-2.74-.18-3.84-11.91-.97-23.49-3.09-34.6-6.19l-8.35-2.33c.1-4.18-7.96-.16-15.87-9.6-1.18-1.41-3.63-1.72-4.98-2.2-1.71-.6-2.84-1.79-4.13-2.83.37.05,1.16-.25,1.19-1.07l.56-15.63c-.61-1.59-3.67-2.72-3.48-5.77,1.13.27,3.01.22,3.46-.5s.84-2.8.3-4.17c-.95-2.44-5.17-3.39-7.3-1.85l-.35-13.9c.85.38,2.26.83,2.94-.06Z"/>
  <path class="cls-11" d="M394.09,235.06c51.2-1.56,105.64,57.44,104.12,111.56-.35,12.4-4.8,23.6-12.36,32.67-2.52,3.03-6.45,5.06-9.68,7.22-.46.31-.86.62-1.19,1.03-.21.08-.54.09-.75-.15-5.16,1.95-10.29,3.21-15.65,3.75.32-.37.4-.78.23-1.06.14.21-11.66.09-19.92-3.37,13.54-.12,26.96-.27,37.94-8.64,13.23-10.1,18.96-27.94,16.36-44.63-5.13-33-24.64-60.92-52.55-78.41-5.45-3.41-10.03-6.27-16.36-7.75l-1.72-.8c-.47-.22-1.46.08-.88.94l-12.61-3.04c.2-.85-.33-1.85-1.74-2.16-21.1-4.49-41.77,3.29-54.02,20.57-1.24-1.16-1.36-2.78-.11-4.17,2.34-2.61,3.3-5.81,5.32-7.98l4.73-5.1-.4-1.77,11.75-5.47,2.63-.64,16.86-2.6Z"/>
  <path class="cls-15" d="M143.4,334.22l8.9,2.6-.15,23.05-16.81-5.19-13.05-7.24c-7.02-3.9-13.54-10.26-15.45-18.29l-.63-18.74c.99.05,1.85.51,2.53,1.59,7.68,12.16,21.54,18.37,34.66,22.21Z"/>
  <path class="cls-11" d="M198.16,259.37l5.93.07c.34,0,1.05-.19,1.4-.07-.2.9-.39,1.82.24,2.99,1.97-1.29,3.74-1.41,5.06.39-2.09,1.13-3.83.97-5.45.81,0-.73-.18-2.24-.76-2.14l-4,.68c-22.29.86-44.16,4.68-64.25,14.35-7.34,3.53-13.61,7.26-18.7,13.45s-7.1,14.79-2.67,21.97c5.82,9.43,15.1,15.55,25.32,19.56,1.72.68,2.95,1.45,3.12,2.79-13.12-3.84-26.98-10.05-34.66-22.21-.68-1.08-1.54-1.54-2.53-1.59-1.45-10.36.97-19.59,9.62-26.44,20.83-16.49,57.01-24.9,82.33-24.61Z"/>
  <path class="cls-12" d="M394.03,227.52c-2.04,1.15-3.33,2.92-5.32,4.93-.73-1.37-2.22-2.68-3.44-2.11,1.93-3.56,3.58-8.38,1.49-12.66-6.65-13.6-23.29-17.94-37.58-21.35-7.96-3.1-16.76-3.48-25.57-4.33l-10.93-1.05c-5.32-.51-11.04-.8-16.5-.22s-10.2.08-14.93.98l-.26-2.07c27.51-2.5,55.68-.63,82.57,7.4,16.17,4.83,34.24,14.52,30.48,30.47Z"/>
  <path class="cls-11" d="M265.17,192l.04,2.51c-5.11.2-10.06,2.11-15.46,3.54-10.23,2.7-19.97,7.09-27.78,14-7.63,6.75-7.35,17.2-.04,23.76,6.53,5.87,13.14,6.97,14.39,10.79l-6.04-2.08-13.67-8.4-4.23-4.56-2.16-2.15c-.66-3.87-1.51-8.37.67-12.35,8.25-15.06,36.89-22.12,54.29-25.05Z"/>
  <path class="cls-3" d="M152.16,359.87c11.28,3.48,20.3,3.16,25.62,5.85.51.26.99.62,1.44,1.05.25.5.04,1.57-1,1.73l-10.45,1.55c-1.74.26-3.24,1.18-4.22,2.03-8.41-1.69-21.39-6-26.04-11.85-1.09-1.37-1.81-3.42-2.14-5.54l16.81,5.19Z"/>
  <path class="cls-3" d="M394.09,235.06l-16.86,2.6.85-2.1c-1.83.6-2.84,1.5-3.48,2.74l-11.75,5.47-13.45,4.78-1.2.21.08-3.57,2.91-1.4c5.78-2.78,17.35-4.48,23.83-13.26.33.02.89.1,1.22-.01,2.14-.71,4.42-.03,5.95,2,.52-.03.92-.79.81-1.09l2.28-1.08c1.22-.58,2.71.74,3.44,2.11,1.99-2.01,3.27-3.78,5.32-4.93.06,1.95,1.38,5.29.06,7.54ZM379.61,233.5l-.5.5.5.5.5-.5-.5-.5Z"/>
  <path class="cls-14" d="M215.05,274.48c-5.84-4.71-2.71-6.88-7.9-7.78l-1.81-.32v-2.82c1.62.16,3.36.32,5.46-.81-1.33-1.8-3.1-1.69-5.06-.39-.63-1.17-.44-2.09-.24-2.99.59.2,1.69,1.02,2.26.78s1.59-1.93,1.62-2.78l.41-11.85c2.13-1.54,6.35-.6,7.3,1.85.53,1.37.17,3.42-.3,4.17s-2.34.76-3.46.5c-.19,3.04,2.86,4.18,3.48,5.77l-.56,15.63c-.03.82-.82,1.12-1.19,1.07ZM211.71,249.5l-.5.5.5.5.5-.5-.5-.5Z"/>
  <path class="cls-12" d="M277.9,190.22c-.68.49-.89,1.45-1.03,2.34-3.08.59-6.77.59-9.71,1.84-.6.25-1.34.09-1.95.11l-.04-2.51c4.12-.69,8.55-1.01,12.73-1.78Z"/>
  <path class="cls-11" d="M280.98,189.65l.26,2.07-4.37.84c.15-.89.35-1.85,1.03-2.34l3.08-.57Z"/>
  <path class="cls-14" d="M204.1,259.43l-5.93-.07c1.52-1.38,4.45-1.41,5.93.07Z"/>
  <path class="cls-14" d="M212.37,231.55c-.68.89-2.08.44-2.94.06-.02-.78.24-1.55.78-2.21l2.16,2.15Z"/>
  <path class="cls-14" d="M354.49,321.01c5.27,9.94,11.31,19.14,17.85,28.29-3.63,1.31-5.98,4.02-9.07,6.35l-6.94,5.24-4.63-4.14c-1.21-1.08-4.09,2.18-3.14,3.19,5.66,5.97-1.83,11.56,4.34,12.45-.18-1.83-.96-3.08-.48-5.17,2.47,1.28,2.82,4.03,2.69,6.28-.86,2.96-3.22,5.17-5.97,7.03l-9.86,7.21c-4.04.92-7,4.54-11.26,5.68l-4.77,1.27.95,21.02c-5.51,1.29-11.08,3.39-16.87,3.05.58-3.89.33-7.53,0-11.27h1.62s.23,7.92.23,7.92c3.65-.28,7.42-.69,10.66-2.35l.23-16.64c-2.72-1.11-6.49-.82-8.79.65l.39-16.19c.08-2.05,2.46-3.85,2.16-5.9,10.25-2.46,19.99-6.91,29.52-12.21,2.11-1.17,3.11-2.53,2.79-4.49-.37-2.23-1.42-3.23-3.19-3.97-.83-.67-1.25-2.75-3.12-3.12.67-.71.54-2.44.62-3.43,5.19-3.84-1.46-8.63-3.28-16.3,5.18.58,6.96-7.76,17.32-10.45Z"/>
  <path class="cls-3" d="M458.59,391.14c5.36-.54,10.49-1.81,15.65-3.75-.18,1.55-1.15,2.66-2.59,3.76l-11.3,8.58c-12.19,6.03-25.82,6.29-39.02,3.45-15.37-3.31-28.52-10.55-41.23-18.87l-3.28-3.49c.21-1.03.62-2.2,1.65-2.96l8.07-5.96c2.17-.93,2.95-2.91,3.14-5.08,20.15,15.74,42.99,26.93,68.91,24.32Z"/>
  <path class="cls-10" d="M199.46,375.09l.92,21.56c.16,3.29,9.98,4.67,10.11,1.78l.82-20.53,24.03,3.82c-.27,2.59-1.59,5.14-1.09,7.79.4,2.16,4.24,1.83,5.66,2.5,1.67,3.4.97,8.44,1.05,12.99,5.79-.81,10.13,1.51,15.73-.63l-.1,1.34c-.93.33-1.64,1.19-1.6,2.66l.28,12.71c-6.28-.06-12.81-.7-18.81-2.49l.8-12.1c.09-1.47-.56-2-1.41-1.98-.43.01-1.31.43-1.32,1.31l-.06,12.57c-13.52-2.17-26.97-7.2-37.98-16.01-2.18-1.75-4.03-3.65-4.25-6.06,1.18.18,2.28.42,4.14.1l-.94-22.34,4.02,1.02ZM227.61,401.18c1.54-6.26,2.57-12.29-.31-18.42-2.29,5.68-3.48,15.27.31,18.42Z"/>
  <path class="cls-10" d="M368.4,388.45c-6.88,14-28.43,23.56-44.2,27.26l-.95-21.02,4.77-1.27c4.26-1.14,7.22-4.76,11.26-5.68,7.34-1.67,13.21-7.47,19.7-11.15,2.9,1.1,3.35,3.83,4.8,6.38,1.11,1.95,3.94,3.12,4.62,5.48Z"/>
  <path class="cls-14" d="M303.5,377.46c-.46,3.47-.85,7.01-.27,10.77l3.62,2.54c1.42,2.99.44,6.01.16,8.76-.91-.01-1.74,1.77-2.27,2.36s-2.54-.7-3.59-.51l-11.72,2.07-.75,17.78-1.95.16-.46-17.03-6.71-4.3c-.9-.58-2.24-.7-2.79-.38-2.26,1.3.57,6.71-4.07,4.74l-.48-15.78c-.05-1.54-1.64-2.4-2.56-2.37-3.57.13-1.75,5.76-3.13,6.51-2.2,1.2-4.58,1.29-6.74,1.7l-.52-12.07,19.84-1.22c-.17,1.45.44,2.86,1.64,3.23,1.08.33,2.65.15,3.15-.67.55-.9.31-2.36.17-3.23l19.41-3.05Z"/>
  <path class="cls-8" d="M286.74,421.4l-31.47-.32-.28-12.71c-.03-1.46.68-2.32,1.6-2.66,1,0,2.02.05,3.41-.38l-.2-10.84c2.16-.42,4.54-.51,6.74-1.7,1.38-.75-.44-6.39,3.13-6.51.91-.03,2.51.83,2.56,2.37l.48,15.78c4.64,1.97,1.81-3.44,4.07-4.74.55-.32,1.89-.2,2.79.38l6.71,4.3.46,17.03Z"/>
  <path class="cls-15" d="M195.44,374.08l.94,22.34c-1.86.31-2.96.08-4.14-.1-11.66-4.43-26.3-12.44-28.71-24.23.99-.85,2.48-1.77,4.22-2.03l10.45-1.55c1.04-.16,1.26-1.22,1-1.73,2.68-.7,4.24,2.17,6.43,3.09,3.45,1.44,7.72,1.45,9.79,4.22Z"/>
  <path class="cls-8" d="M307.33,418.77c-5.9,2.21-12.41,1.95-18.64,2.47l.75-17.78,11.72-2.07c1.05-.19,3.04,1.12,3.59.51s1.36-2.38,2.27-2.36c2.26.03,3.08-1.7,4.27-2.45,2.3-1.47,6.07-1.75,8.79-.65l-.23,16.64c-3.24,1.66-7.01,2.07-10.66,2.35l-.23-7.91h-1.62c.33,3.72.58,7.37,0,11.25Z"/>
  <path class="cls-9" d="M372.06,377.44c-.47-.06-1.14-.16-1.56.07l-.22,6.81c-.06,1.77-1.23,2.82-1.88,4.14-.69-2.35-3.51-3.53-4.62-5.48-1.45-2.55-1.89-5.28-4.8-6.38-.09-.67-.06-1.6.18-2.1,2.33-.22,3.44-2.65,5.2-4.09l7.71,7.03Z"/>
  <path class="cls-4" d="M372.06,377.44l4.76,3.38,3.28,3.49h-9.82s.22-6.8.22-6.8c.42-.23,1.09-.13,1.56-.07Z"/>
  <path class="cls-8" d="M236.45,418.58l-1.99-.2.06-12.57c0-.88.89-1.3,1.32-1.31.85-.02,1.49.51,1.41,1.98l-.8,12.1Z"/>
  <path class="cls-2" d="M205.34,266.38l1.81.32c-.05,1.17.14,2.59,1.09,3.67l9.47,10.87c-5.61,1.66-10.32,5.01-15.55,5.01-7.03,0-23.34-15.82-41.21,1.13l.44,1.35c-1.34.19-5.17,2.06-4.07,3.64,2.46,2.71,7.23,4.08,10.88,4.8l-.02,2.39c-3.81.82-8.38,1.61-12.11,3.91-3.39,2.09,2.04,9.66,2.69,9.69.74.03,1.89-1.09,2.44-1.58.58-.27,1.14.43.93.91-.35.8-.79,1.76-.7,2.55.46,4.08,11.67,4,20.14.69l19.88-7.78,16.34,7c7.99,3.42,19.92,5.14,22.06,1.59.82-1.37.62-2.83.22-4.08,2.1.59,3.84.16,5.26-1.34.98-1.04,3.45-3.65,1.84-5.43-2.96-3.28-8.07-4.28-12.19-5.87l-2.52.34c-.5.07-.17-1.9.19-2.3,2.61-.04,4.68-1.11,6.83-2.2,1.56-.79,4.87-1.07,6.51-.52,11.85,3.94,24.72,5.36,37.2,6.36l.09,1.06c-4.37,28.56-95.55,46.16-147.02,19.14-7.08-3.72-13.41-9.23-15.01-17.25-1.35-6.75,2.82-13.01,7.76-17.27,7.93-6.84,17.31-10.48,27.39-13.75,16.02-5.19,32.6-6.58,48.98-7.04Z"/>
  <path class="cls-1" d="M215.05,274.48c1.3,1.04,2.43,2.23,4.13,2.83.68.92,1.5,1.47,3.24,2.74l-4.05,1.5c2.34,4.56,8.15,3.38,7.72,7.23l-9.16,4.5,12.44,5.1c.91.37,1.89-.22,1.88-.84.38.15.97.29,1.36.28-.35.41-.69,2.37-.19,2.3l2.52-.34c4.13,1.58,9.23,2.59,12.19,5.87,1.6,1.77-.87,4.39-1.84,5.43-1.41,1.5-3.16,1.94-5.26,1.34l-1.31-.37c.35-.16.66-1.89.19-2.23l-36.13-12.06-15.02,5.06-15.77,4.39c-3.94,1.1-7.88,1.65-10.82,4.32-.55.5-1.7,1.62-2.44,1.58-.65-.03-6.08-7.59-2.69-9.69,3.73-2.3,8.3-3.09,12.11-3.91l4.95-1.07,13.41-5.34-11.7-5.19-13.89-.57c17.87-16.95,34.18-1.13,41.21-1.13,5.23,0,9.94-3.35,15.55-5.01l-9.47-10.87c-.94-1.08-1.14-2.5-1.09-3.67,5.18.91,2.05,3.08,7.9,7.78Z"/>
  <path class="cls-7" d="M205.35,263.56v2.82c-16.39.46-32.97,1.84-48.99,7.04-10.08,3.27-19.46,6.9-27.39,13.75-4.94,4.26-9.11,10.52-7.76,17.27,1.61,8.01,7.93,13.53,15.01,17.25,51.47,27.02,142.65,9.42,147.02-19.14,1.96-.66,4.07-.6,6.09.29-.91,6.49-5.67,11.43-11.37,15.66-30.82,22.87-82.04,25.37-119.4,16.98-2.55-.57-3.3-2.32-4.92-2.89l-10.67-3.73c-8.41-2.94-16.27-7.15-22.4-13.61-6.99-7.37-6.66-17.85.14-25.46,13.91-15.58,46.68-23.55,68.49-25.41,5.75-.49,10.84-1.34,16.14-.81Z"/>
  <path class="cls-5" d="M205.35,263.56c-5.29-.53-10.39.32-16.14.81-21.81,1.86-54.58,9.83-68.49,25.41-6.8,7.62-7.14,18.1-.14,25.46,6.13,6.46,13.99,10.66,22.4,13.61l10.67,3.73c1.62.57,2.37,2.31,4.92,2.89,37.36,8.39,88.57,5.89,119.4-16.98,5.69-4.22,10.45-9.17,11.37-15.66.25-1.77.92-3.96,2.59-4.65l.34,4.58c.52,6.92-9.29,16.4-17.38,21.4-1.58.98-2.82,1.63-2.77,3.68-8.6,4.03-17.66,6.85-26.95,9.07-13.97,3.33-28.27,5.16-42.64,5.37-16.94.24-33.92-.71-50.23-5.48l-8.9-2.6c-.18-1.35-1.4-2.12-3.12-2.79-10.22-4.01-19.5-10.12-25.32-19.56-4.43-7.18-2.43-15.75,2.67-21.97s11.36-9.92,18.7-13.45c20.09-9.67,41.97-13.49,64.25-14.35l4-.68c.58-.1.76,1.41.76,2.14Z"/>
  <path class="cls-8" d="M333.23,274.05l-.05,1.59c-16.79,2.42-33.84,3.01-50.82,1.63l.51-21.15,1.6.2.67,11.36c.4,6.33,8.8,11.44,13.08,8.09l-.05-19.28,4-.02c-.26,1.51-.57,3.6.18,5.23.63,1.37,6.68,1.52,6.8,5.32.15,4.67-9.63,1.45-7.01,9.6l12.05-.19c.27-3.92,1.53-8.92-.56-12.36-1.4-2.29-5.29-4.08-3.89-7.37l23.73-2.23-.24,19.57Z"/>
  <path class="cls-14" d="M321.2,279.35l1.73,4.26.2,13.93c-.56-.23-1.44.1-1.97.1.04-1.02-.56-1.26-1.51-1.25-.85,0-1.54.14-1.43,1.26l-6.88.81c-1.84.22-3.35.26-5.22.21l-9.86-.31c1.21-5.36,1.89-11.43.4-16.81-2.96,1.28-3.03-2.35-.3-1.62l24.85-.59Z"/>
  <path class="cls-5" d="M265.21,194.51c.62-.02,1.36.14,1.95-.11l.03,1.08-20.82,5.26c-14.49,3.66-33.88,16.34-26.21,28.79,4.13,6.7,11.15,10.79,18.4,13.5l16.78,6.27c21.86,8.17,68.31,6.31,92.87-.54l1.2-.21.13,1.85c-5.17,2.02-10.51,3.56-16.07,4.08l-23.73,2.23-7.57-.24-4,.02-13.71-.17-1.6-.2c-12.9-1.59-25.74-3.28-38.39-6.35l-8.15-3.19c-1.25-3.81-7.86-4.92-14.39-10.79-7.31-6.56-7.59-17.01.04-23.76,7.81-6.9,17.55-11.3,27.78-14,5.4-1.42,10.34-3.33,15.46-3.54Z"/>
  <path class="cls-6" d="M236.31,246.59l8.15,3.19c-2.14,2.6-3.37,5.21-3.02,8.75l1.01,10.52,9.98,2.56c2.57.66,4.88,1.73,7.79,2.7-10.34.55-20.46-3.91-30.12-8.88l.17-20.92,6.04,2.08Z"/>
  <path class="cls-7" d="M296.25,298.37l9.86.31c-.25,1.83,1.01,2.42,2.83,3.06,7.08,2.49,13.76,3.99,20.8,4.96l.24,4.02c-1.57.1-3.36-.08-5.3-.54l-21.94-5.18c-.67-.16-1.63-1.41-2.09-1.26-.62.21-.71,2.2-.67,2.68l-1.59-.89c.23-1.55-.69-2.93-1.9-2.9l-4.22.15-.34-4.58c1.44-.59,2.94.14,4.32.18Z"/>
  <path class="cls-11" d="M283.16,301.48c-12.48-1-25.35-2.42-37.2-6.36l2.42-3.68c11.11,3.1,22.69,5.23,34.6,6.19.77,1.1.11,3.06.18,3.84Z"/>
  <path class="cls-1" d="M333.17,275.64l-.81,3.58-11.16.13-24.85.59-12.29-1.36c-1.24,0-1.73-.35-1.71-1.31,16.98,1.37,34.04.79,50.82-1.63Z"/>
  <path class="cls-14" d="M240.03,289.11c-.99-.28-2.8.13-3.63-.63-1.92-1.75-4.26-1.13-6.4.03-1,.54-2.85.15-3.9.28.42-3.85-5.39-2.67-7.72-7.23l4.05-1.5c-1.74-1.27-2.56-1.82-3.24-2.74,1.35.48,3.8.79,4.98,2.2,7.91,9.44,15.97,5.42,15.87,9.6Z"/>
  <path class="cls-3" d="M236.4,288.48c.83.76,2.64.36,3.63.63l8.35,2.33-2.42,3.68c-1.64-.54-4.94-.27-6.51.52-.33-3.26-5.02-3.19-8.19-6.06l5.14-1.1Z"/>
  <path class="cls-7" d="M409.08,244.38l12.61,3.04c35.01,12.87,65.75,50.58,69.47,88.88,1.96,20.21-8.88,38.91-27.4,45.76-13.09,4.84-34.69,2.57-47.96-3.29-30.42-13.44-58.3-46.22-64.18-78.86-2.86-15.86.79-32.93,12.42-44.47s29.53-14.43,45.05-11.06ZM454.47,378.45c15.9-2.52,26.97-14.22,30.16-29.61,2.57-12.41.74-24.98-3.79-37.12-11.13-29.79-36.96-55.23-68.49-62.54-18.18-4.21-39.62.95-48.24,17.28-13.88,26.29-1.22,58.43,18.19,79.84,17.69,19.51,44.98,36.46,72.18,32.14Z"/>
  <path class="cls-5" d="M409.08,244.38c-15.52-3.36-33.07-.83-45.05,11.06s-15.27,28.61-12.42,44.47c5.88,32.64,33.76,65.42,64.18,78.86,13.27,5.86,34.87,8.13,47.96,3.29,18.52-6.85,29.36-25.55,27.4-45.76-3.71-38.3-34.46-76.01-69.47-88.88-.59-.85.4-1.16.88-.94l1.72.8c6.32,1.48,10.91,4.34,16.36,7.75,27.91,17.49,47.42,45.41,52.55,78.41,2.6,16.69-3.13,34.53-16.36,44.63-10.97,8.37-24.4,8.52-37.94,8.64,8.25,3.46,20.05,3.58,19.92,3.37.18.28.09.69-.23,1.06-25.92,2.61-48.76-8.58-68.91-24.32l-15.27-14.63-2.06-2.88c-6.55-9.16-12.58-18.36-17.85-28.29l-.97-2.56-.2-1.04c-.07-.35-.53-.75-.74-.98l-4.55-13.33.33-.69-1.01-9.13c-1.17-10.52.73-21.47,5.98-30.49,12.24-17.28,32.92-25.06,54.02-20.57,1.42.3,1.94,1.31,1.74,2.16ZM437.05,385.45c-1.87-.84-2.46,1.56-.21,1.2,1.09.27,1.46-1.07.21-1.2Z"/>
  <path class="cls-15" d="M358.53,250.64c-2.01,2.17-2.98,5.37-5.32,7.98-1.25,1.4-1.13,3.02.11,4.17-5.25,9.03-7.15,19.98-5.98,30.49-.95.57-1.2,2.57-1.74,3.63-7.31,2.55-8.96,13.37-14.58,13.73l-1.05.07-.24-4.02-.15-5.76-.19-3.25,2.96-18.46.81-3.58.05-1.59c2.38.74,2.04-2.07,3.02-3.31l10.65-13.48,9-6.71,2.63.09Z"/>
  <path class="cls-7" d="M362.86,243.77l.4,1.77c-1.88-.1-3.54.9-4.99,2.02l-1.19.91c-.3.23-.77.67-1.16.74l-6.39,1.19-.13-1.85,13.45-4.78Z"/>
  <path class="cls-3" d="M363.26,245.54l-4.73,5.1-2.63-.09.02-1.34c.39-.07.85-.51,1.16-.74l1.19-.91c1.45-1.12,3.11-2.12,4.99-2.02Z"/>
  <path class="cls-7" d="M377.23,237.66l-2.63.64c.64-1.24,1.65-2.13,3.48-2.74l-.85,2.1Z"/>
  <path class="cls-10" d="M202.53,342.3l-.58,1.58c-.56-.58-2.49-.54-2.52.64l-.57,19.86c-.05,1.73-4.99,1.21-6.73.92.94,1.5,2.02,2.03,2.1,3.49l-6.74-2.5c-3.37-1.25-6.67-1.59-9.72-.56-5.32-2.69-14.34-2.37-25.62-5.85l.15-23.05c16.3,4.77,33.29,5.72,50.23,5.48Z"/>
  <path class="cls-1" d="M349.18,196.34l-1.03.89-32.95-4.59-12.86-.7-12.23.7-22.93,2.83-.03-1.08c2.93-1.25,6.63-1.25,9.71-1.84l4.37-.84c4.73-.91,9.62-.42,14.93-.98s11.18-.29,16.5.22l10.93,1.05c8.81.85,17.61,1.23,25.57,4.33Z"/>
  <path class="cls-5" d="M385.28,230.35l-2.28,1.08c1.54-7.77,4.39-12.73-3.11-19.73-6.79-6.34-15.32-9.22-24.03-12.05-2.92-.95-4.93-2.02-7.7-2.41l1.03-.89c14.29,3.41,30.93,7.75,37.58,21.35,2.09,4.27.44,9.09-1.49,12.66Z"/>
  <path class="cls-5" d="M313.82,374.98l-10.32,2.48-19.41,3.05-4.96.68-19.84,1.22-2.07.12-21.87-.82-24.03-3.82-11.85-2.81-4.02-1.02c-2.07-2.76-6.34-2.78-9.79-4.22-2.2-.92-3.75-3.79-6.43-3.09-.44-.42-.92-.79-1.44-1.05,3.05-1.03,6.35-.69,9.72.56l6.74,2.5,2.98.96c9.6,4.46,19.86,6.47,31.03,8.03,30.59,4.26,61.85,2.36,90.78-8.17,9.42-3.43,17.51-8.33,23.92-15.28,1.77.74,2.83,1.73,3.19,3.97.32,1.96-.68,3.32-2.79,4.49-9.54,5.31-19.28,9.75-29.52,12.21Z"/>
  <path class="cls-2" d="M376.24,230.52c-.33.11-.89.03-1.22.01-5.03-.35-9.37,2.29-13.95,4.92-3.88,2.23-8.37,4.21-9.88,8.34l-2.91,1.4c-29.05,7.18-59.53,8.2-89.24,1.6-14.46-3.21-36-11.53-35.12-24.68.72-10.85,18.34-18.17,30.69-21.51,30.41-8.21,62.27-8.24,92.91-.84,9.55,2.31,18.1,5.85,25.56,11.72,3.6,2.83,7.55,7.65,5.95,11.81l-2.79,7.24ZM262.25,210.51c-.68.54-1.19,1.07-.81,2.09-1.5.13-4.28,1.1-4.15,3.07,3.25,2.04,8.23,4.49,11.84,4.31l.04,1.8c-4.03.65-8.82,1.7-12.81,4.29-1.98,1.28,1.77,7.02,3.64,6.24,2.85-1.19,5.29-2.54,8.08-3.22l.05,1.36c-1.78.47-5.12.6-5.93,3.18-.71,2.26,2.14,3.48,3.94,3.7,13.39,1.66,27.19-8.21,34.9-7.61s19.31,10.34,33.22,8.03c2.46-.41,3.56-2.27,3.1-4.49l1.77.28c2.1.34,6.16-3.32,5.61-5.7-2.75-3.88-8.53-4.35-12.52-5.3l-.16-2.27,11.95-2.89c.97-.23,1.7-.83,2.05-1.44s-.12-1.61-.91-1.85c-.5-.15-1.15-.36-1.98-.28.63-2.56-.86-3.97-3.13-5.31-15.46-9.16-31.06,1.98-39.73,1.7l-16.09-4.86c-8.28-1.23-15.76.24-21.96,5.16Z"/>
  <path class="cls-7" d="M348.15,197.23c2.76.38,4.78,1.46,7.7,2.41,8.71,2.83,17.24,5.72,24.03,12.05,7.5,7,4.65,11.96,3.11,19.73.11.3-.3,1.06-.81,1.09-1.52-2.03-3.8-2.71-5.95-2l2.79-7.24c1.6-4.16-2.34-8.98-5.95-11.81-7.47-5.87-16.01-9.41-25.56-11.72-30.64-7.39-62.5-7.37-92.91.84-12.36,3.34-29.97,10.66-30.69,21.51-.87,13.15,20.66,21.47,35.12,24.68,29.71,6.6,60.2,5.58,89.24-1.6l-.08,3.57c-24.56,6.86-71.01,8.71-92.87.54l-16.78-6.27c-7.25-2.71-14.27-6.8-18.4-13.5-7.67-12.45,11.72-25.13,26.21-28.79l20.82-5.26,22.93-2.83,12.23-.7,12.86.7,32.95,4.59Z"/>
  <path class="cls-1" d="M375.02,230.53c-6.48,8.77-18.04,10.47-23.83,13.26,1.51-4.13,6-6.11,9.88-8.34,4.58-2.63,8.91-5.26,13.95-4.92Z"/>
  <rect class="cls-7" x="379.26" y="233.65" width=".71" height=".71" transform="translate(-54.31 336.84) rotate(-44.98)"/>
  <rect class="cls-15" x="211.36" y="249.65" width=".71" height=".71" transform="translate(-114.76 222.83) rotate(-44.98)"/>
  <path class="cls-2" d="M309.15,333.45l24.48,1.28c1.91,5.1,3.45,9.72,6.82,13.03-.08.99.05,2.72-.62,3.43-5.79,6.1-12.7,10.74-21.21,13.94-31.47,11.82-75.7,13.64-107.42,4.45,0-.56.29-.86,1.1-.89,20.85-.68,41.2-4.41,60.21-12.79,1.31-.58,1.8-1.25,1.83-2.23,1.55.19,3.39.23,4.8,1.01,8.45,4.68,20.08,4.12,20.76.35.23-1.26-.56-2.59-1.9-3.3l-3.4-1.88c2.95-.56,4.57.66,7.05,3.65,1.85-.62,6.46-4.39,5.48-6.92-2.3-4.87-9.36-5.51-13.75-6.36.12-.16.25-.53.22-.72l-.37-1.05c4.78-1.04,9.71-2.41,14.03-4.66.47-.25,1.29-.37,1.87-.34Z"/>
  <path class="cls-7" d="M339.83,351.19c1.87.38,2.29,2.45,3.12,3.12-6.4,6.95-14.49,11.85-23.92,15.28-28.93,10.54-60.19,12.43-90.78,8.17-11.17-1.56-21.43-3.57-31.03-8.03,4.11-1.23,8.06,1.36,11.92-.08.59-.22,1.44-.26,2.07-.08,31.72,9.19,75.94,7.37,107.42-4.45,8.51-3.2,15.42-7.84,21.21-13.94Z"/>
  <path class="cls-3" d="M374.4,352.19c-6.57,2.52-15.55,9.48-14.06,14.42l-3.61,6.75c-.44-.21-1.16-.01-1.62.13.12-2.25-.23-5.01-2.69-6.28-.47,2.09.3,3.34.48,5.17-6.17-.89,1.32-6.47-4.34-12.45-.95-1,1.94-4.26,3.14-3.19l4.63,4.14,6.94-5.24c3.09-2.33,5.44-5.04,9.07-6.35l2.06,2.88Z"/>
  <path class="cls-1" d="M334.12,330.49l2.44-.11c.34.03.54.75.61,1.08,1.82,7.67,8.47,12.46,3.28,16.3-3.37-3.31-4.92-7.93-6.82-13.03l-24.48-1.28-.22-2.8,25.19-.16Z"/>
  <path class="cls-3" d="M313.82,374.98c.3,2.05-2.08,3.86-2.16,5.9l-.39,16.19c-1.19.76-2.01,2.49-4.27,2.45.28-2.75,1.26-5.77-.16-8.76l-3.62-2.54c-.58-3.76-.19-7.3.27-10.77l10.32-2.48Z"/>
  <path class="cls-15" d="M352.57,316.43c.21.23.67.63.74.98-1.67-.04-1.03,1.65.2,1.04l.97,2.56c-10.36,2.68-12.13,11.03-17.32,10.45-.08-.33-.27-1.05-.61-1.08-1.28-2.38-.03-4.54,2.03-6.43l10.56-9.68c1.25-.04,2.82,1.49,3.42,2.16Z"/>
  <path class="cls-5" d="M356.73,373.37l2.43,1.13c-.24.51-.26,1.43-.18,2.1-6.49,3.67-12.35,9.47-19.7,11.15l9.86-7.21c2.75-1.87,5.11-4.08,5.97-7.03.46-.14,1.18-.34,1.62-.13Z"/>
  <path class="cls-14" d="M374.4,352.19l15.27,14.63c-.19,2.17-.97,4.15-3.14,5.08l-8.07,5.96c-1.03.76-1.43,1.93-1.65,2.96l-4.76-3.38-7.71-7.03c-1.3-1.19-1.91-3.24-4.01-3.79-1.49-4.94,7.49-11.9,14.06-14.42Z"/>
  <path class="cls-8" d="M257.21,382.53l-.53,21.83c-5.59,2.14-9.93-.18-15.73.63-.09-4.55.61-9.59-1.05-12.99-1.42-.67-5.26-.34-5.66-2.5-.49-2.66.83-5.2,1.09-7.79l21.87.82Z"/>
  <path class="cls-15" d="M211.31,377.9l-.82,20.53c-.13,2.89-9.95,1.51-10.11-1.78l-.92-21.56,11.85,2.81Z"/>
  <path class="cls-3" d="M259.29,382.42l.52,12.07.2,10.84c-1.39.43-2.41.38-3.41.38l.1-1.34.53-21.83,2.07-.12Z"/>
  <path class="cls-8" d="M227.61,401.18c-3.8-3.15-2.6-12.74-.31-18.42,2.88,6.14,1.86,12.17.31,18.42Z"/>
  <path class="cls-15" d="M284.09,380.52c.14.87.38,2.33-.17,3.23-.5.82-2.07,1.01-3.15.67-1.2-.37-1.81-1.78-1.64-3.23l4.96-.68Z"/>
  <path class="cls-7" d="M364.36,370.41c-1.76,1.44-2.87,3.87-5.2,4.09l-2.43-1.13,3.61-6.75c2.1.54,2.71,2.6,4.01,3.79Z"/>
  <path class="cls-6" d="M238.75,312.07l1.31.37c.4,1.25.6,2.71-.22,4.08-2.13,3.55-14.07,1.83-22.06-1.59l-16.34-7-19.88,7.78c-8.47,3.31-19.68,3.39-20.14-.69-.09-.78.35-1.75.7-2.55,1.95-1.75,4.6-1.94,7.32-2.78l20.58-6.34,11.4-3.54c2.93-.91,6.39,1.61,8.91,2.47l28.42,9.79Z"/>
  <path class="cls-6" d="M168.2,297.15c-3.65-.72-8.42-2.09-10.88-4.8-1.09-1.58,2.73-3.44,4.07-3.64,7.61-1.11,13.95.44,21.12,4.41-4.47,1.45-9.3,5.01-14.32,4.03Z"/>
  <path class="cls-6" d="M231.26,289.58c3.17,2.87,7.86,2.8,8.19,6.06-2.15,1.09-4.22,2.15-6.83,2.2-.39,0-.98-.13-1.36-.28l-10.05-4.05,8.83-3.84c.35-.15.9-.02,1.22-.09Z"/>
  <path class="cls-5" d="M168.18,299.54l.02-2.39c5.02.99,9.84-2.58,14.32-4.03-7.17-3.96-13.51-5.51-21.12-4.41l-.44-1.35,13.89.57,11.7,5.19-13.41,5.34-4.95,1.07Z"/>
  <path class="cls-5" d="M238.75,312.07l-28.42-9.79c-2.51-.87-5.98-3.38-8.91-2.47l-11.4,3.54-20.58,6.34c-2.72.84-5.37,1.03-7.32,2.78.22-.49-.35-1.19-.93-.91,2.94-2.67,6.88-3.22,10.82-4.32l15.77-4.39,15.02-5.06,36.13,12.06c.47.34.16,2.08-.19,2.23Z"/>
  <path class="cls-5" d="M230,288.51l.04,1.16-8.83,3.84,10.05,4.05c.01.62-.98,1.21-1.88.84l-12.44-5.1,9.16-4.5c1.05-.13,2.9.26,3.9-.28Z"/>
  <path class="cls-14" d="M288.82,318.1c.48.16,1.33.2,1.68.54.54.51.22,1.47.26,2.51l.4,10.39c.09,2.33.86,3.83,2.77,4.34l-.67,2.58c-.77.22-1.96.14-2.68.67l-9.34,6.84c1.74,1.69,2.96,1.19,3.86,1.3-.3,3.88-6.26,3.36-5.94,7.41-1.4-.78-3.24-.82-4.8-1.01-1.42-1.96-3.73-2.28-6.09-1.03-7.4,3.95-15.34,5.59-22.99,7.53,1.4-1.54,2.04-3.22,1.9-5.66l-.71-13.07c-.09-1.73-.54-3.14-1.29-4.52,9.3-2.22,18.35-5.04,26.95-9.07,5.81-2.72,11.59-5.61,16.69-9.76Z"/>
  <path class="cls-8" d="M245.17,336.93c.75,1.38,1.2,2.79,1.29,4.52l.71,13.07c.13,2.44-.51,4.12-1.9,5.66-12.29,3.12-24.92,4.2-37.58,5.19-1.36-.88-3.04-1.12-5.44-1.19l-.29-20.3.58-1.58c14.37-.21,28.67-2.03,42.64-5.37Z"/>
  <path class="cls-11" d="M298.39,305.53c-1.94,4.88-5.51,9.25-9.58,12.57-5.09,4.15-10.88,7.04-16.69,9.76-.05-2.05,1.18-2.71,2.77-3.68,8.09-5,17.9-14.49,17.38-21.4l4.22-.15c1.21-.03,2.13,1.36,1.9,2.9Z"/>
  <path class="cls-15" d="M298.16,256.49l.05,19.28c-4.28,3.35-12.68-1.76-13.08-8.09l-.67-11.36,13.71.17Z"/>
  <path class="cls-9" d="M355.92,249.21l-.02,1.34-9,6.71-10.65,13.48c-.98,1.24-.64,4.05-3.02,3.31l.24-19.57c5.56-.52,10.9-2.07,16.07-4.08l6.39-1.19Z"/>
  <path class="cls-15" d="M309.73,256.71c-1.4,3.29,2.49,5.08,3.89,7.37,2.09,3.43.83,8.44.56,12.36l-12.05.19c-2.62-8.15,7.16-4.93,7.01-9.6-.12-3.8-6.18-3.95-6.8-5.32-.74-1.62-.43-3.72-.18-5.23l7.57.24Z"/>
  <path class="cls-3" d="M332.36,279.22l-2.96,18.46c-2.18.1-4.34.67-6.27-.13l-.2-13.93-1.73-4.26,11.16-.13Z"/>
  <path class="cls-5" d="M311.34,298.47c-.25.04-.42,1.49-.05,1.66,7.09,2.09,12.68.68,18.3.8l.15,5.76c-7.04-.97-13.72-2.47-20.8-4.96-1.81-.64-3.07-1.23-2.83-3.06,1.87.06,3.38.01,5.22-.21Z"/>
  <path class="cls-7" d="M318.21,297.66h2.95c.53-.01,1.41-.34,1.97-.11,1.93.8,4.08.24,6.27.13l.19,3.25c-5.62-.12-11.21,1.3-18.3-.8-.37-.17-.21-1.62.05-1.66l6.88-.81Z"/>
  <path class="cls-3" d="M321.16,297.65h-2.95c-.1-1.12.58-1.25,1.43-1.25.95,0,1.55.23,1.51,1.25Z"/>
  <path class="cls-3" d="M299.98,306.42c1.59.89,3.35,1.54,5.14,1.91.72,7.97-.18,21.16.92,19.68-.37.51-1.91.62-3.08.91,1.82.92,3.93,1.75,5.97,1.73l.22,2.8c-.58-.03-1.39.09-1.87.34-1.9-2.37-4.59-2.58-7.61-2.47-2.53.1-5.05,1.87-5.75,4.55-1.91-.51-2.68-2.02-2.77-4.34l-.4-10.39c-.04-1.04.28-2-.26-2.51-.35-.33-1.2-.38-1.68-.54,4.07-3.32,7.63-7.69,9.58-12.57l1.59.89Z"/>
  <path class="cls-5" d="M329.98,310.71l1.05-.07.15,2.07.05.69-10.41-1.84-15.68-3.23c-1.8-.37-3.55-1.02-5.14-1.91-.04-.48.05-2.47.67-2.68.45-.15,1.42,1.1,2.09,1.26l21.94,5.18c1.94.46,3.72.64,5.3.54Z"/>
  <path class="cls-1" d="M236.4,288.48l-5.14,1.1c-.33.07-.87-.07-1.22.09l-.04-1.16c2.14-1.16,4.49-1.78,6.4-.03Z"/>
  <path class="cls-2" d="M454.47,378.45c-27.2,4.32-54.49-12.63-72.18-32.14-19.41-21.41-32.07-53.55-18.19-79.84,8.62-16.33,30.06-21.49,48.24-17.28,31.54,7.3,57.37,32.75,68.49,62.54,4.53,12.14,6.36,24.72,3.79,37.12-3.18,15.38-14.26,27.08-30.16,29.61ZM433.1,302.27l.73-1.29,13.51,7.33c2.09-3.06,3.76-6.28,4.72-9.88,1.22-4.58-1.71-8.31-5.68-9.83-.33-.79-.46-1.67-.95-2.28-7.32-9.38-19.37-18.01-26.02-10.6-3.75,4.17-5.48,9.23-7.92,13.91l-17.68-9.86c-3.91-2.18-10.29-2.76-13.24,1.08-3.26,4.25-2.62,10.15-2.08,14.87,8.79-5.45,18.6,2.03,26.61,9.12l-10.61,19.03c-2.09,3.75-1.72,8.08,1.18,11.11l10.31,10.77c-.75-5.06,2.17-7.51,4.11-11.25l11.78-22.74,17.68,10.29,15.91,8.04c4.22,2.13,7.99,3.62,10.71,7.7.79-21.73-8.6-21.5-22.05-29.2l-11-6.3ZM397.19,314.99l4.96-10.29c-7.47-6.33-18.36-12.24-22.26-6.4-2.01,3.01.05,7.71,3.07,9.28l14.24,7.41ZM431.25,331.53l23.49,14.41c2.81,1.73,8.41,3.12,10.61-.09,2.64-3.83-.95-8.94-4.7-11l-37.49-20.62c-4.23,10.11-8.83,18.88-14.56,27.76-1.95,3.02,1.09,7.66,3.13,9.65,2.43,2.6,5.24,3.15,8.33,2.39,2.28-.56,4.01-2.82,5-5.55l6.18-16.96Z"/>
  <path class="cls-14" d="M352.57,316.43c-.61-.66-2.17-2.2-3.42-2.16l-10.56,9.68c-2.06,1.89-3.3,4.05-2.03,6.43l-2.44.11c.71-3.68-6.45-1.16-6.6-2.72l-.32-3.28c-.18-1.89-2.06-1.01-2.78-.19s-1.37,1.4-1.18,3.39c.08.88-2.29,1.02-2.3-.07l-.12-16.05,10.41,1.84,2.7,8.08c3.91,1.35,5.39-1.69,7.53-3.61,4.57-4.08,7.68-8.8,6.58-14.77l4.55,13.33Z"/>
  <path class="cls-10" d="M348.36,302.42l-.33.69c1.1,5.97-2.01,10.69-6.58,14.77-2.14,1.92-3.62,4.96-7.53,3.61l-2.7-8.08-.05-.69c2.11.04,3.41-1.51,5.23-3.01l5.42-4.47c2.21-1.82,3.96-3.29,6.54-2.82Z"/>
  <path class="cls-14" d="M348.36,302.42c-2.58-.47-4.33,1-6.54,2.82l-5.42,4.47c-1.82,1.5-3.13,3.05-5.23,3.01l-.15-2.07c5.62-.36,7.27-11.17,14.58-13.73.54-1.06.79-3.06,1.74-3.63l1.01,9.13Z"/>
  <path class="cls-11" d="M437.05,385.45c1.25.14.88,1.48-.21,1.2-2.24.36-1.66-2.04.21-1.2Z"/>
  <path class="cls-14" d="M353.52,318.45c-1.23.61-1.87-1.08-.2-1.04l.2,1.04Z"/>
  <path class="cls-9" d="M357.08,248.47l1.19-.91-1.19.91Z"/>
  <path class="cls-3" d="M201.96,343.88l.29,20.3c2.4.07,4.08.31,5.44,1.19l-6.73.53c2.5,2.08,5.51,2.4,8.17,3.77-3.86,1.44-7.81-1.15-11.92.08l-2.98-.96c-.08-1.46-1.16-1.99-2.1-3.49,1.74.29,6.68.81,6.73-.92l.57-19.86c.03-1.18,1.96-1.21,2.52-.64Z"/>
  <path class="cls-1" d="M343.16,213.82c-3.9-1.63-7.96-.84-12.01-.4.31-.44.95-1.17.7-1.62-5.92.99-10.75,1.96-16.44,4.89,5.88,2.82,11.08,4.48,16.81,5.85,3.99.95,9.77,1.42,12.52,5.3.55,2.38-3.51,6.04-5.61,5.7-.61-1.39-2.12-2.63-3.94-3.11l-14.3-3.78c-6.4-1.69-13.96-6.99-20.46-5.41l-32.34,7.84c-2.79.68-5.23,2.03-8.08,3.22-1.87.78-5.62-4.96-3.64-6.24,3.99-2.58,8.78-3.63,12.81-4.29,5.55-.9,10.53-2.58,16.59-5.47-6.99-3.62-13.88-5.54-21.64-4.71-1.03.11-1.83-.56-1.87-1.09,6.2-4.92,13.68-6.39,21.96-5.16l16.09,4.86c8.67.28,24.28-10.86,39.73-1.7,2.27,1.35,3.76,2.75,3.13,5.31Z"/>
  <path class="cls-6" d="M337.36,233.26c.46,2.22-.64,4.08-3.1,4.49-13.91,2.3-25.67-7.44-33.22-8.03s-21.51,9.27-34.9,7.61c-1.8-.22-4.65-1.44-3.94-3.7.81-2.58,4.14-2.71,5.93-3.18l32.22-8.51,37,11.32Z"/>
  <path class="cls-6" d="M343.16,213.82c.84-.09,1.49.12,1.98.28.79.24,1.26,1.25.91,1.85s-1.08,1.21-2.05,1.44l-11.95,2.89c-4.01.97-8.01-2.33-12.29-3.36,4.03-2.58,7.76-3.09,11.38-3.49,4.06-.45,8.12-1.24,12.01.4Z"/>
  <path class="cls-6" d="M261.44,212.6c7.38-.65,13.89.32,20.35,3.75-4.88,1.4-8.73,3.43-12.66,3.63-3.61.18-8.59-2.27-11.84-4.31-.13-1.97,2.65-2.94,4.15-3.07Z"/>
  <path class="cls-5" d="M339.12,233.54l-1.77-.28-37-11.32-32.22,8.51-.05-1.36,32.34-7.84c6.5-1.58,14.06,3.72,20.46,5.41l14.3,3.78c1.82.48,3.33,1.72,3.94,3.11Z"/>
  <path class="cls-5" d="M269.17,221.78l-.04-1.8c3.93-.19,7.78-2.23,12.66-3.63-6.46-3.43-12.97-4.4-20.35-3.75-.38-1.02.13-1.55.81-2.09.04.53.84,1.2,1.87,1.09,7.76-.83,14.64,1.09,21.64,4.71-6.05,2.89-11.03,4.57-16.59,5.47Z"/>
  <path class="cls-5" d="M331.15,213.42c-3.62.4-7.35.91-11.38,3.49,4.28,1.03,8.28,4.33,12.29,3.36l.16,2.27c-5.73-1.37-10.93-3.03-16.81-5.85,5.68-2.93,10.52-3.9,16.44-4.89.25.46-.38,1.18-.7,1.62Z"/>
  <path class="cls-1" d="M274.35,353.68c-.04.97-.52,1.65-1.83,2.23-19.01,8.38-39.37,12.11-60.21,12.79-.81.03-1.1.33-1.1.89-.63-.18-1.48-.14-2.07.08-2.67-1.36-5.67-1.69-8.17-3.77l6.73-.53c12.65-.99,25.29-2.07,37.58-5.19,7.65-1.94,15.59-3.58,22.99-7.53,2.36-1.26,4.67-.93,6.09,1.03Z"/>
  <path class="cls-1" d="M294.62,349.86c-2.73.51-6.23-1.16-8.6-2.39,2.98-1.88,5.25-4.51,7.38-7.23,4.39.85,11.45,1.49,13.75,6.36.98,2.54-3.62,6.31-5.48,6.92-2.49-2.99-4.11-4.21-7.05-3.65Z"/>
  <path class="cls-6" d="M294.62,349.86l3.4,1.88c1.34.7,2.13,2.04,1.9,3.3-.68,3.77-12.31,4.33-20.76-.35-.32-4.05,5.64-3.53,5.94-7.41.28.03.67.05.93.19,2.36,1.23,5.87,2.91,8.6,2.39Z"/>
  <path class="cls-15" d="M307.28,333.79c-4.32,2.25-9.25,3.63-14.03,4.66l.67-2.58c.7-2.68,3.22-4.45,5.75-4.55,3.02-.12,5.71.09,7.61,2.47Z"/>
  <path class="cls-12" d="M290.56,339.13l3.05.38c.03.19-.1.56-.22.72-2.13,2.72-4.4,5.35-7.38,7.23-.26-.14-.65-.15-.93-.19-.9-.11-2.12.39-3.86-1.3l9.34-6.84Z"/>
  <path class="cls-1" d="M293.25,338.46l.37,1.05-3.05-.38c.73-.53,1.92-.45,2.68-.67Z"/>
  <path class="cls-15" d="M320.81,311.57l.12,16.05c.02,1.09,2.39.95,2.3.07-.18-1.99.42-2.53,1.18-3.39s2.6-1.7,2.78.19l.32,3.28c.15,1.57,7.31-.96,6.6,2.72l-25.19.16c-2.04.01-4.15-.81-5.97-1.73,1.17-.29,2.71-.41,3.08-.91-1.1,1.48-.19-11.71-.92-19.68l15.68,3.23Z"/>
  <path class="cls-1" d="M445.42,286.32c-7.07-1.45-12.72,2.85-14.2,10.35-.23,1.16-1.18,2.46-.61,3.82.37.89,1.61,1.27,2.49,1.78l11,6.3c13.46,7.7,22.84,7.47,22.05,29.2-2.72-4.08-6.49-5.57-10.71-7.7l-15.91-8.04-17.68-10.29-11.78,22.74c-1.94,3.75-4.86,6.2-4.11,11.25l-10.31-10.77c-2.9-3.03-3.27-7.36-1.18-11.11l10.61-19.03c-8.01-7.08-17.82-14.57-26.61-9.12-.54-4.72-1.18-10.62,2.08-14.87,2.96-3.85,9.34-3.26,13.24-1.08l17.68,9.86c2.44-4.68,4.17-9.74,7.92-13.91,6.66-7.4,18.7,1.22,26.02,10.6Z"/>
  <path class="cls-6" d="M431.25,331.53l-6.18,16.96c-.99,2.73-2.73,4.99-5,5.55-3.09.76-5.9.21-8.33-2.39-2.04-1.98-5.08-6.63-3.13-9.65,5.73-8.88,10.33-17.65,14.56-27.76l37.49,20.62c3.75,2.06,7.33,7.17,4.7,11-2.21,3.2-7.8,1.81-10.61.09l-23.49-14.41Z"/>
  <path class="cls-6" d="M397.19,314.99l-14.24-7.41c-3.01-1.57-5.08-6.27-3.07-9.28,3.9-5.84,14.79.07,22.26,6.4l-4.96,10.29Z"/>
  <path class="cls-6" d="M446.37,288.6c3.98,1.52,6.91,5.25,5.68,9.83-.96,3.59-2.63,6.81-4.72,9.88l-13.51-7.33c-1.76-.96-.09-4.49.52-6.12,1.93-5.11,6.66-8.31,12.02-6.26Z"/>
  <path class="cls-5" d="M445.42,286.32c.48.62.62,1.5.95,2.28-5.35-2.05-10.08,1.14-12.02,6.26-.62,1.63-2.28,5.17-.52,6.12l-.73,1.29c-.88-.5-2.12-.88-2.49-1.78-.57-1.36.38-2.66.61-3.82,1.48-7.5,7.14-11.8,14.2-10.35Z"/>
</svg>