<?xml version="1.0" encoding="UTF-8"?>
<svg id="Layer_1" data-name="Layer 1" xmlns="http://www.w3.org/2000/svg" viewBox="0 0 599.36 567.44">
  <defs>
    <style>
      .cls-1 {
        fill: #ceabee;
      }

      .cls-2 {
        fill: #1f184e;
      }

      .cls-3 {
        fill: #733abb;
      }

      .cls-4 {
        fill: #efe5fa;
      }

      .cls-5 {
        fill: #995cdc;
      }

      .cls-6 {
        fill: #a66ee2;
      }

      .cls-7 {
        fill: #8245cb;
      }

      .cls-8 {
        fill: #5e2aa2;
      }

      .cls-9 {
        fill: #874ad1;
      }

      .cls-10 {
        fill: #be98e9;
      }

      .cls-11 {
        fill: #af92d6;
      }

      .cls-12 {
        fill: #261254;
      }

      .cls-13 {
        fill: #7b41c4;
      }

      .cls-14 {
        fill: #8c4dd4;
      }
    </style>
  </defs>
  <path class="cls-12" d="M58.68,338.96c3.04,4.97,8.48,8.38,14.04,10.55-3.1,7.77-1.47,15.29,1.2,22.73,2.09,5.83,1.98,13.27,5.53,19.06,13.23,21.6,51.87,23.13,76.51,19.63l3.8-1.07c3.99.14,8.09-1.01,11.55-2.11,10.19-3.23,13.18,1.4,19.84,3.65,12.62,4.25,25.73,6.37,38.95,7.35,18.71,1.39,37.81,1.23,56.07-3.24,2.65-.65,5.67-.38,8.13-2.54,15.46,12.41,33.56,20.51,52.84,25.17,0,1.49-1.06,2.67-2.98,2.7l-78.03,1.36c-42.99-.84-84.65-4.88-127-12.83-32.63-6.12-81.95-18.88-104.03-41.69-9.82-10.15-9.57-24.53.21-34.08,6.54-6.39,14.96-13.56,23.36-14.63Z"/>
  <path class="cls-12" d="M444.65,431.07c14.14-8.65,12.43-18.53,15.08-29.95l.88-3.81c11.87.04,23.74.54,35.31-1.62l1.92-.15,1.93-.07c13.7-2.03,27.32-5.29,39.82-12.27,18.89-10.54,17.46-17.37,17.3-32.93-.01-1.18-.13-2.11.79-2.99,12.45,9.88,18.63,23.33,9.28,37.19-17.16,25.45-76.53,40.12-108.18,45.75l-12.07,2.84c-.53.12-1.57,0-1.82-.23s-.13-1.07-.25-1.76Z"/>
  <path class="cls-13" d="M459.74,401.12c-2.65,11.42-.94,21.3-15.08,29.95s-32.02,12.36-49.73,12.63c-12.12.19-23.64-.34-34.93-2.79l2.55-21.18,6.39.47c16.18,2.92,32.02,2.52,48.14.53l14.46-3.31c8.84-2.02,17.54-6.06,24.17-13.2,1.27-1.37,2.21-2.93,4.02-3.11Z"/>
  <path class="cls-10" d="M557.37,341.53l.23,4.87.1.88c-.92.88-.8,1.81-.79,2.99-1.99.06-2.53,2.02-3.69,3.5-5.53,7.1-13.46,11.3-21.48,13.74.03-.95.62-2.09,1.77-2.49,5.21-1.84,8.89-5.58,12.57-9.26,5.98-5.99,6.19-13.56,1.77-20.41-1.8-2.78-2.74-4.6-6.06-6.17-6.02-2.84-11.47-7.11-18.38-8.48-.99-.6-1.82-.04-1.55,1.07l.1,2.57c-1.75-.56-2.92,2.11-3.96,3.08l-6.73,6.26c-.08-.41-.5-1.04-1.02-1.21-.6-.21-1.72.18-2.57.48-9.71,3.37-19.05.68-27.88-2.07.28-1.42,1.56-1.96,2.99-1.61,18.08,4.42,34.17-2.89,37.4-20.47,9.27-50.41-59.73-125.2-105.79-110.67-13.93,4.39-19.46,24.83-14.42,39.46.77,2.23-.1,4.35-.67,5.77-3.75-8.28-4.9-17.48-4.33-26.46.39-6.22,2.81-11.8,6.52-17.57-2.47-.05-3.26,1.82-4.6,2.2l-2.32-7.66c-4.76-5.8-15.39.13-13.51-6.54,8.75-.48,17.18,3.13,25.88,6.93,10.03-4.75,20.57-5.04,31.2-1.85,30.25,9.07,56.54,34.94,72.5,62.08,10.62,18.06,18.65,42.59,13.01,63.04,12.66,3.32,33.27,14.45,33.72,24Z"/>
  <path class="cls-9" d="M294.5,388.28l3.62,3.65c-.43.95.41,1.75,1.36,1.29,2.32,2.19,5.15,4.12,8.44,4.63,6.45,5.26,14.07,9.56,22.43,12.1l32.19,9.78-2.55,21.18-12.85-2.79c-19.28-4.66-37.38-12.76-52.84-25.17-.37-.15-.74-1.1-1.01-1.75-3.68-2.8-5.51-6.42-7.76-9.72,1.1-.63,1.71-1.41,1.97-2.59l2.59-11.63c1.62.07,3.01.77,4.4,1.01Z"/>
  <path class="cls-3" d="M381.86,153.18l-.32,19c-.1,5.76-5.02,8.98-8.2,14.04,2.97.12,6.43-.55,7.72,1.11-6.55.36-9.34-1.76-10.19,1.09-3.15,1.1-6.38,3.65-9.18,5.58-3.24,2.24-2.89,3.49-5.65,6.44-.82-.15-1.8-.22-2.52.06-.84.32-.8,1.64-.37,2.27l-1.2.49c-1.46.59-3.03.45-5.24,1.5-.47-.43-.64-1.17-.67-1.73.82-.71,3.09-.86,2.35-3.1-12.1,4.89-23.78,7.2-35.41,9.46l-.76-19.34c1.67-.32,2.88-.79,3.49-1.41.52-.53.4-1.72.07-2.7,16.48-1.75,37.99-11.36,38.04-11.36,5.56.08,19.83-10.26,24.53-17.7,1.02-1.61,1.45-3.57,3.5-3.68Z"/>
  <path class="cls-10" d="M166.1,201.29l-.15,2.59c-10.74,2.79-21.79,4.95-31.02,12.97,2.16,1.14,4.16-.03,5.97-1.62,5.17-4.52,11.67-6.29,18.26-7.75l18.14-4.1c-.03.97-.04,2.03-.01,2.97-11.21.76-22.89,3.03-32.91,9.86,8.03.74,15.26,2.26,22.45.87,3.28-.63,6.56-5.7,10.69-3.8l1.66,5.24c-.43-.72-1.29-1.94-2.01-2.4-1.01-.64-2.62,1.31-3.49,1.6l-2.83.93c-.9.29-1.04,1.79-.8,2.79l-6.96-1.02c-3.18-.47-6.49-.84-10.1-.79l-15.56.2c-20.57.26-59.45,9.97-71.15,26.61-4.7,6.68-4.95,15.15.35,21.56,5.52,6.68,12.62,11.96,20.71,15.13,1.31.52,1.86,1.18,1.93,2.15-7.71-1.74-14.71-5.7-21.24-10.23-7.37-5.11-8.5-10.61-11.83-11.81,0-4.11-1.06-8.77.87-13.13,8.69-19.66,44.63-28.78,67.16-31.73,6.95-6.24,14.82-10.5,24.03-12.74l17.87-4.35Z"/>
  <path class="cls-7" d="M63.11,289.51c-.03.53-.06,1.38.13,1.88l3.12,7.96c-3.21.74-5.5-.61-7.55-4.63-1.62,4.59,2.72,5.83,4.66,8,7.1,7.93,16.36,12.88,27.3,15.05,2.25.45,4.28,1.56,6.48,1.55l2.83-.12c-.51,2.36-3.17,2.8-4.91,4.23l-12.89,10.63-14.37-6.46-6.32-6.68c-1.55-1.45-2.3-3.48-4.35-3.49l-1.2-6.03-.34-18.29c.51.27,2.24.04,2.26-.66l.16-6.17c2.25-.16,3.58,1.67,4.98,3.21Z"/>
  <path class="cls-10" d="M304.13,106.21c-2.54,2.56-6.56,0-8.23,2.23l-25.65.34c-21.29,2.11-53.78,10.56-66.98,25.64-7.66,8.75-6.95,20.63,1.24,28.61,6.83,6.66,14.9,11.38,23.79,15.09,1.24.52,1.82,1.15,1.83,2.06-10.18-2.23-19.68-7.84-28.08-13.88-4.66-3.35-7.53-7.75-10.5-12.83-.84-8.39.37-16.13,7.4-22.35,25.22-22.31,71.99-28.18,105.19-24.91Z"/>
  <path class="cls-3" d="M67.92,327.61c3.88,2.98,8.22,5.57,13.5,8.05l-8.7,13.85c-5.55-2.16-11-5.58-14.04-10.55-3.45-5.64-2.69-13.35-1.74-19.54,1.36.44,2.64,1.38,3.51,2.58,2.11,2.93,5.14,3.83,7.46,5.61Z"/>
  <path class="cls-10" d="M191.04,166.95l.53,5.3c-8.23,6.64-10.41,18.2-3.27,27.04,6.73,8.34,15.99,14.14,26.14,17.68,1.33.46,1.8,1.54,1.64,2.69-7.59-2.3-14.85-4.85-21.65-9.61-6.59-4.62-12.73-9.66-15.73-16.97l-1.21-2.93c-2.05-9.61,4.42-18.75,13.56-23.2Z"/>
  <path class="cls-10" d="M379.62,137.31c2.76,5.02,2.34,10.36,2.24,15.87-2.05.12-2.48,2.08-3.5,3.68-4.71,7.44-18.98,17.79-24.53,17.7,4.8-4.86,10.75-7.61,16.4-14.73,6.29-7.93,6.56-17.86.37-25.39,5.02-.73,6.08,3.83,9.02,2.86Z"/>
  <path class="cls-6" d="M366.44,124.7c-.78,1.45-2.02,2.01-3.47,1.75-1.07-.19-2.24-2.2-4.75-.36,4.59,3.15,8.69,6.57,11.6,11.41,11.54,19.17-15.64,33.8-35.23,40.62-28.23,9.83-71.23,10.09-99.38,0l-12.9-5.99c-14.95-6.94-27.78-20.51-18.74-34.2,3.97-6.02,9.64-9.73,16-13.09,18.12-9.56,37.89-13.11,58.12-14.94h17.62c22.17,1.28,43.32,5.29,63.68,16.35-2.5-5.17-8.09-4.96-12.09-7.93-16.57-5.89-33.74-10.11-50.98-9.88,1.66-2.24,5.68.32,8.23-2.23,23.29,1.99,42.45,5.92,62.31,18.5ZM357.18,161.73c4.75-3.79,8.95-8.99,8.85-15.33-.23-14.64-21.26-24.37-35.98-28.3-27.48-7.34-56.03-7.41-83.63-.61-16.1,3.97-39.86,14.25-40.03,29.56-.18,16.48,25.55,26.61,42.84,30.29,32.68,6.97,81.94,5.1,107.95-15.63Z"/>
  <path class="cls-13" d="M68.01,275.05c-1.17.98-4.19,1.9-4.29,3.66l-.61,10.8c-1.4-1.54-2.74-3.37-4.98-3.21.04-1.39-.3-2.86-1.98-3.17l.04-19.89c3.33,1.2,4.46,6.71,11.83,11.81Z"/>
  <path class="cls-13" d="M202.04,166.29l-5.43,4c.7,3.95.73,7.52-1.53,10.12l-2.09,1.03c.5-2.16.02-4.58-1.1-6.3-.32-.7-.23-2.12-.31-2.91l-.53-5.3.49-13.48c2.97,5.08,5.84,9.48,10.5,12.83Z"/>
  <path class="cls-5" d="M178.69,193.08c-2,1.52-3.18,3.6-3.82,6.32l2.72,1.64c-4.64-.57-7.83,1.85-11.65,2.84l.15-2.59c1.69-5.28,6.08-9.22,11.38-11.14l1.21,2.93Z"/>
  <path class="cls-6" d="M379.62,137.31c-2.94.97-4-3.59-9.02-2.86l-2.7-3.29.96-4.93c4.41,2.79,8.26,6.54,10.76,11.08Z"/>
  <path class="cls-6" d="M58.12,286.3l-.16,6.17c-.02.69-1.75.92-2.26.66l.44-10c1.68.31,2.02,1.78,1.98,3.17Z"/>
  <path class="cls-10" d="M368.85,126.23l-.96,4.93c-1.37-1.67-3.86-2.57-4.93-4.71,1.46.26,2.69-.3,3.47-1.75l2.41,1.53Z"/>
  <path class="cls-12" d="M557.6,346.4l-.23-4.87c1.53-.59,3.39-.17,4.29,1.41.45.8.11,2.35-1.13,3.46-.69.62-1.67.87-2.93,0Z"/>
  <path class="cls-6" d="M67.92,327.61c-2.33-1.79-5.35-2.68-7.46-5.61-.87-1.2-2.15-2.14-3.51-2.58l.3-1.97c2.05,0,2.8,2.04,4.35,3.49l6.32,6.68Z"/>
  <path class="cls-13" d="M248.95,327.61c-.22,1.42.11,2.65.66,3.9.29.67.36,1.87.34,2.61-.06,3.5,5.14,14.7,2.37,19.78l-4.31,7.89,3.26.62-2.17,6.31c-.94-.52-1.94.53-2.67.75-1.68.5-3.64.67-5.13,2.25-5.46,5.77-11.35,10.64-18,14.95-.7.45-1.06,1.33-1.28,1.75l-2.22.75c-.72.24-2.05.56-1.69,1.67.24.75,1.37,1.5,1.8,2.23-5.34-1.04-9.71-.94-9.78,2.27-3.28-.92-5.89,1.83-9.07,3.09l-10.74,4.25c-1.2.48-1.59,2.01-1.24,3.15.49,1.58,1.72,1.58,3.04,1.04l-.95,4.55c-6.66-2.24-9.65-6.87-19.84-3.65l-5.65-19.54c-.94.35-2.58,1.31-3.15,1.28-.52-.03-.04-2.09-.16-2.32,23.76-5.16,46.42-14.55,65.49-29.63l10.46-9.9c5.87-5.56,7.9-13.76,9.7-21.16.1.38.66.86.94,1.14Z"/>
  <path class="cls-9" d="M110.98,388.83c13.82,1.51,27.6,1.89,41.45.16-.25,3.31.66,6.36,1.29,9.79l2.25,12.15c-24.64,3.5-63.29,1.97-76.51-19.63-3.55-5.8-3.44-13.24-5.53-19.06,2.73.21,3.94,2.78,5.93,4.46,8.87,7.53,20.26,10.94,31.13,12.13Z"/>
  <path class="cls-7" d="M286.18,415.5c-18.26,4.48-37.37,4.63-56.07,3.24-.63-4.08-.27-8.02-.2-12.39l.2-9.08,2.85.04c.33,5.39-1.45,11.96.85,17.44,2.08,2.56,8.17,1.64,10.52.14v-16.82s3.25,0,3.25,0l.17,16.44,11.68-1.89.12-14.86,16.39-1.62c1.04-.1,1.78-.63,2.2-1.1.29.11.68.24.98.24-.74,9.82,7.2,14.29,7.07,20.22Z"/>
  <path class="cls-9" d="M216.92,396.97c.82,6.12-1.35,11.83,1.29,18.31,1.14-6.95,1.15-12.57,3.94-18.48l7.95.48-.2,9.08c-.07,4.36-.43,8.31.2,12.39-13.23-.98-26.33-3.1-38.95-7.35l.95-4.55c5.63-2.29,10.84-4.25,15.47-8.95,1.06-1.07,4.44-1.16,4.53-3,1.76-1.2,3.4,2.14,4.82,2.06Z"/>
  <path class="cls-10" d="M113.41,315.82c-7.84,5.11-16.48,9.64-22.74,17.11l-5.93,7.07c-6.05,7.21-9.08,17.41-5.42,26.43,2.96,7.31,9.54,13.19,16.65,15.9l15.02,6.49c-10.87-1.18-22.26-4.6-31.13-12.13-1.99-1.69-3.2-4.25-5.93-4.46-2.67-7.44-4.31-14.96-1.2-22.73l8.7-13.85c-5.28-2.48-9.62-5.07-13.5-8.05l14.37,6.46,12.89-10.63c1.74-1.43,4.39-1.87,4.91-4.23.96.11,1.95.08,2.84-.46.63-.38,1.03-1.5.93-2.43,2.08.42,4.54.04,5.24-2.42,1.34.21,3.03.81,4.31,1.92Z"/>
  <path class="cls-9" d="M171.32,407.75c-3.46,1.1-7.56,2.25-11.55,2.11l-3.84-13.41c-.8-2.59-1.59-5.03-.99-7.46,2.24-1.34,4.95-1.29,7.43-1.83.12.23-.36,2.29.16,2.32.57.03,2.2-.92,3.15-1.28l5.65,19.54Z"/>
  <path class="cls-8" d="M282.21,395.25c.74,2.06,2.07,4.41,3.33,6.25,2.25,3.29,4.09,6.92,7.76,9.72.27.65.64,1.6,1.01,1.75-2.46,2.16-5.48,1.89-8.13,2.54.13-5.93-7.82-10.4-7.07-20.22l3.1-.03Z"/>
  <path class="cls-13" d="M154.93,388.99c-.6,2.43.19,4.87.99,7.46l3.84,13.41-3.8,1.07-2.25-12.15c-.63-3.43-1.54-6.49-1.29-9.79.63-.08,1.81.42,2.51,0Z"/>
  <path class="cls-10" d="M407.75,344.39c-.62,3.17,3.76,4.29,9.05,4.04,1.34,1.6,3.52,2.36,5.75,3.39,10.97,5.08,21.37,10.82,29.22,19.54,1.24,1.38,2.23,3.11,4.25,3.59l1.42,2.69,2.7,6.46c1.86,4.44,1.45,9.01.48,13.21l-.88,3.81c-1.8.17-2.75,1.74-4.02,3.11-6.63,7.14-15.34,11.18-24.17,13.2.06-1.11.68-2.01,1.84-2.48,6.05-2.44,11.27-5.53,15.82-10.3,5.27-5.54,8.02-14.2,4.83-21.42-5.11-11.53-14.71-19.34-25.33-24.55l-12.84-6.31c-14.91-7.33-30.7-11.53-47.34-11.54h-28.13c-14.16,1.23-27.92,4.28-39.23,12.6-7.26,5.34-11.73,13.23-9.05,22.09,2.24,7.39,6.95,13.96,12.86,18.81,1.39,1.14,2.34,2.4,2.95,3.53-3.29-.51-6.12-2.44-8.44-4.63l-1.36-1.29-3.62-3.65c-5-5.04-8.1-11.05-9.59-18.05-1.58,2.5-.32,4.61-1.73,3.74l-1.67-.97c-.08-.17-.22-.51-.38-.67-.59-.6-1.44-1.7-2.22-2.06,3.9-.63,2.84-3,4.03-5.85.4.28,2.08.41,2.45-.35l2.64-5.48c.67-1.4,1.16-2.76.02-3.97l2.94-.84c5.03-1.43,12.95-10.11,31.11-13.13l15.57-2.59c21.57-1.78,43.15.29,64.43,6.24,2.04.57,4.21.59,5.69.09Z"/>
  <path class="cls-13" d="M556.91,350.28c.16,15.56,1.59,22.39-17.3,32.93-12.5,6.98-26.12,10.24-39.82,12.27-.1-.91.18-2.53.97-2.61l3.94-.41c2.29-.24,4.29-.66,5.24-1.75,1.12-1.28.43-5.21-.92-5.17-3.38.09-5.73-.33-8.15-2.96l-4.03,2.74c-1.52-2.67-1.03-4.15-1.04-7.15-2.2.79-3.92-.92-5.06-1.1l15.2-2.47c.01,1.51,1.52,4.43,3.5,3.45,1.11-.89,1.26-3.54,1.7-4.44l6.28-1.71,14.33-4.37c8.03-2.45,15.95-6.64,21.48-13.74,1.16-1.48,1.7-3.44,3.69-3.5Z"/>
  <path class="cls-7" d="M490.73,377.06c1.14.18,2.86,1.89,5.06,1.1.01,3-.48,4.47,1.04,7.15l4.03-2.74c2.41,2.63,4.76,3.05,8.15,2.96,1.35-.04,2.03,3.89.92,5.17-.94,1.08-2.95,1.51-5.24,1.75l-3.94.41c-.79.08-1.07,1.7-.97,2.61l-1.93.07c.25-.89.48-3.95-.98-4.21-1.58.29-1.24,3.32-.95,4.36-11.57,2.16-23.44,1.66-35.31,1.62.97-4.2,1.38-8.77-.48-13.21l-2.7-6.46,33.3-.58Z"/>
  <path class="cls-13" d="M497.85,395.54l-1.92.15c-.29-1.04-.64-4.07.95-4.36,1.45.25,1.23,3.32.98,4.21Z"/>
  <path class="cls-4" d="M431.55,417.43l-14.46,3.31c-16.12,1.99-31.96,2.39-48.14-.53l-6.39-.47-32.19-9.78c-8.36-2.54-15.99-6.84-22.43-12.1-.61-1.12-1.56-2.38-2.95-3.53-5.91-4.85-10.62-11.42-12.86-18.81-2.68-8.86,1.78-16.75,9.05-22.09,11.31-8.32,25.07-11.37,39.23-12.6h28.13c16.65,0,32.43,4.21,47.34,11.54l12.84,6.31c10.62,5.22,20.22,13.02,25.33,24.55,3.2,7.22.45,15.88-4.83,21.42-4.54,4.77-9.77,7.85-15.82,10.3-1.16.47-1.78,1.38-1.84,2.48ZM425.19,415.19c9.28-1.88,16.82-6.94,22.86-13.64,5.37-5.96,6.1-14.52,2.07-21.49-4.61-7.98-11.43-13.76-19.49-18.51-20.22-11.93-43.15-18.05-66.71-19.47-7.05-.42-13.03-1.06-20.01,0-14.63,2.22-31.15,3.69-42.56,13.52-8.77,7.56-9.7,19.04-2.7,28.27,5.93,7.82,13.83,13.42,22.78,18.24,25.23,13.58,53.64,19.27,82.47,17.38l21.3-4.3Z"/>
  <path class="cls-2" d="M521.95,324.36c6.42,2.04,13.05,5.77,17.64,11.07,5.39,6.24,4.06,13.79-1.84,19.05-19.34,17.23-59.88,18.35-85.99,16.88-7.86-8.72-18.26-14.46-29.22-19.54-2.23-1.03-4.41-1.79-5.75-3.39l10.14-.49,3.45,5.34c1.53.1,2.78-.26,3.73-.9-2.38,5.76,11.97,5.58,15.76,3.75,0,.43.37,1.23,1.1,1.33,10.36,1.33,20.38,1.3,30.72-.41,1.25-.21,1.93-.65,2.23-1.82,1.56.61,3.15.42,4.74.51,5.28,3.44,15.44,3.36,16.55-1.52,1.31-.27,3.19-.71,4.2-1.88s2.5-3.56.88-4.55l-7.15-4.37c2.45-1,3.73-2.25,3.57-4.03,1.74-.26,4.23-1.22,5.37-3.05.56-.9-.38-2.31-.81-2.65l6.73-6.26c1.04-.97,2.21-3.63,3.96-3.08Z"/>
  <path class="cls-3" d="M479.8,330.88c8.83,2.75,18.17,5.44,27.88,2.07.85-.29,1.97-.68,2.57-.48.51.18.94.81,1.02,1.21.43.34,1.38,1.75.81,2.65-1.14,1.83-3.63,2.8-5.37,3.05-3.33.49-6.24.88-8.07,3.65l-5.89,3.97-3.97.8c1.46,1.81,3.74,2.14,5.87,2.45.73,3.33-3.58,2.39-5.98,5.48-1.59-.09-3.17.1-4.74-.51-4.05-1.57-9.02-5.55-14.02-5.53l-14.92,3.97c-1.57-2.65-4.32-3.59-7.11-4.13,2.25-2.56,8.48-1.55,13.11-5.57-6.2-1.42-10.35-5.79-13.74-4.85-3.19-.36-4.81-3.77-6.96-5.33,2.94.43,4.43-1.79,6.5-3.36,4.25-3.22,7.83-6.19,9.23-11.38,7.12,5.67,15.21,9.16,23.78,11.83Z"/>
  <path class="cls-7" d="M372.05,201.42c-.07.81-.11,2.19-.51,2.9-.23.41-.9,1.07-.58,1.58.48.76,1.43.65,1.98.46l-2.02,2.03-.93,6.92c-2.9,2.34-2.31,7.09-.16,10.16h8.97c-.14,1.62-.49,3.62.91,5.02l5.3-3.96c8.41-1.89,3.93-7.68,9.97-9.63-.57,8.97.58,18.17,4.33,26.46.29,2.75,1.38,7.09,3.26,9.19-.32,1.49-.21,2.84.42,3.96-7.27,3.08-11.11,10.92-17.04,10l-1.89-.29c.82-1.65-.53-2.8-.94-4.01-1.48-4.36-1.66-9.59-4.62-13.18-.33-.4-.19-1.41-.23-1.93l-.37-5.29-.02-5.06-.02-6.2-9.25,3.36-.42-.09c-.03-1.76-2.08-2.79-2.93-4.2.02-.79.81-2.6.49-3.35-.35-.85-.86-1.59-1.86-1.88-1.8-9.48.15-16.65-2.25-19.39,4.59-3.53,6.48-9.31,9.75-11.56-.34,2.66-.69,5.58.65,7.97ZM368.43,209.37c-.61-.27-2.31-.4-2.87-.03s-.98,5.47.14,6.59c1.03,1.02,2.33.25,2.75-.55.99-1.9.87-5.62-.01-6.01Z"/>
  <path class="cls-4" d="M479.8,330.88c-8.57-2.67-16.66-6.16-23.78-11.83l-17.57-13.99c-.68-.54-2.09-1.25-2.38-1.96-1.22-2.97-18.36-17.86-29.89-42.51-1.29-2.75-1.35-5.52-3.61-8.03-1.88-2.09-2.97-6.44-3.26-9.19.56-1.42,1.43-3.54.67-5.77-5.04-14.63.49-35.07,14.42-39.46,46.06-14.53,115.06,60.27,105.79,110.67-3.23,17.57-19.32,24.89-37.4,20.47-1.43-.35-2.71.19-2.99,1.61ZM493.28,327.91c12.97.19,22.84-8.21,24.93-20.1,5.44-30.94-19.14-68.46-42.49-88.2l-4.92-4.16c-11.53-8.17-23.78-14.58-37.92-17.14-10.44-1.89-21.92,1.04-27.77,10.29-11.56,18.32,1.23,49.77,13.58,68.09,16.33,24.24,43.81,50.77,74.59,51.21Z"/>
  <path class="cls-6" d="M456.01,374.95c-2.02-.49-3.01-2.22-4.25-3.59,26.11,1.47,66.64.35,85.99-16.88,5.91-5.26,7.23-12.81,1.84-19.05-4.59-5.31-11.22-9.03-17.64-11.07l-.1-2.57c7.83,2.03,15.32,5.34,21.34,11.18,6.28,6.1,7.44,15.24.61,21.64-21.1,19.75-59.38,21.68-87.78,20.34Z"/>
  <path class="cls-4" d="M531.74,367.52l-14.33,4.37-6.28,1.71-5.2.99-15.2,2.47-33.3.58-1.42-2.69c28.4,1.34,66.68-.59,87.78-20.34,6.83-6.4,5.67-15.54-.61-21.64-6.01-5.84-13.5-9.15-21.34-11.18-.27-1.11.56-1.67,1.55-1.07,6.92,1.37,12.37,5.64,18.38,8.48,3.32,1.57,4.26,3.39,6.06,6.17,4.42,6.84,4.21,14.42-1.77,20.41-3.67,3.68-7.36,7.42-12.57,9.26-1.14.4-1.74,1.54-1.77,2.49Z"/>
  <path class="cls-3" d="M394.98,216.9c-6.04,1.95-1.55,7.74-9.97,9.63l-5.3,3.96c-1.4-1.39-1.05-3.4-.91-5.02l.2-2.36c1.69-4.13,3.99-7.84,7.1-11.33l-3.09-1.17.08-1.61c1.51.8,5.69,1.14,6.43-.07.2-.32.06-.87.13-1.17l1.19-1.51c1.46.01,2.21-.87,3.12-1.69,1.04-.94,2.34-1.62,2.93-3.04,1.34-.38,2.13-2.25,4.6-2.2-3.71,5.77-6.12,11.36-6.52,17.57Z"/>
  <path class="cls-4" d="M381.07,187.33c-1.87,6.67,8.75.75,13.51,6.54l2.32,7.66c-.59,1.41-1.88,2.1-2.93,3.04l-1.05-3.01c-1.78-.66-3.2,1.66-2.96,2.85l-.93.09-2.81-2.29c2.67-.62,3.11-2.59,4.05-3.49.79-.76,3.93-1.18,2.56-3.42-1.53-2.5-13.61-4.8-11.34-.7l1.48,2.67c.55,1,1,2.31.58,3.17-.3.62-1.12,1.17-1.94,1.58-.77.05-1.97.35-2.7.07-2.17-.84-4.49-.81-6.87-.68-1.34-2.39-.99-5.3-.65-7.97.22-1.68.47-3.54-.52-5.03.84-2.85,3.64-.74,10.19-1.09Z"/>
  <path class="cls-13" d="M294.5,388.28c-1.39-.24-2.78-.94-4.4-1.01l-2.59,11.63c-.26,1.18-.87,1.96-1.97,2.59-1.26-1.84-2.59-4.19-3.33-6.25-.12-.54.08-1.65-.41-2.11-1.04-.99-3.79.16-4.49-1.34-.3-.63-.34-1.64-.14-2.58-.02-.11.41-.78.73-.83,2.02.15,4.26-.7,4.55-3.38l1.05-9.57-2.22.96c-.98.43-1.79-.48-1.24-1.5.34-.63.68-1.31,1.47-1.9l1.67.97c1.41.87.15-1.24,1.73-3.74,1.5,6.99,4.59,13.01,9.59,18.05Z"/>
  <path class="cls-13" d="M299.48,393.22c-.95.47-1.79-.34-1.36-1.29l1.36,1.29Z"/>
  <path class="cls-4" d="M295.9,108.44c17.24-.23,34.41,3.99,50.98,9.88,4,2.97,9.59,2.76,12.09,7.93-20.36-11.06-41.51-15.07-63.68-16.35h-17.62c-20.24,1.83-40.01,5.38-58.12,14.94-6.36,3.36-12.03,7.07-16,13.09-9.04,13.69,3.8,27.26,18.74,34.2l12.9,5.99c28.16,10.09,71.16,9.83,99.38,0,19.6-6.82,46.77-21.45,35.23-40.62-2.91-4.84-7.01-8.26-11.6-11.41,2.51-1.84,3.68.17,4.75.36,1.06,2.14,3.56,3.04,4.93,4.71l2.7,3.29c6.19,7.53,5.92,17.46-.37,25.39-5.65,7.12-11.6,9.87-16.4,14.73-.05,0-21.55,9.61-38.04,11.36l-12.81,1.36-1.03.1-1.96.02-1.05.07-15.87.56c-10.79.38-21.65-.94-32.8-3.17l-15.95-3.19-4.21-1.5c0-.91-.59-1.55-1.83-2.06-8.89-3.71-16.96-8.43-23.79-15.09-8.18-7.98-8.9-19.86-1.24-28.61,13.2-15.08,45.7-23.53,66.98-25.64l25.65-.34Z"/>
  <path class="cls-6" d="M191.88,175.15c1.12,1.71,1.6,4.14,1.1,6.3-2.06,8.97,2.25,18.97,11.14,21.82.47,1.54,1.25,2.19,2.92,3.12,23.26,13.01,49.27,15.64,75.93,15,15.95-.39,30.96-3.03,45.25-8.61,6.32-2.47,12.51-5.15,17.83-9.75.03.56.21,1.3.67,1.73,2.21-1.05,3.78-.9,5.24-1.5-1.55,2.68-4.44,4.9-7.65,6.65-37.77,20.64-93.45,20.97-132.19,3.67-8.2-3.66-14.99-8.1-20.63-14.58-6.34-7.29-6.42-17.37.4-23.84Z"/>
  <path class="cls-13" d="M315.79,185.93c.32.98.45,2.17-.07,2.7-.62.62-1.82,1.09-3.49,1.41l.76,19.34c-5.1.99-9.27,1.68-15.11,1.83l-14.81.39v-23.58s15.87-.56,15.87-.56c-.06,1.17,1.23,1.04,1.05-.07l1.96-.02c.11,1.5,1.45.8,1.03-.1l12.81-1.36Z"/>
  <path class="cls-11" d="M346.05,203.03c-5.32,4.6-11.51,7.28-17.83,9.75-25.95,6.26-52.6,8.09-79.44,3.99l-9.74-1.88-1.51-3.11c2.12-2.29,5.2-2,7.57-3.84,12.5,2.36,25.23,4.01,37.97,3.68l14.81-.39c5.84-.15,10.01-.84,15.11-1.83,11.63-2.26,23.31-4.57,35.41-9.46.74,2.24-1.54,2.39-2.35,3.1Z"/>
  <path class="cls-4" d="M191.57,172.24c.08.79,0,2.21.31,2.91-6.81,6.47-6.74,16.55-.4,23.84,5.64,6.48,12.43,10.92,20.63,14.58,38.74,17.3,94.42,16.97,132.19-3.67,3.21-1.75,6.1-3.97,7.65-6.65l1.2-.49c1.35-.55,2.03-1.41,2.89-2.33,2.77-2.94,2.41-4.19,5.65-6.44-.81,6.72-5.89,11.63-11.57,15.6-1.98,1.38-4.23,2.38-4.34,4.81-17.52,7.53-36.02,10.93-54.87,13.34l-2.57.33-11.51-.13c-1.47-.02-2.27.77-2.52,1.73l-2.04.13c-.52-.93-1.64-1.91-3.22-1.98l-10.08-.43-2-.04c-13.81-1.46-27.66-3.7-40.89-7.71.16-1.15-.31-2.22-1.64-2.69-10.15-3.55-19.4-9.34-26.14-17.68-7.14-8.84-4.96-20.4,3.27-27.04Z"/>
  <path class="cls-10" d="M371.4,193.45c-3.27,2.25-5.16,8.04-9.75,11.56-4.93,3.79-10.26,7-15.86,9.4.1-2.43,2.36-3.42,4.34-4.81,5.68-3.97,10.76-8.88,11.57-15.6,2.8-1.93,6.03-4.48,9.18-5.58,1,1.49.74,3.35.52,5.03Z"/>
  <path class="cls-6" d="M356.04,200.45c-.86.92-1.54,1.78-2.89,2.33-.43-.63-.47-1.94.37-2.27.72-.28,1.7-.21,2.52-.06Z"/>
  <path class="cls-14" d="M216.07,219.66c13.23,4.01,27.09,6.25,40.89,7.71l.14,24.11-31.95-6.16-21.59-8.37c-3.87-1.5-6.94-4.17-10.76-4.53l-.75-.66c-.74-2.49-3.63-3.28-3-7.44-2.06.21-2.79,1.01-4.01,1.53-.24-1.84-1.43-2.23-3.01-2.49l-2.87-4.84-1.66-5.24-.23-6.93c-.03-.95-.02-2,.01-2.97.02-.54-.55-1.52.3-2.35l-2.72-1.64c.64-2.72,1.82-4.8,3.82-6.32,3.01,7.3,9.14,12.35,15.73,16.97,6.8,4.76,14.06,7.31,21.65,9.61Z"/>
  <path class="cls-14" d="M89.25,285.28l24.12,5.46.55,19.38-5.12.82c-9.61-.98-18.93-4.24-28.51-7.72-.2-1.15-1.48-.79-1.22.18-2-1.13-4.23-1.74-5.94-4.14s-4.82-3.42-6.8-5.01c-.88-.71-1.24-2.96-3.1-2.86-.2-.5-.16-1.35-.13-1.88l.61-10.8c.1-1.76,3.12-2.68,4.29-3.66,6.54,4.53,13.53,8.48,21.24,10.23Z"/>
  <path class="cls-4" d="M163.07,220.42l-.1,1.29-31.4.2c-15.77,1.59-30.33,5.06-44.86,11.17-6.2,2.61-11.85,6.6-16.46,11.33-7.89,8.1-6.4,19.6,2.56,26.53,8.85,6.85,19.14,12.43,30.58,15.12,31.63,7.44,64.88,6.34,95.1-4.99,9.68-3.63,17.58-9.47,23.68-16.56l3.12-4.25c2.41,4.76-7.86,13.32-15.57,17.96-.98.59-1.15,1.73-.94,2.64-10.3,3.74-20.6,7.17-32,9.29l-35.51,2.78-27.9-2.2-24.12-5.46c-.07-.97-.61-1.63-1.93-2.15-8.09-3.17-15.19-8.45-20.71-15.13-5.3-6.41-5.05-14.88-.35-21.56,11.7-16.64,50.58-26.35,71.15-26.61l15.56-.2c3.61-.05,6.92.33,10.1.79Z"/>
  <path class="cls-2" d="M177.28,206.35l.23,6.93c-4.13-1.9-7.41,3.17-10.69,3.8-7.19,1.39-14.41-.13-22.45-.87,10.01-6.83,21.7-9.1,32.91-9.86Z"/>
  <path class="cls-4" d="M177.59,201.03c-.85.82-.28,1.81-.3,2.35l-18.14,4.1c-6.59,1.46-13.09,3.23-18.26,7.75-1.82,1.59-3.82,2.76-5.97,1.62,9.23-8.02,20.28-10.19,31.02-12.97,3.82-.99,7.01-3.42,11.65-2.84Z"/>
  <path class="cls-9" d="M179.17,218.52l2.87,4.84-12.01-1.92c-.24-1-.1-2.5.8-2.79l2.83-.93c.87-.28,2.49-2.23,3.49-1.6.73.46,1.58,1.67,2.01,2.4Z"/>
  <path class="cls-1" d="M170.03,221.44l12.01,1.92c1.58.25,2.77.65,3.01,2.49l-10.59-2.23-11.49-1.9.1-1.29,6.96,1.02Z"/>
  <path class="cls-10" d="M69.92,303.67c2.61.41,3.83,3.44,6.01,4.82,5.66,3.57,11.59,5.85,17.91,8.13,1.73.62,3.37.72,3.41,2.71-2.2.02-4.23-1.1-6.48-1.55-10.94-2.17-20.2-7.12-27.3-15.05l6.44.94Z"/>
  <path class="cls-4" d="M103.86,316.32c.1.93-.3,2.05-.93,2.43-.9.54-1.89.57-2.84.46l-2.83.12c-.04-1.99-1.69-2.08-3.41-2.71-6.32-2.28-12.25-4.57-17.91-8.13-2.18-1.37-3.4-4.41-6.01-4.82.06-.46.02-.85-.05-1.21l1.37-.07c8.24,7.48,21.51,12.04,32.62,13.93Z"/>
  <path class="cls-6" d="M66.36,299.35c1.47-.34,2.48,2.16,3.5,3.1.07.37.12.75.05,1.21l-6.44-.94c-1.95-2.17-6.29-3.42-4.66-8,2.05,4.01,4.34,5.36,7.55,4.63Z"/>
  <path class="cls-10" d="M66.35,294.26c.61,3.39,2.55,6,4.89,8.13l-1.37.07c-1.02-.94-2.03-3.44-3.5-3.1l-3.12-7.96c1.87-.1,2.22,2.15,3.1,2.86Z"/>
  <path class="cls-14" d="M230.12,180.17l4.21,1.5c-.67,2.57.02,4.78,1.75,6.81l-.22,15.91c-3.14-.77-8.12,0-10.62-2.27-3.46-3.14-8.28-3.46-11.83-5.95l-13.01-9.11-4.71-5.11c-.33-.36-.53-1.03-.62-1.53,2.26-2.6,2.23-6.17,1.53-10.12l5.43-4c8.4,6.04,17.9,11.65,28.08,13.88Z"/>
  <path class="cls-2" d="M195.7,181.95c-6.37,6.29,5.25,11.01,8.43,21.32-8.89-2.85-13.2-12.84-11.14-21.82l2.09-1.03c.09.49.28,1.17.62,1.53Z"/>
  <path class="cls-2" d="M299.93,310.39c.43-.2.74-.53.89-.95,1.4.28,2.82.26,4.22-.02,6.41,4.37,15.01,4.47,17.86,8.11-19.81,9.77-51.3,11.75-73.95,10.08-.28-.28-.84-.76-.94-1.14-1.31-5.03-3.58-9.56-6.26-13.98l21.96-7.11,19.49,7.77c7.03,2.8,18.02,2.25,16.73-2.75Z"/>
  <path class="cls-2" d="M249.09,368.71c8.71,4.82,20.29,9.83,30.28,9.13-1.32,4.27-1.9,7.29-1.48,10.54-.31.05-.74.72-.73.83-19.01,3.24-38.42,3.42-57.38-.06l2.22-.75c4.79.77,22.46-10.87,24.42-18.95.73-.21,1.73-1.26,2.67-.75Z"/>
  <path class="cls-4" d="M227.84,357.53c-19.07,15.09-41.73,24.47-65.49,29.63-2.47.54-5.18.48-7.43,1.83-.69.42-1.88-.08-2.51,0-13.85,1.73-27.62,1.35-41.45-.16l-15.02-6.49c-7.1-2.71-13.68-8.59-16.65-15.9-3.66-9.02-.62-19.22,5.42-26.43l5.93-7.07c6.26-7.47,14.9-12,22.74-17.11l6.19-3c31.78-15.42,79.77-22.22,110.54-2.62,7.84,5,12.05,12.89,10.78,22.32-1.05,7.84-4.95,14.7-10.66,20.13-1.51,1.44-2.48,2.93-2.41,4.89ZM221.9,357.31c14.22-11.88,23.25-30.59,9.96-42.81-6.13-5.63-13.4-9.49-21.71-11.18l-13.19-2.68-29.48.28c-26.65,3.01-51.48,12.75-72.02,29.71-5.77,4.76-9.92,10.54-13.1,16.97-4.86,9.83-2.11,20.48,6.44,27.19s17.8,9.49,28.18,10.94l15.13,2.11c31.1-.45,65.97-10.65,89.79-30.54Z"/>
  <path class="cls-10" d="M228.05,296.48c-2.64,1.6-5.94,1.06-8.44,3.83,3.84.76,6.7-.66,9.61-.98-.4,1.35-.76,2.63-.28,4.39.27.99,1.46,1.44,2.79,1.96l2.3.91c2.3,2.26,4.77,4.74,7.73,5.91,2.67,4.42,4.95,8.95,6.26,13.98-1.8,7.4-3.83,15.61-9.7,21.16l-10.46,9.9c-.07-1.97.9-3.45,2.41-4.89,5.71-5.43,9.6-12.29,10.66-20.13,1.27-9.43-2.93-17.32-10.78-22.32-30.77-19.6-78.75-12.79-110.54,2.62-1.32-.24-2.6-.97-2.42-2.24l24-8.9,3.9-1.14,6.25-1.71,14.39-1.99c15-2.07,29.92-2.38,44.83,1.21,8.1,1.95,9.57-7.98,17.5-1.58Z"/>
  <path class="cls-14" d="M275.97,334.03l.03,20.43c-2.75.75-5.68,1.99-8.09,1.65-1.88-.26-3.38-.11-5.5.28-2,.37-5.76-1.22-7.87.65-1.32,1.17-2.76,3.92-3.28,5.37l-3.26-.62,4.31-7.89c2.77-5.07-2.43-16.28-2.37-19.78l26.03-.09Z"/>
  <path class="cls-6" d="M254.05,363.39l21.16,6.86c1.92.62,3.81,2.61,5.9,2.08.16.16.31.5.38.67-.79.6-1.13,1.27-1.47,1.9-.54,1.01.27,1.92,1.24,1.5l2.22-.96-1.05,9.57c-.29,2.68-2.53,3.53-4.55,3.38-.41-3.25.17-6.27,1.48-10.54-9.99.7-21.58-4.32-30.28-9.13l2.17-6.31,2.78.99Z"/>
  <path class="cls-6" d="M328.09,318.75c-17.61,11.92-55.69,14.32-78.49,12.76-.54-1.25-.88-2.48-.66-3.9,22.64,1.67,54.13-.31,73.95-10.08l2.17-1.07,3.03,2.3Z"/>
  <path class="cls-4" d="M289.95,332.94l-12.13.97-1.84.12-26.03.09c.01-.74-.05-1.94-.34-2.61,22.8,1.56,60.88-.84,78.49-12.76,1.74-1.18,5.28-1.86,6.02.83-3.73,3.21-9.2,5.54-14.1,6.64l-30.06,6.72Z"/>
  <path class="cls-6" d="M219.79,389.16c18.95,3.47,38.37,3.3,57.38.06-.19.95-.15,1.95.14,2.58.7,1.5,3.45.35,4.49,1.34.49.46.29,1.57.41,2.11l-3.1.03c-.3,0-.68-.13-.98-.24-.02-.81-.71-1.86-2.16-1.63-18.92,2.91-37.8,3.21-56.08-.36-.42-.73-1.55-1.48-1.8-2.23-.36-1.1.98-1.43,1.69-1.67Z"/>
  <path class="cls-4" d="M219.89,393.05c18.28,3.57,37.16,3.26,56.08.36,1.45-.22,2.13.83,2.16,1.63-.41.47-1.15,1-2.2,1.1l-16.39,1.62-11.96.31h-3.24s-11.38-.77-11.38-.77l-2.85-.04-7.95-.48c-1.83-.11-3.63.08-5.24.17-1.42.08-3.06-3.26-4.82-2.06-.47.32-1.49.39-1.99.41.07-3.21,4.44-3.31,9.78-2.27Z"/>
  <path class="cls-1" d="M246.42,369.46c-1.95,8.08-19.62,19.72-24.42,18.95.22-.42.59-1.3,1.28-1.75,6.66-4.31,12.55-9.18,18-14.95,1.49-1.58,3.45-1.75,5.13-2.25Z"/>
  <path class="cls-3" d="M210.11,395.32c.5-.03,1.52-.09,1.99-.41-.09,1.83-3.47,1.92-4.53,3-4.63,4.7-9.83,6.66-15.47,8.95-1.32.54-2.55.53-3.04-1.04-.35-1.14.04-2.67,1.24-3.15l10.74-4.25c3.18-1.26,5.8-4.01,9.07-3.09Z"/>
  <path class="cls-9" d="M244.33,398.08v16.82c-2.36,1.5-8.45,2.42-10.53-.14-2.3-5.48-.52-12.05-.85-17.44l11.38.77Z"/>
  <polygon class="cls-14" points="259.54 397.77 259.42 412.63 247.74 414.52 247.58 398.08 259.54 397.77"/>
  <path class="cls-7" d="M222.16,396.8c-2.79,5.91-2.8,11.53-3.94,18.48-2.64-6.48-.47-12.18-1.29-18.31,1.61-.09,3.41-.28,5.24-.17Z"/>
  <path class="cls-3" d="M79.08,303.4c9.44,5.35,19.31,8.81,30.02,10.5-.7,2.46-3.16,2.84-5.24,2.42-11.11-1.89-24.38-6.46-32.62-13.93-2.34-2.13-4.28-4.74-4.89-8.13,1.97,1.59,5.09,2.62,6.8,5.01s3.94,3,5.94,4.14Z"/>
  <path class="cls-11" d="M108.82,310.94c2.99.3,5.18.83,8.36-.35-.18,1.27,1.1,2,2.42,2.24l-6.19,3c-1.28-1.11-2.97-1.71-4.31-1.92-10.71-1.69-20.58-5.15-30.02-10.5-.26-.98,1.03-1.33,1.22-.18,9.58,3.47,18.9,6.74,28.51,7.72Z"/>
  <path class="cls-8" d="M340.92,317.27c6.31,0,11.18,6.4,15.49,3.84.32-.19.48-1.75.71-2.02s.63-.55,1.22-.42.93,1.69.71,2.99c6.13,1.92,13.24,1.43,19.41.76l8.3-.9,3.14-.1c1.44-.05,2.76-.32,4.07-.79l5.76-2.03-.7,7.13,24.81-5.62c4.07,6.12,11.38,10,16.44,13.68,2.15,1.56,3.77,4.97,6.96,5.33-2.1.58-4.65,2.34-7.24,1.43l-10.26-3.62-22,7.46c-1.48.5-3.65.48-5.69-.09-21.27-5.95-42.86-8.03-64.43-6.24,1.58-3.71,6.2-4.75,8.03-8.55.14-.29-1.94-8.69-7.77-9.45-.57-1.6,1.98-2.52,3.02-2.79Z"/>
  <path class="cls-7" d="M313.76,295.42l19.84,7.96,12.26,1.95-4.95,11.94c-1.04.26-3.59,1.19-3.02,2.79,5.82.76,7.9,9.16,7.77,9.45-1.83,3.8-6.45,4.84-8.03,8.55l-15.57,2.59c-18.16,3.02-26.07,11.7-31.11,13.13-1.73-6.83-.76-13.71-1.01-20.83l30.06-6.72c4.9-1.1,10.37-3.42,14.1-6.64-.74-2.69-4.28-2.01-6.02-.83l-3.03-2.3,2.2-1.63-10.11-3.61c-3.99-1.43-7.54-3.67-11.46-3.91-1.15-.07-2.23-.4-2.72-1.65-.71-1.82-4.28-2.05-5.38-3.69-1.63-2.44-.41-6.27-.37-8.88l16.55,2.35Z"/>
  <path class="cls-11" d="M447.25,339.12c3.39-.93,7.53,3.43,13.74,4.85-4.63,4.02-10.86,3.01-13.11,5.57-.86-.17-2.1-.18-2.96.01-2.37-2.19-9.95-.44-9.83,2.19l-.97.65c-.96.64-2.2.99-3.73.9l-3.45-5.34-10.14.49c-5.28.25-9.67-.86-9.05-4.04l22-7.46,10.26,3.62c2.59.91,5.15-.86,7.24-1.43Z"/>
  <path class="cls-14" d="M289.95,332.94c.24,7.12-.72,14,1.01,20.83l-2.94.84-10.12.64-.08-21.34,12.13-.97Z"/>
  <path class="cls-1" d="M262.42,356.39c2.03,2.98,10.25,5.92,12.52,4.16h.93c.06.87.71,1.57,1.9,2l5.13,1.86c-1.19,2.85-.13,5.22-4.03,5.85l-23.98-7.75c-.62-.2-1.14.48-.86.88l-2.78-.99c.53-1.45,1.96-4.19,3.28-5.37,2.11-1.87,5.87-.27,7.87-.65Z"/>
  <path class="cls-13" d="M277.81,333.91l.08,21.34,10.12-.64c1.14,1.21.66,2.57-.02,3.97-4.05.87-8.01,1.97-12.12,1.97h-.93c-5.24-2.79-10.09-2.79-7.02-4.44,2.41.34,5.33-.91,8.09-1.65l-.03-20.43,1.84-.12Z"/>
  <path class="cls-4" d="M288,358.58l-2.64,5.48c-.37.76-2.04.63-2.45.35l-5.13-1.86c-1.19-.44-1.85-1.13-1.9-2,4.11,0,8.08-1.1,12.12-1.97Z"/>
  <path class="cls-4" d="M278.89,370.27c.78.36,1.63,1.46,2.22,2.06-2.09.53-3.98-1.45-5.9-2.08l-21.16-6.86c-.27-.39.24-1.08.86-.88l23.98,7.75Z"/>
  <path class="cls-14" d="M511.13,373.6c-.44.9-.6,3.54-1.7,4.44-1.98.98-3.49-1.94-3.5-3.45l5.2-.99Z"/>
  <path class="cls-6" d="M425.19,415.19l-21.3,4.3c-28.83,1.89-57.24-3.8-82.47-17.38-8.95-4.82-16.86-10.42-22.78-18.24-7-9.23-6.07-20.7,2.7-28.27,11.41-9.83,27.93-11.29,42.56-13.52,6.99-1.06,12.96-.43,20.01,0,23.56,1.42,46.49,7.54,66.71,19.47,8.06,4.75,14.87,10.53,19.49,18.51,4.03,6.97,3.3,15.53-2.07,21.49-6.04,6.7-13.58,11.76-22.86,13.64ZM415.57,412.89c9.15-1.53,16.48-4.76,23.23-9.42,8.77-6.06,10.75-16.81,4.46-25.58-6.63-9.25-15.98-15.62-26.7-20.34-63.59-27.98-134.34-7.11-114.03,23.4,3.89,5.84,9.16,10.61,15.76,14.44,28.92,16.82,63.69,23.12,97.29,17.5Z"/>
  <path class="cls-1" d="M483.92,355.23c-.3,1.17-.98,1.61-2.23,1.82-10.33,1.72-20.35,1.74-30.72.41-.73-.09-1.09-.9-1.1-1.33l5.11-2.47,14.92-3.97c5-.02,9.97,3.96,14.02,5.53Z"/>
  <path class="cls-1" d="M506.71,339.39c.16,1.79-1.12,3.04-3.57,4.03l7.15,4.37c1.63,1,.08,3.45-.88,4.55-1.01,1.16-2.88,1.61-4.2,1.88-3.36-1.89-6.89-3.43-10.57-3.96-2.13-.31-4.41-.64-5.87-2.45l3.97-.8c1.19,1.74,3.94,2.54,6.35,2.09,1.47-.27,3.41-2.3,3.83-4.62l-4.28-1.44c1.83-2.77,4.74-3.16,8.07-3.65Z"/>
  <path class="cls-5" d="M447.87,349.54c2.8.54,5.55,1.48,7.11,4.13l-5.11,2.47c-3.79,1.83-18.14,2.01-15.76-3.75l.97-.65,9.83-2.19c.86-.19,2.1-.18,2.96-.01Z"/>
  <path class="cls-6" d="M505.21,354.23c-1.12,4.88-11.27,4.95-16.55,1.52,2.4-3.09,6.71-2.15,5.98-5.48,3.68.54,7.21,2.07,10.57,3.96Z"/>
  <path class="cls-13" d="M456.02,319.05c-1.4,5.2-4.98,8.16-9.23,11.38-2.07,1.57-3.56,3.79-6.5,3.36-5.06-3.68-12.37-7.56-16.44-13.68-.57-1.68.62-3.1,2.23-4.52l12.36-10.54,17.57,13.99Z"/>
  <path class="cls-11" d="M492.74,347l5.89-3.97,4.28,1.44c-.41,2.32-2.36,4.35-3.83,4.62-2.41.44-5.16-.36-6.35-2.09Z"/>
  <path class="cls-9" d="M361.65,205.01c2.4,2.74.45,9.9,2.25,19.39.06.3.13.72.08,1-.44.29-.77.73-.89,1.26-2.01,2.94-6.57,3.5-8.01,8.19-.42-.05-.9-.06-1.35.07-.59.18-.87.82-1.01,1.46l-.16.96c.11,1.35-1.41,2.75-2.09,2.26l-2.91-2.1-12.75,4.48c-18.99,6.68-39.24,10.06-59.62,9.97l-.87-22.28c.25-.96,1.05-1.74,2.52-1.73l11.51.13-.15,21.33h1.5s.16-12.01.16-12.01c.05-3.48.15-6.55,1.06-9.65,18.86-2.41,37.35-5.81,54.87-13.34,5.59-2.4,10.93-5.62,15.86-9.4Z"/>
  <path class="cls-6" d="M383.12,262.2c-1.3-.26-4.31.41-4.06,2.1.37,2.53,3.5,2.2,5,1.91l1.89.29-.03,2.21-4.75.93c.03-.58-.03-1.42-.32-1.71-.6-.61-1.55-.67-2.78-.37-30.14,7.33-60.69,5.67-90.45-2.8-4.82-1.37-10.67-.11-13.83-4.2,6.97.13,11.73,4.64,21.67,2.03,1.43-.38,2.22.53,3.4.79,25.75,5.55,52.55,5.67,79.28.02-.83-4.48-2.62-8.02-2.32-11.97,1.13-.27,1.92-1.31,2.68-2.42,2.97,3.59,3.15,8.82,4.62,13.18Z"/>
  <path class="cls-5" d="M368.2,233.83c-.91,3.17-2.22,6.26-5.61,8.47l11.1,3.39c-.38-1.84-.05-3.54.83-4.14.72-.5,2.56-.01,3.38.26l.37,5.29-4.43-.75,1.02,5.32c-6.06,1.43-12.65-.09-18.05-3.15-.14-3.24,3.95-2.88,6.29-5.89-2.88-.63-5.79-.89-7.51-2.82-1.1-1.24-.55-3.8-.51-4.96,1.44-4.69,6-5.26,8.01-8.19.25-.37.79-.74.89-1.26.05-.28-.02-.7-.08-1,1,.29,1.51,1.03,1.86,1.88.31.75-.48,2.55-.49,3.35.85,1.41,2.9,2.44,2.93,4.2Z"/>
  <path class="cls-2" d="M383.02,210.62l3.09,1.17c-3.11,3.49-5.41,7.19-7.1,11.33l-9.01-7.81.93-6.92c4.14-.22,8.26.77,12.09,2.23Z"/>
  <path class="cls-1" d="M377.88,236.75l.02,5.06c-.83-.27-2.66-.75-3.38-.26-.88.6-1.21,2.3-.83,4.14l-11.1-3.39c3.39-2.22,4.7-5.3,5.61-8.47l.42.09,9.27,2.84Z"/>
  <path class="cls-3" d="M404.12,260.28c-4.05,2.39-8.46,4.6-11.95,8.38-1.36,1.47-2.47,2.83-4.36,2.79-.33-1.13-.87-2.11-1.9-2.73l.03-2.21c5.92.92,9.77-6.91,17.04-10,.65,1.16,1.1,2.4,1.13,3.77Z"/>
  <path class="cls-10" d="M379.01,223.12l-.2,2.36h-8.97c-2.16-3.07-2.75-7.83.16-10.17l9.01,7.81Z"/>
  <path class="cls-4" d="M378.98,205.56l10.67,2.21c-.07.3.07.85-.13,1.17-.74,1.2-4.92.87-6.43.07-3.08-1.63-6.71-2.13-10.15-2.65-.55.19-1.5.3-1.98-.46-.32-.52.35-1.17.58-1.58l7.44,1.24Z"/>
  <polygon class="cls-4" points="377.88 236.75 368.62 233.91 377.86 230.55 377.88 236.75"/>
  <path class="cls-9" d="M368.43,209.37c.89.39,1,4.11.01,6.01-.42.81-1.72,1.57-2.75.55-1.13-1.12-.72-6.21-.14-6.59s2.26-.24,2.87.03Z"/>
  <path class="cls-9" d="M378.92,202.1l.06,3.46-7.44-1.24c.39-.71.43-2.1.51-2.9,2.38-.13,4.7-.16,6.87.68Z"/>
  <path class="cls-6" d="M383.09,209.01l-.08,1.61c-3.83-1.45-7.94-2.45-12.09-2.23l2.02-2.03c3.44.52,7.07,1.02,10.15,2.65Z"/>
  <path class="cls-8" d="M383.12,262.2c.41,1.21,1.76,2.37.94,4.01-1.5.29-4.63.62-5-1.91-.25-1.69,2.76-2.36,4.06-2.1Z"/>
  <path class="cls-8" d="M378.26,247.09c.04.52-.1,1.53.23,1.93-.76,1.12-1.55,2.16-2.68,2.42l-.96.23-1.02-5.32,4.43.75Z"/>
  <path class="cls-10" d="M406.18,260.58l-2.06-.31c-.03-1.37-.48-2.6-1.13-3.77s-.73-2.47-.42-3.96c2.26,2.51,2.32,5.29,3.61,8.03Z"/>
  <path class="cls-6" d="M493.28,327.91c-30.78-.44-58.26-26.97-74.59-51.21-12.34-18.32-25.14-49.77-13.58-68.09,5.84-9.26,17.33-12.18,27.77-10.29,14.14,2.56,26.39,8.97,37.92,17.14l4.92,4.16c23.35,19.74,47.93,57.26,42.49,88.2-2.09,11.89-11.96,20.29-24.93,20.1ZM490.31,322.59c13.82.79,23.92-9.19,24.68-22.25.63-10.77-1.89-20.86-6.16-30.97-10.46-24.72-28.64-45.47-51.75-59.04-8.58-5.04-17.42-7.82-27.12-8.5-13.24-.93-23.61,8.28-24.46,21.66-.69,10.74,2.01,20.89,6.41,30.97,10.62,24.3,28.26,45,50.78,59.02,8.39,5.22,17.3,8.52,27.62,9.1Z"/>
  <path class="cls-7" d="M406.18,260.58c11.53,24.65,28.67,39.53,29.89,42.51-5.39.36-9.53,8.86-17.08,12.52-5.41-1.97-7.04-8.52-11.73-11.64l-1.89-2.78c-.78-1.14-1.96-2.53-3.06-3.26-.69-3.03-2.46-7.6-6.06-8.54-1.04-5.84-6.26-10.57-8.44-17.94,1.89.04,3-1.32,4.36-2.79,3.48-3.79,7.89-5.99,11.95-8.38l2.06.31Z"/>
  <path class="cls-3" d="M436.07,303.09c.29.72,1.7,1.42,2.38,1.96l-12.36,10.54c-1.62,1.42-2.8,2.85-2.23,4.52l-24.81,5.62.7-7.13c1.22-.43,2.54-1.16,3-2.06.64-1.22.44-3.37-.47-4.09-1.08-.86-3.31-1.43-5.25-.69-3.29,1.25-3.25,5.82-3.04,8.86-1.32.46-2.64.74-4.07.79,1.91-3.87,3.04-8.09,3.02-12.71l-3.68-1.07c-.06-.24-.37-1.76,0-1.66l2.61.66c3.93-.27,7.6-1.44,11.02-.83-.04,2.35,2.32,4.25,2.98,6.72l2.11,8.01,8.22-1.63c1.1-.22,2.06-.41,2.55-1.17.35-.55.34-1.48.23-2.12,7.55-3.66,11.69-12.16,17.08-12.52Z"/>
  <path class="cls-6" d="M381.62,202.03c1.75,2.33,4.67,2.75,7.41,2.48l.93-.09.89,1.85-1.19,1.51-10.67-2.21-.06-3.46c.73.28,1.93-.02,2.7-.07Z"/>
  <path class="cls-1" d="M393.97,204.57c-.91.82-1.66,1.71-3.12,1.69l-.89-1.85c-.24-1.19,1.18-3.51,2.96-2.85l1.05,3.01Z"/>
  <path class="cls-1" d="M390.27,198.72c-.94.9-1.38,2.87-4.05,3.49l2.81,2.29c-2.74.27-5.66-.15-7.41-2.48.82-.4,1.64-.96,1.94-1.58.42-.86-.03-2.18-.58-3.17l-1.48-2.67c3.54-.76,6.24,1.67,8.77,4.12Z"/>
  <path class="cls-10" d="M390.27,198.72c-2.54-2.45-5.23-4.88-8.77-4.12-2.27-4.1,9.81-1.81,11.34.7,1.37,2.24-1.77,2.66-2.56,3.42Z"/>
  <path class="cls-9" d="M283.08,188.03v23.58c-12.75.34-25.47-1.31-37.98-3.68-2.62-1.32-6.02-2.76-9.24-3.54l.22-15.91c-1.72-2.04-2.42-4.24-1.75-6.81l15.95,3.19c11.14,2.23,22.01,3.55,32.8,3.17Z"/>
  <path class="cls-9" d="M301.96,187.39l1.03-.1c.42.89-.92,1.6-1.03.1Z"/>
  <path class="cls-9" d="M298.94,187.47l1.05-.07c.18,1.11-1.11,1.24-1.05.07Z"/>
  <path class="cls-4" d="M214.2,203.15c1.03,1.11,3.3,2.16,4.85,2.16,1.88,9.47,12.77,8.18,19.99,9.58l9.74,1.88c26.83,4.11,53.48,2.27,79.44-3.99-14.29,5.58-29.31,8.23-45.25,8.61-26.66.65-52.67-1.99-75.93-15-1.67-.93-2.44-1.58-2.92-3.12l4.31,1.47c1.83.6,4.22-.71,5.76-1.58Z"/>
  <path class="cls-10" d="M224.9,205.28c4.83-.02,8.22,4.58,12.63,6.49l1.51,3.11c-7.22-1.39-18.1-.11-19.99-9.58l5.85-.02Z"/>
  <path class="cls-3" d="M235.86,204.39c3.21.78,6.61,2.22,9.24,3.54-2.37,1.83-5.46,1.55-7.57,3.84-4.41-1.91-7.8-6.51-12.63-6.49l.34-3.16c2.5,2.27,7.48,1.51,10.62,2.27Z"/>
  <path class="cls-3" d="M274.31,229.68l.87,22.28c20.39.09,40.63-3.29,59.62-9.97l-.71,7.41c-.09.82.34,1.3,1.11,1.35-7.4,3.1-15.49,6.1-23.96,6.89l-24.36,2.29c2.8,2.24,5.92,1.98,8.57,2.68-9.93,2.61-14.7-1.89-21.67-2.03l-13.43-1.85c1.15-.72.77-1.57.77-1.95-.02-1.31-4.7-2.72-9.23-3.24-.27,1.44,1.68,2.89,2.09,3.81l-.04,14.19c-2.04-.61-3.26-1.1-4.72-.98-2.63-1.28-4.15-4.02-4.4-6.9,3.16,1.27,4.63-5.56,3.79-9.37-.29-1.32-1.79-3.48-3.64-1.7-.94.91-.11,3.76-.14,4.91-2.48-1.7-5.33-2.14-9.37-2.07l-.49,7.82c1.03.38,1.6.17,2.04.17-3.12,1.48-2.37,6.04-1.96,8.89-.25.45-1.2,1.37-.88,1.72.45.49,2.19.45,2.78.42l3.36-.16c.6-.03,1.07-.98.7-1.88l3.21.13c-.16.5-.25,1.06-.11,1.46.26.72,1.81.89,2.88.51,3.17-.61,6.55-.36,7.14,2.54l-19.01.48c-.95,2.6-2.54,4.46-3.84,6.12-2.66-8.65.88-15.4-2.32-16.36,1.91-1.86,3.36-4.68,4.03-7.72-2.02.06-3.81.06-5.05-.74-.89-.58.03-3.99-.98-4.32-2.22-.54-2.4,4.33-1.68,5.76l-3.12,4.25c-1.76-.05-3.66-.49-4.38-2.3,1.44-2.11,3.17-8.29.6-9.83-8.47-3-15.68-7-21.65-13.76-1.69-1.92-3.94-3.58-3.93-6.21,3.82.36,6.89,3.03,10.76,4.53l21.59,8.37,31.95,6.16h1.93s12.95-.19,12.95-.19l.29-21.47,2.04-.13Z"/>
  <path class="cls-14" d="M272.27,229.82l-.29,21.47-12.95.19-.07-24.06,10.08.43c1.58.07,2.7,1.05,3.22,1.98Z"/>
  <polygon class="cls-13" points="258.97 227.41 259.03 251.47 257.11 251.47 256.97 227.36 258.97 227.41"/>
  <path class="cls-13" d="M290.92,227.75c-.91,3.1-1.01,6.17-1.06,9.65l-.16,12.01h-1.5s.15-21.33.15-21.33l2.57-.33Z"/>
  <path class="cls-1" d="M192.06,231.76l.75.66c-.01,2.63,2.24,4.3,3.93,6.21,5.97,6.76,13.18,10.76,21.65,13.76,2.57,1.54.84,7.71-.6,9.83l-1.45,2.13c-.64-1.75-1.89-2.84-3.66-3.63-9.45-4.2-22.61-12.36-23.09-21.74l-7.33-5.78c-1.96-1.54-3.38-3.29-2.97-5.49,4.49,1.19,8.75,2.05,12.77,4.05Z"/>
  <path class="cls-3" d="M185.06,225.85c1.22-.52,1.95-1.32,4.01-1.53-.64,4.16,2.26,4.95,3,7.44-4.02-2-8.28-2.87-12.77-4.05l-5.03-1.33.2-2.76,10.59,2.23Z"/>
  <path class="cls-9" d="M141.28,292.94c.39,3.04.46,5.86-.1,8.75l-24,8.9c-3.18,1.18-5.37.66-8.36.35l5.12-.82-.55-19.38,27.9,2.2Z"/>
  <path class="cls-6" d="M162.97,221.71l11.49,1.9-.2,2.76c-26.11-4.25-52.47-3.21-77.46,5.59-12.63,4.45-27.02,12.69-26.78,24.91.25,12.67,21.01,21.97,35.53,25.38,28.91,6.78,59.36,5.81,87.44-3.58,9.25-3.09,17.3-7.29,23.36-14.32l1.45-2.13c.71,1.81,2.62,2.25,4.38,2.3-6.1,7.1-14,12.93-23.68,16.56-30.23,11.34-63.48,12.43-95.1,4.99-11.44-2.69-21.73-8.27-30.58-15.12-8.96-6.93-10.45-18.43-2.56-26.53,4.61-4.73,10.26-8.72,16.46-11.33,14.53-6.12,29.09-9.59,44.86-11.17l31.4-.2Z"/>
  <path class="cls-13" d="M231.29,283.66c-.52.68-.64,1.99-1.59,2.86l-3.39,3.11c1.74,1.31,3.09.65,4.5.75-.04,2.02.49,3.96,1.15,5.87-1.08-.21-2.92-.39-3.91.21-7.93-6.39-9.4,3.53-17.5,1.58-14.92-3.59-29.83-3.28-44.83-1.21l-14.39,1.99c.2-.85.11-1.49-.23-1.91-.65-.78-1.56-.86-2.72-.38-2.04.85-3.27,2.04-3.3,4l-3.9,1.14c.57-2.89.49-5.71.1-8.75l35.51-2.78c11.4-2.12,21.7-5.55,32-9.29,7.75-2.82,14.18-7.72,20.19-13.57,3.2.97-.34,7.71,2.32,16.36Z"/>
  <path class="cls-10" d="M228.97,267.29c-6,5.85-12.44,10.76-20.19,13.57-.21-.91-.03-2.06.94-2.64,7.72-4.63,17.99-13.19,15.57-17.96-.73-1.44-.54-6.3,1.68-5.76,1,.33.08,3.74.98,4.32,1.23.8,3.02.81,5.05.74-.66,3.05-2.12,5.86-4.03,7.72Z"/>
  <path class="cls-1" d="M213.41,196.17c-1.29.95-2.52.78-3.64,2.23l4.43,4.75c-1.54.88-3.93,2.18-5.76,1.58l-4.31-1.47c-3.17-10.31-14.8-15.03-8.43-21.32l4.71,5.11,13.01,9.11Z"/>
  <path class="cls-11" d="M225.24,202.12l-.34,3.16-5.85.02c-1.55,0-3.82-1.05-4.85-2.16l-4.43-4.75c1.12-1.46,2.35-1.29,3.64-2.23,3.55,2.49,8.37,2.81,11.83,5.95Z"/>
  <path class="cls-5" d="M299.93,310.39c1.29,5-9.7,5.55-16.73,2.75l-19.49-7.77-21.96,7.11c-2.96-1.17-5.43-3.65-7.73-5.91,2.28-1.42,5.22-1.3,8.1-2.05l22.18-5.82,35.63,11.68Z"/>
  <path class="cls-10" d="M268.78,294.27c1.64.4,4.5-.2,5.85.75,4.73,3.36,10.84,4.21,16.46,5.49,2.86,3.41,7.54,4.69,11.88,5.14.49,1.25,1.57,1.58,2.72,1.65l-.66,2.12c-1.4.28-2.82.31-4.22.02-6.86-3.85-14.88-4.58-22.68-7.32l-13.22-4.65c-2.6-.92-5.55.38-7.89,1.05,1.88-1.76,3.64-3.66,3.21-6.33l8.55,2.09Z"/>
  <path class="cls-1" d="M325.07,316.45l-2.17,1.07c-2.86-3.64-11.46-3.74-17.86-8.11l.66-2.12c3.92.24,7.47,2.48,11.46,3.91l10.11,3.61-2.2,1.63Z"/>
  <path class="cls-4" d="M300.82,309.44c-.15.42-.46.75-.89.95l-35.63-11.68-22.18,5.82c-2.88.75-5.82.64-8.1,2.05l-2.3-.91,25.3-7.16c2.34-.66,5.29-1.96,7.89-1.05l13.22,4.65c7.8,2.75,15.82,3.47,22.68,7.32Z"/>
  <path class="cls-6" d="M221.9,357.31c-23.82,19.89-58.69,30.08-89.79,30.54l-15.13-2.11c-10.38-1.45-20.02-4.53-28.18-10.94s-11.31-17.36-6.44-27.19c3.18-6.43,7.33-12.21,13.1-16.97,20.54-16.97,45.37-26.7,72.02-29.71l29.48-.28,13.19,2.68c8.31,1.69,15.59,5.55,21.71,11.18,13.29,12.21,4.26,30.93-9.96,42.81ZM223.61,349.09c5.12-5.07,9.11-12.43,8.87-19.66-.5-15.01-20.27-23.47-35.5-25.27-30.47-3.59-60.55,3.53-86.79,19.29-13.59,8.16-29.06,23.81-24.43,38.4,9.72,30.66,97.06,27.63,137.85-12.77Z"/>
  <path class="cls-1" d="M259.04,292.26l1.19-.07c.43,2.67-1.33,4.57-3.21,6.33l-25.3,7.16c-1.32-.52-2.51-.97-2.79-1.96-.48-1.76-.12-3.03.28-4.39,1.75-.19,3.04-1.74,3.96-2.64l4.77-1.1c3.58.99,9.81-.71,10.22-3.27.12-.78,1.55-1.17,2.72-1.03l8.14.97Z"/>
  <path class="cls-4" d="M231.96,296.26l1.22.42c-.92.91-2.21,2.45-3.96,2.64-2.91.32-5.77,1.74-9.61.98,2.5-2.76,5.8-2.23,8.44-3.83,1-.6,2.83-.43,3.91-.21Z"/>
  <path class="cls-7" d="M151.32,298.84l-6.25,1.71c.03-1.96,1.26-3.14,3.3-4,1.16-.49,2.07-.4,2.72.38.34.42.43,1.06.23,1.91Z"/>
  <path class="cls-4" d="M267.92,356.11c-3.06,1.65,1.78,1.65,7.02,4.44-2.27,1.76-10.49-1.18-12.52-4.16,2.12-.39,3.62-.55,5.5-.28Z"/>
  <path class="cls-13" d="M389.26,307.64l3.68,1.07c.01,4.62-1.12,8.84-3.02,12.71l-3.14.1-1.81-5.37c-.21-.6.34-2.25-.57-2.67-1.45-.66-2.18.25-3.18,1.1-2.88,2.46-4.22,4.4-2.74,7.83-6.17.67-13.28,1.16-19.41-.76.21-1.3-.09-2.85-.71-2.99s-1,.15-1.22.42-.39,1.83-.71,2.02c-4.31,2.55-9.18-3.83-15.49-3.84l4.95-11.94,15.04,1.85,28.35.45Z"/>
  <path class="cls-13" d="M399.75,318.6l-5.76,2.03c-.21-3.05-.25-7.61,3.04-8.86,1.94-.74,4.17-.18,5.25.69.91.72,1.1,2.87.47,4.09-.47.9-1.78,1.63-3,2.06Z"/>
  <path class="cls-3" d="M386.77,321.52l-8.3.9c-1.49-3.43-.15-5.37,2.74-7.83,1-.85,1.74-1.77,3.18-1.1.91.42.36,2.07.57,2.67l1.81,5.37Z"/>
  <path class="cls-14" d="M319.45,273.71l-.26,18.79c-.02,1.6-1.76,2.45-2.64,2.34-.96.46-1.97.69-2.79.57l-16.55-2.35c-3.94-.56-7.84-2.19-12.06-1.62l-1.35.18c-.13-1.26-1.1-4.57-2.82-4.52-3.61,2.31-7.16-1.58-9.96-.63-1.13-1-2.62-2.46-3.97-2.89-1.2-2.42-1.01-5.2-1.01-8.18l.13-13.55c17.11,6.57,35,10.4,53.27,11.84Z"/>
  <path class="cls-4" d="M316.55,294.85c6.29,3.59,13.5,4.2,20.2,6.15,12.91,3.75,26.17,4.89,40.19,4.45,7.48-.23,14.81.38,21.19-3.02.69-.37,2.03-.1,2.76-.24-.12.39-.13,1.22.13,1.58.49.67,1.48.91,2.22.86l-.36,1.17c-3.42-.61-7.08.56-11.02.83l-2.61-.66c-.38-.1-.06,1.42,0,1.66l-28.35-.45-15.04-1.85-12.26-1.95-19.84-7.96c.82.12,1.83-.11,2.79-.57Z"/>
  <path class="cls-8" d="M297.21,293.07c-.03,2.61-1.26,6.44.37,8.88,1.1,1.64,4.68,1.87,5.38,3.69-4.35-.45-9.02-1.73-11.88-5.14.55-.79,1.44-.99,2.26-.88l.65-.94-8.08-3.22c-1.09-.43-2.28-1.23-1.99-2.41.13-.52.78-1.19,1.22-1.6,4.22-.57,8.12,1.06,12.06,1.62ZM294.63,299.22l-1.05.92c.73,1.03,1.95-.07,1.05-.92Z"/>
  <path class="cls-2" d="M444.91,349.56l-9.83,2.19c-.12-2.63,7.46-4.38,9.83-2.19Z"/>
  <path class="cls-2" d="M415.57,412.89c-33.6,5.62-68.37-.67-97.29-17.5-6.6-3.84-11.87-8.6-15.76-14.44-20.31-30.51,50.44-51.37,114.03-23.4,10.73,4.72,20.08,11.09,26.7,20.34,6.28,8.77,4.31,19.52-4.46,25.58-6.75,4.66-14.07,7.89-23.23,9.42ZM336.97,359.5c-.6.41-.85,1.43-1.06,2.07-.82.22-1.9.49-2.38,1.02-2.54,2.8,7.03,8.05,9.47,8.48l.03,1.83c-3.88.8-8.53,1.35-12.69,2.94-3.39,1.29.22,8.1,1.24,8.39.84.24,1.6-.59,2.28-1.08l.18,1.47c-1.3,1.23-.99,3.69.99,4.73,5.01,2.62,10.65,2.5,16.14,1.26l19.77-4.48,16.25,11.01c7.12,4.83,17.36,6.54,17.87,1.43l2.2-.62c2.39-.67,6.39-3.05,5.67-6.39-.6-2.79-4.53-4.21-6.58-5.42l-5.67-3.34-.09-1.08c5.21-.39,10.51-.25,15.54-2.25,1.76-.7.41-3.9-1.3-4.46-.01-.58.12-1.17.39-1.68-4.38-8.25-13.63-11.76-23.39-10.9-5.58.49-11.15,3.1-16.7,2.51-3.73-.7-7.45-4.09-10.67-6.02-9.01-5.38-19.1-5.07-27.5.6Z"/>
  <path class="cls-8" d="M355.08,234.85c-.04,1.16-.59,3.73.51,4.96,1.71,1.92,4.63,2.18,7.51,2.82-2.34,3.01-6.43,2.64-6.29,5.89-.74-.42-2.1-.2-2.94-.16-2.47-2.45-6.02-3.49-9.79-4.88-1.74,4.42-5.25,5.74-8.88,7.26-.77-.05-1.2-.53-1.11-1.35l.71-7.41,12.75-4.48,2.91,2.1c.68.49,2.21-.91,2.09-2.26,1.17.58,2-.88.16-.96.14-.64.42-1.28,1.01-1.46.45-.13.93-.12,1.35-.07Z"/>
  <path class="cls-5" d="M352.56,237.34l.16-.96c1.84.07,1,1.54-.16.96Z"/>
  <path class="cls-7" d="M363.09,226.66c.13-.53.46-.97.89-1.26-.1.52-.64.89-.89,1.26Z"/>
  <path class="cls-2" d="M356.81,248.52c5.4,3.06,11.99,4.58,18.05,3.15l.96-.23c-.31,3.95,1.49,7.5,2.32,11.97-26.73,5.65-53.53,5.53-79.28-.02,16.32-2.16,32.74-5.42,48.75-11.26,2.58-.94,4.91-1.9,6.27-3.77.84-.04,2.2-.26,2.94.16Z"/>
  <path class="cls-4" d="M273.79,260.58c3.16,4.09,9.01,2.83,13.83,4.2,29.76,8.46,60.31,10.12,90.45,2.8,1.23-.3,2.18-.24,2.78.37.29.29.35,1.13.32,1.71l-3.92,1.54-25.9,2.95-12.71.16-9.69-.09-7-.13-2.49-.37c-18.27-1.44-36.16-5.27-53.27-11.84l-5.82-3.14,13.43,1.85Z"/>
  <path class="cls-11" d="M353.87,248.36c-1.37,1.86-3.69,2.83-6.27,3.77-16.01,5.84-32.42,9.1-48.75,11.26-1.18-.25-1.98-1.16-3.4-.79-2.65-.71-5.77-.44-8.57-2.68l24.36-2.29c8.48-.8,16.56-3.79,23.96-6.89,3.63-1.52,7.14-2.84,8.88-7.26,3.78,1.39,7.32,2.43,9.79,4.88Z"/>
  <path class="cls-8" d="M387.81,271.45c2.18,7.37,7.4,12.1,8.44,17.94-2.03,2.11-4.5,1.27-10.36,2.11l-4.04.58c.33-2.31-.95-4.03-1.41-6.12l-3.19-14.76,3.92-1.54,4.75-.93c1.03.62,1.56,1.6,1.9,2.73Z"/>
  <path class="cls-2" d="M490.31,322.59c-10.32-.59-19.23-3.88-27.62-9.1-22.53-14.02-40.16-34.72-50.78-59.02-4.41-10.08-7.1-20.23-6.41-30.97.86-13.38,11.23-22.59,24.46-21.66,9.71.68,18.54,3.46,27.12,8.5,23.11,13.57,41.29,34.32,51.75,59.04,4.28,10.11,6.79,20.2,6.16,30.97-.76,13.06-10.86,23.04-24.68,22.25ZM445.79,223.56c-1.05-.11-2.31-.33-3.28-.07-1.47.39-2.17,2.11-1.66,3.87l2.95,10.08c.09.32-.03.97-.29,1.61-3.81-1.7-8.01-4.93-12.6-5.43-3.9-.42-5.71,5.25-5.9,7.86l.83,1.98c-3.69,3.99,2.15,11.25,6.5,13.42l20.87,10.42,4.15,17.65c1.34,5.69,4.13,10.76,8.79,14.18l4.69-.73,1.1.19c2.17.37,6.86.96,8.5-1.65,3.52-5.59-5.18-18.42-5.71-29.98,6.05,1.24,10.34,3.92,14.59,8.04,1.1,1.06,3.01,1.5,2.48,3.51-3.84-4.4-8.64-7.43-15.03-9,.82,3.66.57,8.24,2.87,11.36,1.91,2.59,11.89,8.37,14.21,6.97.79-.48,1.63-2.15,1.07-3.39l-2.3-5.24c1.65.33,2.32,1.55,3.62,3.74,4.98-10.67-2.07-20.22-12.82-26.09l-12.22-6.67-4.4-16.66c-3.43-7.32-10.46-11.98-17.95-10.15-.37-.55-.97-.87-1.33-.69l-1.74.88Z"/>
  <path class="cls-8" d="M407.26,303.97c4.69,3.12,6.31,9.67,11.73,11.64.1.64.12,1.57-.23,2.12-.49.76-1.45.95-2.55,1.17l-8.22,1.63-2.11-8.01c-.65-2.47-3.01-4.37-2.98-6.72l.36-1.17,4.01-.66Z"/>
  <path class="cls-11" d="M402.31,297.93c-1.73.15-3.27.49-4.48,1.49h-1.96c-1.47-2.8-4.53-4.45-7.67-3.99-.77-1.33-1.8-2.41-2.3-3.94,5.86-.84,8.32,0,10.36-2.11,3.59.94,5.36,5.51,6.06,8.54Z"/>
  <path class="cls-3" d="M402.31,297.93c1.1.73,2.28,2.12,3.06,3.26l-4.48,1c-.73.14-2.07-.13-2.76.24l-.3-3.01c1.21-1.01,2.75-1.35,4.48-1.49Z"/>
  <path class="cls-10" d="M405.37,301.19l1.89,2.78-4.01.66c-.74.05-1.74-.19-2.22-.86-.26-.36-.25-1.19-.13-1.58l4.48-1Z"/>
  <path class="cls-2" d="M357.18,161.73c-26.01,20.72-75.27,22.59-107.95,15.63-17.28-3.68-43.01-13.81-42.84-30.29.17-15.31,23.93-25.6,40.03-29.56,27.6-6.8,56.15-6.73,83.63.61,14.72,3.93,35.75,13.66,35.98,28.3.1,6.34-4.1,11.54-8.85,15.33ZM244.67,133.29c-.44.4-.62,1.54-.69,2.16-1.03.27-1.89.93-2.19,1.65-1.11,2.63,7.65,6.07,11.25,6.11l-.27,2.1c-3.59,1.26-9.06,1.77-12.1,4.8-2.2,2.19.9,6.25,2.89,8.14,1.44-1.59,3.18-2.71,5.27-3.35l.1,1.3c-1.14.52-4.39,3.28-3.35,4.82,3.43,4.21,10.24,3.77,15.13,1.98l24.36-8.93,19.81,8.39c5.1,2.16,11.63,3.32,16.62.42,2.08-1.21.06-4.89-1.4-5.37l-.02-1.56c1.64.54,2.72,1.76,4.48,3.44,2.42-.43,7.3-5.79,4.97-8.37-2.75-3.05-8.28-3.91-11.61-5.14l-.13-1.89c6.32-1.52,14.15-3.29,14.22-6.05.02-.9-1.09-2.05-2.15-2.34-.06-.77-.29-1.76-.73-2.34-5.65-7.28-14.91-8.91-24.23-7.03l-19.78,5.99-14.47-5.62c-9.45-3.67-18.86.24-25.99,6.69Z"/>
  <path class="cls-7" d="M260.36,258.73l5.82,3.14-.13,13.55c0,2.98-.19,5.76,1.01,8.18-4.66-1.47-8.74-4.04-12.93-6.54-.6-2.9-3.97-3.14-7.14-2.54-1.06.38-2.62.21-2.88-.51-.14-.4-.05-.96.11-1.46,2.04.08,4.47.37,5-1.97,1.46-.13,2.67.37,4.72.98l.04-14.19c-.41-.92-2.37-2.37-2.09-3.81,4.54.52,9.22,1.93,9.23,3.24,0,.38.38,1.23-.77,1.95Z"/>
  <path class="cls-11" d="M254.13,277.05c4.19,2.5,8.26,5.07,12.93,6.54,1.35.43,2.84,1.89,3.97,2.89l-6.13,2.07c-7.85.07-16.46-9.2-24.14-5.44-.83.41-2.67-.42-3.56.94-.54.83-.98,2.1-1.2,3.3l-1.98,1.24c.09-.26.33-1.34.09-1.65-.71-.93-3.4.51-4.42-.44.95-.87,1.07-2.19,1.59-2.86,1.3-1.66,2.89-3.52,3.84-6.12l19.01-.48Z"/>
  <path class="cls-8" d="M244.68,262.03l.14,1.65c.25,2.88,1.77,5.62,4.4,6.9-.54,2.34-2.97,2.05-5,1.97l-3.21-.13-5.96-.1c-.4-2.85-1.16-7.4,1.96-8.89,2.37-1.13,5.11-1.71,7.67-1.41Z"/>
  <path class="cls-11" d="M244.83,257.52l-.15,4.51c-2.56-.3-5.3.29-7.67,1.41-.44,0-1.01.21-2.04-.17l.49-7.82c4.04-.07,6.89.37,9.37,2.07Z"/>
  <path class="cls-7" d="M244.82,263.67l-.14-1.65.15-4.51c.04-1.15-.8-4,.14-4.91,1.85-1.79,3.35.38,3.64,1.7.85,3.81-.62,10.64-3.79,9.37Z"/>
  <path class="cls-7" d="M241.01,272.42c.37.9-.1,1.86-.7,1.88l-3.36.16c-.59.03-2.33.08-2.78-.42-.32-.35.63-1.27.88-1.72l5.96.1Z"/>
  <path class="cls-2" d="M174.26,226.37l5.03,1.33c-.41,2.2,1.01,3.95,2.97,5.49l7.33,5.78c.48,9.38,13.64,17.54,23.09,21.74,1.78.79,3.02,1.88,3.66,3.63-6.06,7.03-14.12,11.23-23.36,14.32-28.09,9.39-58.53,10.36-87.44,3.58-14.52-3.41-35.28-12.71-35.53-25.38-.24-12.21,14.15-20.46,26.78-24.91,25-8.8,51.36-9.84,77.46-5.59ZM105.73,243.21l.35,1.36c-1.11,0-4.04,1.67-3.26,2.7,2.66,3.57,7.39,3.26,11.1,5.05l.04,1.29c-3.84.97-8.97,1.5-12.37,4.51-2.25,1.99,1.01,8.02,3.33,7.47l2.09-.5c-.33,1.19-.53,2.47.11,3.55,1.67,2.82,9.81,2.37,16.32.07l19.77-6.98,18.17,7.32c8.62,3.47,19.34,3.14,17.98-2.82.39-.02.9-.15,1.4.03,2.49.89,6.64-3.81,4.79-6.32-2.83-3.86-8.44-4.45-12.26-5.42l-.13-2.22c4.44,1.38,10.19-2.23,14.64-4.08.76-1.09-1.35-3.31-2.58-3.48l.03-1.46c-4.33-6.82-12.9-8.36-21.31-6.87l-19.88,6.08-12.08-5.03c-9.2-3.83-19.62-1.01-26.25,5.75Z"/>
  <path class="cls-4" d="M248.17,292.31c-.41,2.56-6.63,4.26-10.22,3.27,2.06-.76,4.19-.6,6.43-1.96-4.71-2.49-9.18-2.9-13.58-3.23-1.41-.1-2.76.55-4.5-.75,3.03-.21,5.71.24,7.72-1.03l1.98-1.24c3.61,2.65,7.66,4.37,12.17,4.95Z"/>
  <path class="cls-14" d="M237.95,295.58l-4.77,1.1-1.22-.42c-.66-1.91-1.2-3.85-1.15-5.87,4.4.32,8.87.74,13.58,3.23-2.24,1.36-4.37,1.2-6.43,1.96Z"/>
  <path class="cls-5" d="M234.03,288.61c-2.01,1.27-4.69.81-7.72,1.03l3.39-3.11c1.02.94,3.71-.5,4.42.44.23.31,0,1.39-.09,1.65Z"/>
  <path class="cls-3" d="M283.81,291.64l-9.18,3.38c-1.34-.95-4.21-.35-5.85-.75.53-3.04-4.66-1.85-3.88-5.71l6.13-2.07c2.8-.95,6.35,2.94,9.96.63,1.72-.05,2.69,3.26,2.82,4.52Z"/>
  <path class="cls-5" d="M264.9,288.56c-.78,3.86,4.42,2.67,3.88,5.71l-8.55-2.09-1.19.07c.25-3.97-6.14-2.95-12.31-6.62-2.04-1.21-3.9-2.15-5.96-2.52,7.67-3.76,16.28,5.5,24.14,5.44Z"/>
  <path class="cls-5" d="M283.81,291.64l1.35-.18c-.44.41-1.1,1.08-1.22,1.6-.29,1.19.9,1.98,1.99,2.41l8.08,3.22.62.54c.9.85-.32,1.96-1.05.92l-.23-.52c-.81-.11-1.71.09-2.26.88-5.62-1.28-11.73-2.13-16.46-5.49l9.18-3.38Z"/>
  <path class="cls-2" d="M223.61,349.09c-40.79,40.39-128.13,43.42-137.85,12.77-4.63-14.59,10.84-30.24,24.43-38.4,26.24-15.76,56.31-22.88,86.79-19.29,15.23,1.8,35,10.26,35.5,25.27.24,7.23-3.75,14.58-8.87,19.66ZM137.62,340.17c.21-.25.48-.94.34-1.23-1.72-3.63-22.85-3.49-23.48,3.11-.1,1.1.87,2.28,2.45,2.56,9.54,1.72,11.26,3.06,19.46-3.88.76.48.56,1.26-.22,1.56l-18.74,12.46c-2.21,1.47-.67,4.7.61,6.11,1.41,1.56,3.21,3.72,5.25,1.71.12-.11.81-.08,1.14.09-.12,1.16-.3,4.09,1.36,4.81,4.07,1.77,8.88.47,12.34-2l21.23-15.19,18.43,4.35c9.86,2.33,20.72.16,18.73-6.14,2.3-.61,3.36-2.35,4.17-4.13.87-1.91,1.27-5.64-1.33-6.17l-28.67-5.92c.2-2.25,2.6-3.26,4.51-2.64-4.52,2.31,9.47,4.94,11.61,3.62l10.51-6.49c1.11-.68,1.55-1.88,1.47-2.71-.44-4.57-14.93-2.82-22.6,4.72,0-1.71.93-2.61,2.66-3.51,5.53-2.88,10.65-5.39,17.3-5-7.08-7.03-17.82-8.17-26.11-2.74l-15.93,10.44-12.9-2.81c-10.49-2.28-20.6,2.95-24.94,12.38,9.29-4.5,23.41-.17,23.78.35s.12,2.39-.5,2.51c-.47.09-1.56-.16-1.92-.21Z"/>
  <path class="cls-10" d="M240.76,283.12c2.06.37,3.92,1.3,5.96,2.52,6.17,3.67,12.57,2.64,12.31,6.62l-8.14-.97c-1.17-.14-2.6.25-2.72,1.03-4.5-.58-8.56-2.3-12.17-4.95.22-1.19.66-2.47,1.2-3.3.88-1.37,2.73-.54,3.56-.94Z"/>
  <path class="cls-7" d="M377.25,271.19l3.19,14.76c.46,2.09,1.75,3.81,1.41,6.12-14.84,3.92-30.28,4.09-45.47,4.85,1.75,1.26.66,2.91.37,4.08-6.7-1.95-13.91-2.56-20.2-6.15.87.11,2.62-.73,2.64-2.34l.26-18.79,2.49.37c.01,1.35.33,3.66,1.63,4.35,1.17.62,2.95-.11,3.95-.93.84-.69,1.43-1.9,1.42-3.29l9.69.09c-1.26,4.23,5.87,8.33,12.23,8.22l.48-8.37,25.9-2.95Z"/>
  <path class="cls-6" d="M356.91,300.81c12.93,1.4,26.14,1.05,38.96-1.38h1.96s.3,3.01.3,3.01c-6.39,3.4-13.71,2.78-21.19,3.02-14.02.44-27.28-.7-40.19-4.45.29-1.17,1.38-2.82-.37-4.08,7.5,2.41,13.94,3.17,20.52,3.89Z"/>
  <path class="cls-1" d="M415.23,373.31c-5.16-1.23-10.52-3.04-16.13-1.62l-11.49,2.91,13.08,8.19,5.67,3.34c2.05,1.21,5.98,2.64,6.58,5.42.72,3.34-3.28,5.72-5.67,6.39-2.54-4.76-7.38-6.39-12.04-8.95l-8.28-4.55-14.96-8.25-24.49,3.81c-4.84.75-9.89.46-13.65,3.14-.69.49-1.44,1.32-2.28,1.08-1.03-.29-4.63-7.1-1.24-8.39,4.16-1.59,8.81-2.14,12.69-2.94l16.64-3.43c-5.49-4.24-10.37-7.55-16.92-9.08-1.66-.39-4.8,1.04-5.79-.88,8.4-5.68,18.49-5.98,27.5-.6,3.22,1.93,6.94,5.32,10.67,6.02,5.56.59,11.12-2.01,16.7-2.51,9.75-.86,19.01,2.65,23.39,10.9Z"/>
  <path class="cls-5" d="M405.07,398.56c-.51,5.12-10.75,3.4-17.87-1.43l-16.25-11.01-19.77,4.48c-5.49,1.24-11.13,1.36-16.14-1.26-1.98-1.04-2.29-3.49-.99-4.73,2.41-1.96,5.54-1.9,8.86-2.36l30.08-4.22,26.94,15.36c2.48,1.41,5.02,2.25,5.15,5.17Z"/>
  <path class="cls-5" d="M414.84,374.99c1.7.56,3.06,3.75,1.3,4.46-5.03,2.01-10.33,1.86-15.54,2.25l-9.46-6.59c8.17-2.41,16.2-2.57,23.71-.12Z"/>
  <path class="cls-5" d="M335.91,361.58c7.37-.48,14.72,2.13,20.25,7.6-4.81.76-9.2,2.57-13.16,1.89-2.45-.42-12.02-5.68-9.47-8.48.48-.53,1.57-.8,2.38-1.02Z"/>
  <path class="cls-4" d="M415.23,373.31c-.26.51-.4,1.1-.39,1.68-7.5-2.45-15.54-2.3-23.71.12l9.46,6.59.09,1.08-13.08-8.19,11.49-2.91c5.6-1.42,10.97.39,16.13,1.62Z"/>
  <path class="cls-4" d="M343.03,372.9l-.03-1.83c3.96.68,8.35-1.13,13.16-1.89-5.54-5.48-12.88-8.08-20.25-7.6.21-.64.46-1.67,1.06-2.07.99,1.92,4.13.49,5.79.88,6.55,1.53,11.43,4.84,16.92,9.08l-16.64,3.43Z"/>
  <path class="cls-4" d="M407.27,397.94l-2.2.62c-.12-2.92-2.67-3.76-5.15-5.17l-26.94-15.36-30.08,4.22c-3.32.47-6.45.4-8.86,2.36l-.18-1.47c3.75-2.69,8.8-2.39,13.65-3.14l24.49-3.81,14.96,8.25,8.28,4.55c4.66,2.56,9.5,4.19,12.04,8.95Z"/>
  <path class="cls-14" d="M351.35,274.15l-.48,8.37c-6.36.12-13.49-3.99-12.23-8.22l12.71-.16Z"/>
  <path class="cls-14" d="M328.94,274.21c0,1.39-.59,2.6-1.42,3.29-1,.82-2.78,1.55-3.95.93-1.3-.69-1.62-2.99-1.63-4.35l7,.13Z"/>
  <path class="cls-1" d="M385.9,291.49c.5,1.53,1.53,2.61,2.3,3.94l-27.36,3.99c-1.55.23-3.47-.53-3.93,1.38-6.59-.72-13.02-1.48-20.52-3.89,15.19-.76,30.63-.93,45.47-4.85l4.04-.58Z"/>
  <path class="cls-1" d="M492.64,279.21c-.28-.06-.63-.49-.82-.7.53-2.01-1.39-2.44-2.48-3.51-4.25-4.12-8.54-6.79-14.59-8.04.53,11.56,9.24,24.38,5.71,29.98-1.64,2.61-6.33,2.02-8.5,1.65.56-4.19-.61-7.99-1.91-12.34l-8.07-26.95c-9.42-4.57-18.54-8.91-26.98-14.99-3.22-2.32-6.27-3.73-9.97-2.83.18-2.61,1.99-8.29,5.9-7.86,4.59.5,8.78,3.73,12.6,5.43s7.33,4.48,12.91,5.44c.09-7.33-1.93-14.84-7.74-20.1-1.12.03-.98-1.26.18-1.01,7.49-1.82,14.52,2.83,17.95,10.15l4.4,16.66,12.22,6.67c10.75,5.87,17.8,15.43,12.82,26.09-1.3-2.2-1.96-3.42-3.62-3.74Z"/>
  <path class="cls-5" d="M470.86,298.4l-4.69.73c-4.66-3.42-7.46-8.49-8.79-14.18l-4.15-17.65-20.87-10.42c-4.35-2.17-10.19-9.43-6.5-13.42,2.7-.41,5.49.19,8.05,1.95,8.58,5.92,17.44,10.64,27.1,15.05l8.78,31.02c.7,2.49,1.35,4.7,1.07,6.92Z"/>
  <path class="cls-5" d="M491.82,278.5c.19.22.54.65.82.7l2.3,5.24c.56,1.24-.28,2.91-1.07,3.39-2.32,1.39-12.3-4.38-14.21-6.97-2.31-3.12-2.06-7.71-2.87-11.36,6.39,1.57,11.2,4.6,15.03,9Z"/>
  <path class="cls-5" d="M445.79,223.56c5.52,4.17,8.47,10.4,8.42,18.5l-10.41-4.63-2.95-10.08c-.51-1.75.19-3.47,1.66-3.87.97-.26,2.23-.04,3.28.07Z"/>
  <path class="cls-4" d="M471.96,298.59l-1.1-.19c.28-2.22-.37-4.43-1.07-6.92l-8.78-31.02c-9.66-4.4-18.52-9.12-27.1-15.05-2.56-1.77-5.35-2.37-8.05-1.95l-.83-1.98c3.7-.9,6.75.51,9.97,2.83,8.44,6.08,17.56,10.42,26.98,14.99l8.07,26.95c1.3,4.34,2.48,8.15,1.91,12.34Z"/>
  <path class="cls-4" d="M448.87,223.37c-1.16-.25-1.3,1.05-.18,1.01,5.81,5.26,7.83,12.78,7.74,20.1-5.58-.96-8.97-3.68-12.91-5.44.25-.64.38-1.29.29-1.61l10.41,4.63c.05-8.1-2.9-14.32-8.42-18.5l1.74-.88c.37-.19.96.14,1.33.69Z"/>
  <path class="cls-2" d="M388.2,295.43c3.14-.46,6.2,1.19,7.67,3.99-12.82,2.43-26.03,2.78-38.96,1.38.46-1.92,2.38-1.16,3.93-1.38l27.36-3.99Z"/>
  <path class="cls-1" d="M329.14,133.26c-9.92-.62-19.32.91-28.85,6.12l17.64,6.49c3.34,1.23,8.86,2.09,11.61,5.14,2.33,2.59-2.55,7.94-4.97,8.37-1.76-1.69-2.85-2.91-4.48-3.44l-17.14-5.62c-5.89-1.93-12.39-6.18-18.56-6.35l-35.56,10.92c-2.09.64-3.83,1.76-5.27,3.35-2-1.89-5.09-5.95-2.89-8.14,3.04-3.03,8.51-3.54,12.1-4.8l17.85-6.27c-8.05-5-17.12-6.94-25.94-5.74,7.13-6.44,16.54-10.36,25.99-6.69l14.47,5.62,19.78-5.99c9.32-1.88,18.58-.26,24.23,7.03Z"/>
  <path class="cls-5" d="M320.11,157.49c1.46.48,3.48,4.17,1.4,5.37-5,2.9-11.53,1.74-16.62-.42l-19.81-8.39-24.36,8.93c-4.89,1.79-11.7,2.23-15.13-1.98-1.03-1.54,2.22-4.3,3.35-4.82,12.27-2.42,23.88-6.49,36.16-11.02l23.24,8.74,11.77,3.58Z"/>
  <path class="cls-5" d="M329.87,135.6c1.06.28,2.17,1.44,2.15,2.34-.07,2.76-7.9,4.53-14.22,6.05-3.94-.08-8.08-2.82-12.88-4.69,6.22-2.92,12.3-4.25,18.98-4.83l5.98,1.14Z"/>
  <path class="cls-5" d="M253.04,143.2c-3.59-.04-12.36-3.48-11.25-6.11.3-.72,1.16-1.38,2.19-1.65,5.89-2.28,15.18-.52,22.38,3.52-4.22,1.71-8.69,4.28-13.33,4.23Z"/>
  <path class="cls-4" d="M320.1,155.94l.02,1.56-11.77-3.58-23.24-8.74c-12.28,4.53-23.89,8.59-36.16,11.02l-.1-1.3,35.56-10.92c6.16.16,12.67,4.41,18.56,6.35l17.14,5.62Z"/>
  <path class="cls-4" d="M252.77,145.3l.27-2.1c4.64.05,9.11-2.52,13.33-4.23-7.2-4.04-16.49-5.8-22.38-3.52.07-.61.25-1.75.69-2.16,8.82-1.21,17.9.73,25.94,5.74l-17.85,6.27Z"/>
  <path class="cls-4" d="M329.14,133.26c.44.57.67,1.57.73,2.34l-5.98-1.14c-6.68.58-12.75,1.92-18.98,4.83,4.8,1.87,8.94,4.61,12.88,4.69l.13,1.89-17.64-6.49c9.53-5.21,18.94-6.74,28.85-6.12Z"/>
  <path class="cls-1" d="M185.25,243.27l-6.28-.79c-7.28.39-13.69,2.53-20.81,6,5.53,2.71,10.01,4.73,15.12,6.03,3.82.97,9.43,1.56,12.26,5.42,1.85,2.52-2.3,7.21-4.79,6.32-1.24-2.23-3.9-3.03-6.55-3.91l-31-10.23-34.03,10.3c-1.97.59-3.61,1.6-4.27,3.16-2.32.56-5.59-5.47-3.33-7.47,3.41-3.02,8.54-3.55,12.37-4.51,5.38-1.35,10.83-2.25,15.85-5.67l-9.24-4.12-6.04-.77c-3.26-.42-6.13-.93-8.79.17,6.63-6.76,17.04-9.58,26.25-5.75l12.08,5.03,19.88-6.08c8.41-1.49,16.98.05,21.31,6.87Z"/>
  <path class="cls-5" d="M179.36,266.23c1.36,5.96-9.36,6.29-17.98,2.82l-18.17-7.32-19.77,6.98c-6.51,2.3-14.65,2.75-16.32-.07-.64-1.09-.44-2.36-.11-3.55l37.81-11.16,30.43,10.19,4.11,2.11Z"/>
  <path class="cls-5" d="M185.22,244.73c1.22.17,3.33,2.39,2.58,3.48-4.44,1.85-10.19,5.47-14.64,4.08l-11.43-3.56c7.82-4.01,15.55-5.12,23.49-4.01Z"/>
  <path class="cls-4" d="M180.76,266.26c-.51-.18-1.01-.05-1.4-.03l-4.11-2.11-30.43-10.19-37.81,11.16-2.09.5c.66-1.56,2.3-2.57,4.27-3.16l34.03-10.3,31,10.23c2.65.87,5.31,1.67,6.55,3.91Z"/>
  <path class="cls-5" d="M113.92,252.32c-3.71-1.78-8.44-1.48-11.1-5.05-.77-1.04,2.15-2.71,3.26-2.7l11.78.09,8.64,3.46-12.58,4.21Z"/>
  <path class="cls-4" d="M185.25,243.27l-.03,1.46c-7.94-1.11-15.67,0-23.49,4.01l11.43,3.56.13,2.22c-5.11-1.3-9.59-3.33-15.12-6.03,7.12-3.47,13.52-5.61,20.81-6l6.28.79Z"/>
  <path class="cls-4" d="M113.95,253.61l-.04-1.29,12.58-4.21-8.64-3.46-11.78-.09-.35-1.36c2.67-1.1,5.53-.59,8.79-.17l6.04.77,9.24,4.12c-5.02,3.42-10.47,4.32-15.85,5.67Z"/>
  <path class="cls-1" d="M176.2,328.76c0,.34-.66.96-1,.85-1.91-.61-4.3.4-4.51,2.64l28.67,5.92c2.6.54,2.2,4.26,1.33,6.17-.81,1.78-1.87,3.52-4.17,4.13-.21-.02-.65-.55-.62-.82.14-.98-.26-2.13-1.06-2.56-.85-.45-1.71-.42-2.86-.57l-19.74-2.5c-5.29-.67-10.24-2.53-15.61-2.16l-29.45,18.6c-1.81,1.14-3.27,2.3-3.89,4.09-2.04,2.01-3.84-.15-5.25-1.71-1.27-1.41-2.82-4.64-.61-6.11l18.74-12.46c.78-.29.98-1.08.22-1.56.31-.26.89-.52,1.23-.56.36.05,1.45.3,1.92.21.62-.12.88-1.97.5-2.51s-14.49-4.85-23.78-.35c4.35-9.43,14.45-14.66,24.94-12.38l12.9,2.81,15.93-10.44c8.29-5.43,19.04-4.29,26.11,2.74-6.64-.39-11.77,2.12-17.3,5-1.72.9-2.66,1.79-2.66,3.51Z"/>
  <path class="cls-5" d="M195.9,347.66c-.04.26.4.79.62.82,1.99,6.3-8.87,8.47-18.73,6.14l-18.43-4.35-21.23,15.19c-3.46,2.47-8.27,3.77-12.34,2-1.66-.72-1.48-3.65-1.36-4.81,3.32-2.6,6.9-4.72,10.91-7.14l22.71-13.73,23.2,3.32c5.22.75,10.13.88,14.66,2.56Z"/>
  <path class="cls-5" d="M175.2,329.61c.34.11,1-.51,1-.85,7.66-7.55,22.16-9.29,22.6-4.72.08.83-.36,2.02-1.47,2.71l-10.51,6.49c-2.14,1.32-16.14-1.31-11.61-3.62Z"/>
  <path class="cls-5" d="M137.62,340.17c-.33.04-.92.3-1.23.56-8.19,6.95-9.91,5.6-19.46,3.88-1.58-.28-2.55-1.46-2.45-2.56.62-6.6,21.76-6.75,23.48-3.11.14.29-.13.98-.34,1.23Z"/>
  <path class="cls-4" d="M195.9,347.66c-4.53-1.68-9.43-1.82-14.66-2.56l-23.2-3.32-22.71,13.73c-4.01,2.42-7.58,4.55-10.91,7.14-.33-.17-1.02-.19-1.14-.09.62-1.79,2.08-2.95,3.89-4.09l29.45-18.6c5.37-.36,10.32,1.49,15.61,2.16l19.74,2.5c1.15.15,2,.11,2.86.57.81.43,1.2,1.59,1.06,2.56Z"/>
</svg>