<?xml version="1.0" encoding="UTF-8"?>
<svg id="Layer_1" data-name="Layer 1" xmlns="http://www.w3.org/2000/svg" viewBox="0 0 494.26 565.68">
  <defs>
    <style>
      .cls-1 {
        fill: #ddd;
      }
    </style>
  </defs>
  <path class="cls-1" d="M378.03,508.78l-188.42.05c-16.37,0-33.05-10.91-33.06-28.88l-.12-310.67c0-18.73,15.4-31.01,33.22-30.95l193.25.57c16.25.05,27.6,15.99,27.6,31.25l.07,305.78c0,18.88-12.94,32.86-32.55,32.86ZM344.96,336.26c6.69-1,9.56-5.31,9.56-11.26l-.06-121.73c0-6.39-5.08-9.88-10.96-9.88l-122.81-.04c-6.45,0-10.76,4.55-10.76,10.9l.03,123.46c0,3.93,4.75,8.46,8.73,8.46l126.26.09ZM354.65,398.73c5.48,0,8.13-5.79,7.76-8.98-.52-4.6-3.75-8.1-8.92-8.1l-141.82.07c-5.56,0-8.35,5.24-7.85,9.6.57,4.98,4.51,7.49,9.9,7.49l140.93-.08ZM354.27,450.63c5.55,0,8.28-5.31,8.21-9s-3.22-8.43-8.21-8.43l-141.57-.02c-5.39,0-8.77,3.95-8.95,8.54-.17,4.35,3.22,8.91,8.53,8.91h141.98Z"/>
  <path class="cls-1" d="M142.61,450.16c-6.23-4.78-9.86-12.9-11.12-21.02l-9.96-64.22-37.55-240.85c-2.47-15.86,10.48-32.05,25.87-34.5l200.33-31.96c10.74-1.71,20.12-.86,29.09,5.81,7.49,5.57,11.7,14.53,13.14,24.96l5.02,36.31-171.92.19c-21.31.02-42.28,18.39-42.32,40.39l-.59,284.89Z"/>
</svg>