<?xml version="1.0" encoding="UTF-8"?>
<svg id="Layer_1" data-name="Layer 1" xmlns="http://www.w3.org/2000/svg" viewBox="0 0 494.26 565.68">
  <defs>
    <style>
      .cls-1 {
        fill: #ddd;
      }
    </style>
  </defs>
  <path class="cls-1" d="M388.11,486.43l-284.28-.19c-18.54-.01-34.59-14.77-34.58-33.8l.16-341.15c0-16.7,16.02-32.02,32.41-32.02h290.63c19.22-.01,32.57,17.52,32.56,35.81l-.37,339.29c-.02,20.03-17.97,32.08-36.54,32.07ZM365.93,181.25c6.12,0,9.02-5.78,9-9.85-.02-3.73-3.41-9.23-8.71-9.23h-237.2c-6.18-.01-9.84,5.46-9.48,10.2.41,5.37,4.38,8.96,10.41,8.96l235.98-.08ZM365.45,245.19c5.9,0,9.53-4.96,9.45-9.82-.08-4.51-3.74-9.3-9.54-9.3l-237.23.06c-5.36,0-8.33,5.47-8.54,9.28-.22,4.03,2.87,9.74,8.32,9.74l237.53.04ZM365.47,309.02c5.88,0,9.46-4.73,9.44-9.78-.02-3.79-3.23-9.22-8.66-9.22l-238.11-.02c-5.77,0-8.93,6.27-8.6,10.16.46,5.54,4.43,8.86,10.4,8.86h235.54ZM334.08,402.34c-4.46.01-7.82-2.1-7.83-6.73l-.1-46.22c-20.32,2.19-35.66,16.48-40.8,33.99-5.79,19.73.92,40.42,17.01,52.35,14.87,11.02,33.03,13.18,50.22,5.05,14.19-6.71,25.31-21.29,26.66-38.56l-45.17.12ZM379.22,391.28c-2.9-23.72-20.31-39-41.95-42.15l.02,42.45,41.92-.31ZM227.1,372.82c6.04,0,9.17-6.32,8.68-10.48s-3.99-8.5-9.21-8.5l-97.67-.02c-5.64,0-9.24,4.76-9.39,9.43s3.69,9.62,9.34,9.61l98.26-.04Z"/>
</svg>