<?xml version="1.0" encoding="UTF-8"?>
<svg id="Layer_1" data-name="Layer 1" xmlns="http://www.w3.org/2000/svg" viewBox="0 0 943.04 1010.72">
  <defs>
    <style>
      .cls-1 {
        fill: #a66bdc;
      }

      .cls-2 {
        fill: #6733a7;
      }

      .cls-3 {
        fill: #8045c3;
      }

      .cls-4 {
        fill: #d0adf0;
      }
    </style>
  </defs>
  <path class="cls-1" d="M315.1,905.06c-88.02-16.24-164.36-65.77-218.19-135.84-26-33.85-45.89-70.84-59.54-111.4-22.09-65.63-28.15-135.08-18.25-203.83,7.37-51.21,22.41-100.75,44.42-147.56,30.79-65.48,75.42-123.34,130.51-170.05C299.18,47.25,447.98,7.31,581.4,47.04c77.06,22.95,142.67,72.81,187.26,139.46,27.48,41.07,45.88,86.78,56.52,135.25,14.67,66.83,13.28,136.07-2.03,202.74-16.69,72.65-46.91,140.71-91.21,200.6-47.4,64.07-108.38,116.35-180.89,149.77-73.76,34-155.38,45.06-235.95,30.2ZM472.92,861.87c34.86-9.02,67.55-22.29,98.71-40.28,40.5-23.37,76.86-52.87,107.86-88.02,57.22-64.87,95.81-144.24,112.6-229.17,22.6-114.3-3.4-240.83-82.67-327.58-63.27-69.24-154.12-106.72-247.74-103.92-89.1,2.66-175.6,38.36-243.77,95.23C117.6,251.83,56,379.41,52.19,510c-1.11,38.14,2.87,75.33,13.3,111.86,15.75,55.14,44.71,105.13,83.68,147.12,83.41,89.86,205.09,123.62,323.75,92.91Z"/>
  <path class="cls-2" d="M916.87,527.85c2.67,1.36,5.26,2.69,7.9,3.13l-1.99,14.2c-.34-.08-.75-.23-1.5.04l-61.48-30.63-12.95,56.64,57.81,29.51c1.53,1.78,3.4,2.34,5.65,2.55l-4.07,13.89-63.47-31.62c-6,19.13-12.25,36.71-20.39,54.78l57.26,29.46c2.23,1.14,3.93,2.36,6.41,2.37l-6.17,13.81-63.8-32.42c-8.15,18.33-17.13,34.4-27.47,51.58l58.26,30.53c1.81.95,3.23,1.53,5.24,1.52l-8.11,12.83c-1.64-.29-3.05-.83-4.77-1.73l-58.57-30.56-34.49,47.47,61.95,32.97-9.34,10.96-62.18-32.58-21.74,23.41-18.18,17.61,60.31,33.36-11.01,9.42-11.29-5.55-50.45-27c-14.29,12.81-28.96,23.25-45.21,34.13l49.43,27.1c3.76,1.76,7.42,3.01,10.38,5.93-44.91,28.64-94.61,49.74-146.97,61.68l-7.83,2.14c-1.36.37-4.24.71-5.66.95l-11.42,1.96-6.76.95-6.89,1.23c-6.42-.12-12.53,1.18-18.65,1.68l-14.3,1.18c-24.65.59-48.5.05-72.9-2.38l-27.46-3.87-6.39-1.46c-55.64-11.16-107.79-33.56-154.53-66l-32.18-22.34.55-1.44c54.76,35.27,117.89,55.36,183.52,58.33,26.14,1.18,51.09.52,77.03-3.26,68.76-10.04,133.28-37.06,189.71-77.66,115.85-83.35,190.57-217.73,210.13-358.43,14.58-104.82-4.26-221.85-65.32-308.74l1.4-.11,22.48,34.14c2.78,4.22,5.1,8.13,7.01,13.24l63.18,31.62,6.48,12.04c-4.5-.81-8.07-3.32-12.26-5.38l-49.83-24.52c7.7,18.24,15.41,33.83,20.62,51.69l62.77,30.84c1.37,4.08,3.23,7.88,3.65,12.32-3.95.04-7.41-1.63-10.81-3.82l-51.17-25.7c5.37,18.67,9.8,35.83,13.36,54.58l58.26,29.58c1.32,1.12,2.72,1.26,4.04,1.14l2.1,13.33c-2-.08-3.7-.82-5.71-1.83l-56.51-28.13c2.45,19,4.38,36.2,4.68,54.42l57.65,29.83c1.6.78,2.92,1.28,4.35,1.34l.26,14.19-11.82-5.34-24.61-12.43-25.83-13.16c-.08,19.58-1.51,37.16-4.25,56.12l21.77,11.46,33.09,16.91Z"/>
  <path class="cls-3" d="M876.59,258.37l-63.18-31.62c-1.91-5.1-4.23-9.01-7.01-13.24l-22.48-34.14-1.4.12c-20.51-29.19-44.96-55.29-72.8-77.47-.1-.11-.41-.57-1.46-.83l1.77-.5c-.01.24.34.47.58.36l64.93,43.49c39.07,26.17,78.98,72.76,101.05,113.83Z"/>
  <path class="cls-3" d="M883.06,270.41l15.33,34.94,5.97,17.69-62.77-30.84c-5.21-17.86-12.92-33.46-20.62-51.7l49.84,24.52c4.19,2.06,7.76,4.57,12.25,5.38Z"/>
  <path class="cls-1" d="M187.45,869.24l-.55,1.44-13.83-9.75c-1.51-1.07-2.72-1.82-2.5-3.74l16.87,12.05Z"/>
  <path class="cls-3" d="M879.88,685.99l-27.77,51.21c-2.01,0-3.43-.57-5.24-1.52l-58.26-30.53c10.35-17.19,19.32-33.26,27.47-51.58l63.8,32.42Z"/>
  <path class="cls-3" d="M906.24,617.18c-5.48,18.7-12.22,37.17-20.19,55-2.48-.01-4.18-1.23-6.41-2.38l-57.26-29.46c8.14-18.06,14.39-35.65,20.38-54.78l63.47,31.62Z"/>
  <path class="cls-3" d="M844,750.02l-35.88,48.16-61.95-32.98,34.49-47.47,58.58,30.56c1.71.89,3.13,1.44,4.76,1.72Z"/>
  <path class="cls-3" d="M922.78,545.18l-12.47,58.11c-2.25-.21-4.12-.76-5.65-2.54l-57.81-29.52,12.94-56.64,61.49,30.63c.75-.27,1.16-.12,1.49-.04Z"/>
  <path class="cls-3" d="M798.78,809.14c-12.79,15-26.82,28.98-41.79,41.8l-60.31-33.36,18.18-17.61,21.73-23.4,62.18,32.58Z"/>
  <path class="cls-3" d="M927.59,500.8c.09.18.71.86.71,1.13,0,.46-.62,1-1.01,1.18l-2.52,27.87c-2.64-.44-5.23-1.77-7.9-3.13l-33.09-16.91-21.77-11.46c2.74-18.96,4.17-36.54,4.25-56.12l25.83,13.16,24.61,12.43,11.82,5.34-.93,26.51Z"/>
  <path class="cls-3" d="M745.98,860.36c-14.79,12.67-30.71,24.12-47.14,34.61-2.96-2.92-6.62-4.17-10.38-5.93l-49.43-27.1c16.25-10.88,30.92-21.32,45.21-34.13l50.45,27.01,11.29,5.55Z"/>
  <path class="cls-3" d="M923.8,404.48c2.89,18.37,4.13,37.03,4.47,55.63-1.44-.06-2.76-.56-4.36-1.35l-57.65-29.83c-.31-18.22-2.23-35.42-4.68-54.42l56.51,28.12c2.01,1.02,3.71,1.76,5.71,1.84Z"/>
  <path class="cls-3" d="M908.02,335.37l2.42,6.08,11.26,49.69c-1.32.13-2.72-.02-4.04-1.13l-58.26-29.58c-3.56-18.76-7.99-35.91-13.36-54.58l51.17,25.7c3.4,2.19,6.85,3.86,10.81,3.83Z"/>
  <path class="cls-1" d="M400.12,613.39l-55.94,44.68c-15.77,12.59-31.27,23.96-48.36,34.59-20.01,12.44-44.84,23.57-67.46,16.06-16.9-5.62-26.27-22.07-23.02-39.65,2.83-15.3,11.63-28.88,24.98-36.91l37.46-22.56c30.55-17.77,60.02-35.64,89.4-55.39l58.88-42.59,62.17,69.1c18.37,20.42,37.89,38.34,57.42,57.45l20.68,20.25c9.33,11.01,14.13,24.21,12.66,38.45-1.89,18.43-14.41,32.54-33,35.25-36.14,5.26-60.29-24.32-81.99-50.31l-53.9-68.43Z"/>
  <path class="cls-1" d="M668.19,424.21c-23.94,16.59-48.28,30.51-73.54,45.16-20.87-20.55-40.3-41.26-60.55-63.73,25.53-25.78,58.1-46.32,94.68-51.39,13.14-1.41,26.11-.98,37.51,5.4,11.73,6.56,20.3,17.79,20.28,31.59-.02,13.19-7.07,25.12-18.38,32.96Z"/>
  <path class="cls-1" d="M253.1,441.86c-15.13-11.35-28.13-24.16-41.17-37.38-6.86-6.96-13.13-13.5-18-22.08-5.03-8.86-7.48-21.05-1.79-30.15,13.06-20.89,38.1-29.25,61.76-23.69,33.16,7.93,55.06,32.61,77.61,57.81-25.13,19.88-50.09,37.89-78.42,55.48Z"/>
  <path class="cls-4" d="M568.58,648.73l-22.9-22.61c-27.27-25.01-52.37-51.05-77-78.74l-50.49-56.76c-28.5,21.88-56.15,42.53-85.87,61.71l-102.71,61.96c-16.68,10.06-29.44,23.17-35.93,41.41l-11.47-33.83c-7.38-21.46-14.21-42.47-19.34-64.56-4.13-17.79.27-34.78,12.72-47.91,8.69-9.17,18.79-15.66,29.79-22.18l67.12-39.77c24.24-14.36,45.76-31.56,67.84-48.88l11.59-10.74c-13.1-17.49-27.26-33.38-43.78-47.59-28.39-24.4-69.36-40.11-103.31-18.61,19.73-31.75,39.72-61.13,67.3-85.24,25.5-22.3,55.47-33.07,87.85-19.94,16.36,6.68,29.96,16.97,41.85,30.11l47.11,52.06c23.39-17.03,46.51-32.78,71.21-47.03,10.08-5.81,19.78-10.55,30.6-14.4,2.1-2.31,5.16-1.55,7.71-2.25,29.76-8.11,59.89.41,80.67,23.18,10.91,11.96,18.97,25.42,25.4,40.46,6.8,16.47,12.03,32.73,15.44,51.33-14.65-10.2-30.85-13.32-48.25-11.73-22.55,2.19-43.17,9.83-62.87,21.08-21.75,12.76-40.67,28.85-57.8,47.65,34.64,39.52,70.36,75.61,108.46,110.29l19.94,21.26c14.11,15.04,11.61,39.97.79,57.93l-20.32,33.71-36.14,54.74c-1.66-14-6.15-25.59-15.19-36.12Z"/>
</svg>